# 3ds Max Wavefront OBJ Exporter v0.97b - (c)2007 guruware
# File Created: 10.12.2012 16:23:46

mtllib Fog.mtl

#
# object Fog
#

v  -1.749990 0.000000 2.250029
v  -1.749990 0.000000 1.750006
v  -2.250010 0.000000 1.750006
v  -2.250010 0.000000 2.250029
v  -1.749990 1.000000 2.250029
v  -1.749990 1.000000 1.750006
v  -2.250010 1.000000 1.750006
v  -2.250010 1.000000 2.250029
v  -1.250002 0.000000 1.750006
v  -1.250002 0.000000 1.249983
v  -1.749990 0.000000 1.249983
v  -1.749990 0.000000 1.750006
v  -1.250002 1.000000 1.750006
v  -1.250002 1.000000 1.249983
v  -1.749990 1.000000 1.249983
v  -1.749990 1.000000 1.750006
v  -1.250002 0.000000 2.250029
v  -0.750017 0.000000 2.250029
v  -0.750017 0.000000 1.750006
v  -1.250002 0.000000 1.750006
v  -1.250002 1.000000 2.250029
v  -0.750017 1.000000 2.250029
v  -0.750017 1.000000 1.750006
v  -1.250002 1.000000 1.750006
v  -0.249990 0.000000 2.250029
v  0.249992 0.000000 2.250029
v  0.249992 0.000000 1.750006
v  -0.249990 0.000000 1.750006
v  -0.249990 1.000000 2.250029
v  0.249992 1.000000 2.250029
v  0.249992 1.000000 1.750006
v  -0.249990 1.000000 1.750006
v  0.749983 0.000000 1.750006
v  0.749983 0.000000 1.249983
v  0.249992 0.000000 1.249983
v  0.249992 0.000000 1.750006
v  0.749983 1.000000 1.750006
v  0.749983 1.000000 1.249983
v  0.249992 1.000000 1.249983
v  0.249992 1.000000 1.750006
v  -0.249990 0.000000 1.750006
v  -0.249990 0.000000 1.249983
v  -0.750017 0.000000 1.249983
v  -0.750017 0.000000 1.750006
v  -0.249990 1.000000 1.750006
v  -0.249990 1.000000 1.249983
v  -0.750017 1.000000 1.249983
v  -0.750017 1.000000 1.750006
v  0.749983 0.000000 2.250029
v  1.250002 0.000000 2.250029
v  1.250002 0.000000 1.750006
v  0.749983 0.000000 1.750006
v  0.749983 1.000000 2.250029
v  1.250002 1.000000 2.250029
v  1.250002 1.000000 1.750006
v  0.749983 1.000000 1.750006
v  1.750023 0.000000 1.750006
v  1.750023 0.000000 1.249983
v  1.250002 0.000000 1.249983
v  1.250002 0.000000 1.750006
v  1.750023 1.000000 1.750006
v  1.750023 1.000000 1.249983
v  1.250002 1.000000 1.249983
v  1.250002 1.000000 1.750006
v  1.750023 0.000000 2.250029
v  2.250010 0.000000 2.250029
v  2.250010 0.000000 1.750006
v  1.750023 0.000000 1.750006
v  1.750023 1.000000 2.250029
v  2.250010 1.000000 2.250029
v  2.250010 1.000000 1.750006
v  1.750023 1.000000 1.750006
v  2.249992 0.000000 0.750000
v  2.249975 0.000000 -2.250027
v  -2.250010 0.000000 -2.250027
v  -2.249975 0.000000 0.750000
v  -2.250010 0.000000 1.249983
v  -1.749990 0.000000 1.249983
v  -1.749990 0.000000 0.750032
v  -1.250002 0.000000 0.750032
v  -1.250002 0.000000 1.249983
v  -0.750017 0.000000 1.249983
v  -0.750017 0.000000 0.750032
v  -0.249990 0.000000 0.750032
v  -0.249990 0.000000 1.249983
v  0.249992 0.000000 1.249983
v  0.249992 0.000000 0.750032
v  0.749983 0.000000 0.750032
v  0.749983 0.000000 1.249983
v  1.250002 0.000000 1.249983
v  1.250002 0.000000 0.750032
v  1.750023 0.000000 0.750032
v  1.750023 0.000000 1.249983
v  2.250010 0.000000 1.249983
v  2.249992 1.000000 0.750000
v  2.249975 1.000000 -2.250027
v  -2.250010 1.000000 -2.250027
v  -2.249975 1.000000 0.750000
v  -2.250010 1.000000 1.249983
v  -1.749990 1.000000 1.249983
v  -1.749990 1.000000 0.750032
v  -1.250002 1.000000 0.750032
v  -1.250002 1.000000 1.249983
v  -0.750017 1.000000 1.249983
v  -0.750017 1.000000 0.750032
v  -0.249990 1.000000 0.750032
v  -0.249990 1.000000 1.249983
v  0.249992 1.000000 1.249983
v  0.249992 1.000000 0.750032
v  0.749983 1.000000 0.750032
v  0.749983 1.000000 1.249983
v  1.250002 1.000000 1.249983
v  1.250002 1.000000 0.750032
v  1.750023 1.000000 0.750032
v  1.750023 1.000000 1.249983
v  2.250010 1.000000 1.249983
# 116 vertices

vn 1.000000 0.000000 -0.000000
vn 1.000000 0.000000 -0.000000
vn 1.000000 0.000000 -0.000000
vn 1.000000 0.000000 -0.000000
vn 0.000000 0.000000 -1.000000
vn 0.000000 0.000000 -1.000000
vn 0.000000 0.000000 -1.000000
vn 0.000000 0.000000 -1.000000
vn -1.000000 0.000000 -0.000000
vn -1.000000 0.000000 -0.000000
vn -1.000000 0.000000 -0.000000
vn -1.000000 0.000000 -0.000000
vn 0.000000 0.000000 1.000000
vn 0.000000 0.000000 1.000000
vn 0.000000 0.000000 1.000000
vn 0.000000 0.000000 1.000000
vn 1.000000 0.000000 -0.000000
vn 1.000000 0.000000 -0.000000
vn 1.000000 0.000000 -0.000000
vn 1.000000 0.000000 -0.000000
vn 0.000000 0.000000 -1.000000
vn 0.000000 0.000000 -1.000000
vn 0.000000 0.000000 -1.000000
vn 0.000000 0.000000 -1.000000
vn -1.000000 0.000000 -0.000000
vn -1.000000 0.000000 -0.000000
vn -1.000000 0.000000 -0.000000
vn -1.000000 0.000000 -0.000000
vn 0.000000 0.000000 1.000000
vn 0.000000 0.000000 1.000000
vn 0.000000 0.000000 1.000000
vn 0.000000 0.000000 1.000000
vn 0.000000 0.000000 1.000000
vn 0.000000 0.000000 1.000000
vn 0.000000 0.000000 1.000000
vn 0.000000 0.000000 1.000000
vn 1.000000 0.000000 -0.000000
vn 1.000000 0.000000 -0.000000
vn 1.000000 0.000000 -0.000000
vn 1.000000 0.000000 -0.000000
vn 0.000000 0.000000 -1.000000
vn 0.000000 0.000000 -1.000000
vn 0.000000 0.000000 -1.000000
vn 0.000000 0.000000 -1.000000
vn -1.000000 0.000000 -0.000000
vn -1.000000 0.000000 -0.000000
vn -1.000000 0.000000 -0.000000
vn -1.000000 0.000000 -0.000000
vn 0.000000 0.000000 1.000000
vn 0.000000 0.000000 1.000000
vn 0.000000 0.000000 1.000000
vn 0.000000 0.000000 1.000000
vn 1.000000 0.000000 -0.000000
vn 1.000000 0.000000 -0.000000
vn 1.000000 0.000000 -0.000000
vn 1.000000 0.000000 -0.000000
vn 0.000000 0.000000 -1.000000
vn 0.000000 0.000000 -1.000000
vn 0.000000 0.000000 -1.000000
vn 0.000000 0.000000 -1.000000
vn -1.000000 0.000000 -0.000000
vn -1.000000 0.000000 -0.000000
vn -1.000000 0.000000 -0.000000
vn -1.000000 0.000000 -0.000000
vn 1.000000 0.000000 -0.000000
vn 1.000000 0.000000 -0.000000
vn 1.000000 0.000000 -0.000000
vn 1.000000 0.000000 -0.000000
vn 0.000000 0.000000 -1.000000
vn 0.000000 0.000000 -1.000000
vn 0.000000 0.000000 -1.000000
vn 0.000000 0.000000 -1.000000
vn -1.000000 0.000000 -0.000000
vn -1.000000 0.000000 -0.000000
vn -1.000000 0.000000 -0.000000
vn -1.000000 0.000000 -0.000000
vn 0.000000 0.000000 1.000000
vn 0.000000 0.000000 1.000000
vn 0.000000 0.000000 1.000000
vn 0.000000 0.000000 1.000000
vn 1.000000 0.000000 -0.000000
vn 1.000000 0.000000 -0.000000
vn 1.000000 0.000000 -0.000000
vn 1.000000 0.000000 -0.000000
vn 0.000000 0.000000 -1.000000
vn 0.000000 0.000000 -1.000000
vn 0.000000 0.000000 -1.000000
vn 0.000000 0.000000 -1.000000
vn -1.000000 0.000000 -0.000000
vn -1.000000 0.000000 -0.000000
vn -1.000000 0.000000 -0.000000
vn -1.000000 0.000000 -0.000000
vn 0.000000 0.000000 1.000000
vn 0.000000 0.000000 1.000000
vn 0.000000 0.000000 1.000000
vn 0.000000 0.000000 1.000000
vn 0.000000 0.000000 1.000000
vn 0.000000 0.000000 1.000000
vn 0.000000 0.000000 1.000000
vn 0.000000 0.000000 1.000000
vn 1.000000 0.000000 -0.000000
vn 1.000000 0.000000 -0.000000
vn 1.000000 0.000000 -0.000000
vn 1.000000 0.000000 -0.000000
vn 0.000000 0.000000 -1.000000
vn 0.000000 0.000000 -1.000000
vn 0.000000 0.000000 -1.000000
vn 0.000000 0.000000 -1.000000
vn -1.000000 0.000000 -0.000000
vn -1.000000 0.000000 -0.000000
vn -1.000000 0.000000 -0.000000
vn -1.000000 0.000000 -0.000000
vn 1.000000 0.000000 -0.000000
vn 1.000000 0.000000 -0.000000
vn 1.000000 0.000000 -0.000000
vn 1.000000 0.000000 -0.000000
vn 0.000000 0.000000 -1.000000
vn 0.000000 0.000000 -1.000000
vn 0.000000 0.000000 -1.000000
vn 0.000000 0.000000 -1.000000
vn -1.000000 0.000000 -0.000000
vn -1.000000 0.000000 -0.000000
vn -1.000000 0.000000 -0.000000
vn -1.000000 0.000000 -0.000000
vn 0.000000 0.000000 1.000000
vn 0.000000 0.000000 1.000000
vn 0.000000 0.000000 1.000000
vn 0.000000 0.000000 1.000000
vn 0.000000 0.000000 1.000000
vn 0.000000 0.000000 1.000000
vn 0.000000 0.000000 1.000000
vn 0.000000 0.000000 1.000000
vn 1.000000 0.000000 -0.000000
vn 1.000000 0.000000 -0.000000
vn 1.000000 0.000000 -0.000000
vn 1.000000 0.000000 -0.000000
vn 0.000000 0.000000 -1.000000
vn 0.000000 0.000000 -1.000000
vn 0.000000 0.000000 -1.000000
vn 0.000000 0.000000 -1.000000
vn -1.000000 0.000000 -0.000000
vn -1.000000 0.000000 -0.000000
vn -1.000000 0.000000 -0.000000
vn -1.000000 0.000000 -0.000000
vn 1.000000 0.000000 -0.000006
vn 1.000000 0.000000 -0.000006
vn 1.000000 0.000000 -0.000006
vn 1.000000 0.000000 -0.000006
vn 0.000000 0.000000 -1.000000
vn 0.000000 0.000000 -1.000000
vn 0.000000 0.000000 -1.000000
vn 0.000000 0.000000 -1.000000
vn -1.000000 0.000000 0.000011
vn -1.000000 0.000000 0.000011
vn -1.000000 0.000000 0.000011
vn -1.000000 0.000000 0.000011
vn -1.000000 0.000000 -0.000069
vn -1.000000 0.000000 -0.000069
vn -1.000000 0.000000 -0.000069
vn -1.000000 0.000000 -0.000069
vn 0.000000 0.000000 1.000000
vn 0.000000 0.000000 1.000000
vn 0.000000 0.000000 1.000000
vn 0.000000 0.000000 1.000000
vn 1.000000 0.000000 -0.000000
vn 1.000000 0.000000 -0.000000
vn 1.000000 0.000000 -0.000000
vn 1.000000 0.000000 -0.000000
vn 0.000000 0.000000 1.000000
vn 0.000000 0.000000 1.000000
vn 0.000000 0.000000 1.000000
vn 0.000000 0.000000 1.000000
vn -1.000000 0.000000 -0.000000
vn -1.000000 0.000000 -0.000000
vn -1.000000 0.000000 -0.000000
vn -1.000000 0.000000 -0.000000
vn 0.000000 0.000000 1.000000
vn 0.000000 0.000000 1.000000
vn 0.000000 0.000000 1.000000
vn 0.000000 0.000000 1.000000
vn 1.000000 0.000000 -0.000000
vn 1.000000 0.000000 -0.000000
vn 1.000000 0.000000 -0.000000
vn 1.000000 0.000000 -0.000000
vn 0.000000 0.000000 1.000000
vn 0.000000 0.000000 1.000000
vn 0.000000 0.000000 1.000000
vn 0.000000 0.000000 1.000000
vn -1.000000 0.000000 -0.000000
vn -1.000000 0.000000 -0.000000
vn -1.000000 0.000000 -0.000000
vn -1.000000 0.000000 -0.000000
vn 0.000000 0.000000 1.000000
vn 0.000000 0.000000 1.000000
vn 0.000000 0.000000 1.000000
vn 0.000000 0.000000 1.000000
vn 1.000000 0.000000 -0.000000
vn 1.000000 0.000000 -0.000000
vn 1.000000 0.000000 -0.000000
vn 1.000000 0.000000 -0.000000
vn 0.000000 0.000000 1.000000
vn 0.000000 0.000000 1.000000
vn 0.000000 0.000000 1.000000
vn 0.000000 0.000000 1.000000
vn -1.000000 0.000000 -0.000000
vn -1.000000 0.000000 -0.000000
vn -1.000000 0.000000 -0.000000
vn -1.000000 0.000000 -0.000000
vn 0.000000 0.000000 1.000000
vn 0.000000 0.000000 1.000000
vn 0.000000 0.000000 1.000000
vn 0.000000 0.000000 1.000000
vn 1.000000 0.000000 -0.000000
vn 1.000000 0.000000 -0.000000
vn 1.000000 0.000000 -0.000000
vn 1.000000 0.000000 -0.000000
vn 0.000000 0.000000 1.000000
vn 0.000000 0.000000 1.000000
vn 0.000000 0.000000 1.000000
vn 0.000000 0.000000 1.000000
vn -1.000000 0.000000 -0.000000
vn -1.000000 0.000000 -0.000000
vn -1.000000 0.000000 -0.000000
vn -1.000000 0.000000 -0.000000
vn 0.000000 0.000000 1.000000
vn 0.000000 0.000000 1.000000
vn 0.000000 0.000000 1.000000
vn 0.000000 0.000000 1.000000
vn 1.000000 0.000000 -0.000034
vn 1.000000 0.000000 -0.000034
vn 1.000000 0.000000 -0.000034
vn 1.000000 0.000000 -0.000034
vn 0.000000 -1.000000 -0.000000
vn 0.000000 -1.000000 -0.000000
vn 0.000000 -1.000000 -0.000000
vn 0.000000 -1.000000 -0.000000
vn 0.000000 -1.000000 -0.000000
vn 0.000000 -1.000000 -0.000000
vn 0.000000 -1.000000 -0.000000
vn 0.000000 -1.000000 -0.000000
vn 0.000000 -1.000000 -0.000000
vn 0.000000 -1.000000 -0.000000
vn 0.000000 -1.000000 -0.000000
vn 0.000000 -1.000000 -0.000000
vn 0.000000 -1.000000 -0.000000
vn 0.000000 -1.000000 -0.000000
vn 0.000000 -1.000000 -0.000000
vn 0.000000 -1.000000 -0.000000
vn 0.000000 -1.000000 -0.000000
vn 0.000000 -1.000000 -0.000000
vn 0.000000 -1.000000 -0.000000
vn 0.000000 -1.000000 -0.000000
vn 0.000000 -1.000000 -0.000000
vn 0.000000 -1.000000 -0.000000
vn 0.000000 -1.000000 -0.000000
vn 0.000000 -1.000000 -0.000000
vn 0.000000 -1.000000 -0.000000
vn 0.000000 -1.000000 -0.000000
vn 0.000000 -1.000000 -0.000000
vn 0.000000 -1.000000 -0.000000
vn 0.000000 -1.000000 -0.000000
vn 0.000000 -1.000000 -0.000000
vn 0.000000 -1.000000 -0.000000
vn 0.000000 -1.000000 -0.000000
vn 0.000000 -1.000000 -0.000000
vn 0.000000 -1.000000 -0.000000
vn 0.000000 -1.000000 -0.000000
vn 0.000000 -1.000000 -0.000000
vn 0.000000 -1.000000 -0.000000
vn 0.000000 -1.000000 -0.000000
vn 0.000000 -1.000000 -0.000000
vn 0.000000 -1.000000 -0.000000
vn 0.000000 -1.000000 -0.000000
vn 0.000000 -1.000000 -0.000000
vn 0.000000 -1.000000 -0.000000
vn 0.000000 -1.000000 -0.000000
vn 0.000000 -1.000000 -0.000000
vn 0.000000 -1.000000 -0.000000
vn 0.000000 -1.000000 -0.000000
vn 0.000000 -1.000000 -0.000000
vn 0.000000 -1.000000 -0.000000
vn 0.000000 -1.000000 -0.000000
vn 0.000000 -1.000000 -0.000000
vn 0.000000 -1.000000 -0.000000
vn 0.000000 -1.000000 -0.000000
vn 0.000000 -1.000000 -0.000000
vn 0.000000 -1.000000 -0.000000
vn 0.000000 -1.000000 -0.000000
vn 0.000000 -1.000000 -0.000000
vn 0.000000 -1.000000 -0.000000
vn 0.000000 -1.000000 -0.000000
vn 0.000000 -1.000000 -0.000000
vn 0.000000 -1.000000 -0.000000
vn 0.000000 -1.000000 -0.000000
vn 0.000000 -1.000000 -0.000000
vn 0.000000 -1.000000 -0.000000
vn 0.000000 -1.000000 -0.000000
vn 0.000000 -1.000000 -0.000000
vn 0.000000 -1.000000 -0.000000
vn 0.000000 -1.000000 -0.000000
vn 0.000000 -1.000000 -0.000000
vn 0.000000 -1.000000 -0.000000
vn 0.000000 -1.000000 -0.000000
vn 0.000000 -1.000000 -0.000000
vn 0.000000 -1.000000 -0.000000
vn 0.000000 -1.000000 -0.000000
vn 0.000000 -1.000000 -0.000000
vn 0.000000 -1.000000 -0.000000
vn 0.000000 1.000000 -0.000000
vn 0.000000 1.000000 -0.000000
vn 0.000000 1.000000 -0.000000
vn 0.000000 1.000000 -0.000000
vn 0.000000 1.000000 -0.000000
vn 0.000000 1.000000 -0.000000
vn 0.000000 1.000000 -0.000000
vn 0.000000 1.000000 -0.000000
vn 0.000000 1.000000 -0.000000
vn 0.000000 1.000000 -0.000000
vn 0.000000 1.000000 -0.000000
vn 0.000000 1.000000 -0.000000
vn 0.000000 1.000000 -0.000000
vn 0.000000 1.000000 -0.000000
vn 0.000000 1.000000 -0.000000
vn 0.000000 1.000000 -0.000000
vn 0.000000 1.000000 -0.000000
vn 0.000000 1.000000 -0.000000
vn 0.000000 1.000000 -0.000000
vn 0.000000 1.000000 -0.000000
vn 0.000000 1.000000 -0.000000
vn 0.000000 1.000000 -0.000000
vn 0.000000 1.000000 -0.000000
vn 0.000000 1.000000 -0.000000
vn 0.000000 1.000000 -0.000000
vn 0.000000 1.000000 -0.000000
vn 0.000000 1.000000 -0.000000
vn 0.000000 1.000000 -0.000000
vn 0.000000 1.000000 -0.000000
vn 0.000000 1.000000 -0.000000
vn 0.000000 1.000000 -0.000000
vn 0.000000 1.000000 -0.000000
vn 0.000000 1.000000 -0.000000
vn 0.000000 1.000000 -0.000000
vn 0.000000 1.000000 -0.000000
vn 0.000000 1.000000 -0.000000
vn 0.000000 1.000000 -0.000000
vn 0.000000 1.000000 -0.000000
vn 0.000000 1.000000 -0.000000
vn 0.000000 1.000000 -0.000000
vn 0.000000 1.000000 -0.000000
vn 0.000000 1.000000 -0.000000
vn 0.000000 1.000000 -0.000000
vn 0.000000 1.000000 -0.000000
vn 0.000000 1.000000 -0.000000
vn 0.000000 1.000000 -0.000000
vn 0.000000 1.000000 -0.000000
vn 0.000000 1.000000 -0.000000
vn 0.000000 1.000000 -0.000000
vn 0.000000 1.000000 -0.000000
vn 0.000000 1.000000 -0.000000
vn 0.000000 1.000000 -0.000000
vn 0.000000 1.000000 -0.000000
vn 0.000000 1.000000 -0.000000
vn 0.000000 1.000000 -0.000000
vn 0.000000 1.000000 -0.000000
vn 0.000000 1.000000 -0.000000
vn 0.000000 1.000000 -0.000000
vn 0.000000 1.000000 -0.000000
vn 0.000000 1.000000 -0.000000
vn 0.000000 1.000000 -0.000000
vn 0.000000 1.000000 -0.000000
vn 0.000000 1.000000 -0.000000
vn 0.000000 1.000000 -0.000000
vn 0.000000 1.000000 -0.000000
vn 0.000000 1.000000 -0.000000
vn 0.000000 1.000000 -0.000000
vn 0.000000 1.000000 -0.000000
vn 0.000000 1.000000 -0.000000
vn 0.000000 1.000000 -0.000000
vn 0.000000 1.000000 -0.000000
vn 0.000000 1.000000 -0.000000
vn 0.000000 1.000000 -0.000000
vn 0.000000 1.000000 -0.000000
vn 0.000000 1.000000 -0.000000
vn 0.000000 1.000000 -0.000000
# 384 vertex normals

g Fog
usemtl wire_008110135
f 6//1 5//2 1//3 2//4 
f 7//5 6//6 2//7 3//8 
f 8//9 7//10 3//11 4//12 
f 5//13 8//14 4//15 1//16 
f 14//17 13//18 9//19 10//20 
f 15//21 14//22 10//23 11//24 
f 16//25 15//26 11//27 12//28 
f 13//29 16//30 12//31 9//32 
f 22//33 21//34 17//35 18//36 
f 23//37 22//38 18//39 19//40 
f 24//41 23//42 19//43 20//44 
f 21//45 24//46 20//47 17//48 
f 30//49 29//50 25//51 26//52 
f 31//53 30//54 26//55 27//56 
f 32//57 31//58 27//59 28//60 
f 29//61 32//62 28//63 25//64 
f 38//65 37//66 33//67 34//68 
f 39//69 38//70 34//71 35//72 
f 40//73 39//74 35//75 36//76 
f 37//77 40//78 36//79 33//80 
f 46//81 45//82 41//83 42//84 
f 47//85 46//86 42//87 43//88 
f 48//89 47//90 43//91 44//92 
f 45//93 48//94 44//95 41//96 
f 54//97 53//98 49//99 50//100 
f 55//101 54//102 50//103 51//104 
f 56//105 55//106 51//107 52//108 
f 53//109 56//110 52//111 49//112 
f 62//113 61//114 57//115 58//116 
f 63//117 62//118 58//119 59//120 
f 64//121 63//122 59//123 60//124 
f 61//125 64//126 60//127 57//128 
f 70//129 69//130 65//131 66//132 
f 71//133 70//134 66//135 67//136 
f 72//137 71//138 67//139 68//140 
f 69//141 72//142 68//143 65//144 
f 96//145 95//146 73//147 74//148 
f 97//149 96//150 74//151 75//152 
f 98//153 97//154 75//155 76//156 
f 99//157 98//158 76//159 77//160 
f 100//161 99//162 77//163 78//164 
f 101//165 100//166 78//167 79//168 
f 102//169 101//170 79//171 80//172 
f 103//173 102//174 80//175 81//176 
f 104//177 103//178 81//179 82//180 
f 105//181 104//182 82//183 83//184 
f 106//185 105//186 83//187 84//188 
f 107//189 106//190 84//191 85//192 
f 108//193 107//194 85//195 86//196 
f 109//197 108//198 86//199 87//200 
f 110//201 109//202 87//203 88//204 
f 111//205 110//206 88//207 89//208 
f 112//209 111//210 89//211 90//212 
f 113//213 112//214 90//215 91//216 
f 114//217 113//218 91//219 92//220 
f 115//221 114//222 92//223 93//224 
f 116//225 115//226 93//227 94//228 
f 95//229 116//230 94//231 73//232 
f 3//233 2//234 1//235 4//236 
f 11//237 10//238 9//239 12//240 
f 19//241 18//242 17//243 20//244 
f 27//245 26//246 25//247 28//248 
f 35//249 34//250 33//251 36//252 
f 43//253 42//254 41//255 44//256 
f 51//257 50//258 49//259 52//260 
f 59//261 58//262 57//263 60//264 
f 67//265 66//266 65//267 68//268 
f 78//269 77//270 76//271 79//272 
f 76//273 75//274 74//275 79//276 
f 80//277 79//278 74//279 73//280 
f 73//281 94//282 93//283 92//284 
f 73//285 92//286 91//287 88//288 
f 91//289 90//290 89//291 88//292 
f 73//293 88//294 87//295 84//296 
f 87//297 86//298 85//299 84//300 
f 73//301 84//302 83//303 80//304 
f 81//305 80//306 83//307 82//308 
f 5//309 6//310 7//311 8//312 
f 13//313 14//314 15//315 16//316 
f 21//317 22//318 23//319 24//320 
f 29//321 30//322 31//323 32//324 
f 37//325 38//326 39//327 40//328 
f 45//329 46//330 47//331 48//332 
f 53//333 54//334 55//335 56//336 
f 61//337 62//338 63//339 64//340 
f 69//341 70//342 71//343 72//344 
f 103//345 104//346 105//347 102//348 
f 107//349 108//350 109//351 106//352 
f 111//353 112//354 113//355 110//356 
f 115//357 116//358 95//359 114//360 
f 113//361 114//362 95//363 110//364 
f 109//365 110//366 95//367 106//368 
f 105//369 106//370 95//371 102//372 
f 96//373 97//374 98//375 101//376 
f 98//377 99//378 100//379 101//380 
f 96//381 101//382 102//383 95//384 
# 96 polygons

