# 3ds Max Wavefront OBJ Exporter v0.97b - (c)2007 guruware
# File Created: 10.12.2012 16:22:43

mtllib DeathBall.mtl

#
# object DeathBall
#

v  1.750004 0.000000 -2.250027
v  -1.750023 0.000000 -2.250027
v  -1.864651 0.000000 -2.236818
v  -1.969881 0.000000 -2.199203
v  -2.062716 0.000000 -2.140179
v  -2.140142 0.000000 -2.062744
v  -2.199169 0.000000 -1.969906
v  -2.236786 0.000000 -1.864658
v  -2.249992 0.000000 -1.750008
v  -2.249992 0.000000 0.250010
v  -2.236782 0.000000 0.364660
v  -2.199163 0.000000 0.469910
v  -2.140137 0.000000 0.562744
v  -2.062702 0.000000 0.640171
v  -1.969868 0.000000 0.699194
v  -1.864632 0.000000 0.736809
v  -1.750004 0.000000 0.750013
v  -1.250019 0.000000 0.749994
v  -1.250019 0.000000 2.250029
v  -0.749998 0.000000 2.250029
v  -0.749998 0.000000 1.750006
v  -0.250046 0.000000 1.750006
v  -0.250046 0.000000 2.250029
v  0.249975 0.000000 2.250029
v  0.249975 0.000000 1.750006
v  0.749964 0.000000 1.750006
v  0.749964 0.000000 2.250029
v  1.249983 0.000000 2.250029
v  1.250019 0.000000 0.749994
v  1.750004 0.000000 0.749994
v  1.864645 0.000000 0.736790
v  1.969883 0.000000 0.699183
v  2.062717 0.000000 0.640162
v  2.140148 0.000000 0.562735
v  2.199169 0.000000 0.469900
v  2.236786 0.000000 0.364660
v  2.249990 0.000000 0.250010
v  2.249990 0.000000 -1.750008
v  2.236782 0.000000 -1.864658
v  2.199165 0.000000 -1.969906
v  2.140137 0.000000 -2.062746
v  2.062704 0.000000 -2.140179
v  1.969864 0.000000 -2.199205
v  1.864634 0.000000 -2.236820
v  1.750004 1.000000 -2.250027
v  -1.750023 1.000000 -2.250027
v  -1.864651 1.000000 -2.236818
v  -1.969881 1.000000 -2.199203
v  -2.062716 1.000000 -2.140179
v  -2.140142 1.000000 -2.062744
v  -2.199169 1.000000 -1.969906
v  -2.236786 1.000000 -1.864658
v  -2.249992 1.000000 -1.750008
v  -2.249992 1.000000 0.250010
v  -2.236782 1.000000 0.364660
v  -2.199163 1.000000 0.469910
v  -2.140137 1.000000 0.562744
v  -2.062702 1.000000 0.640171
v  -1.969868 1.000000 0.699194
v  -1.864632 1.000000 0.736809
v  -1.750004 1.000000 0.750013
v  -1.250019 1.000000 0.749994
v  -1.250019 1.000000 2.250029
v  -0.749998 1.000000 2.250029
v  -0.749998 1.000000 1.750006
v  -0.250046 1.000000 1.750006
v  -0.250046 1.000000 2.250029
v  0.249975 1.000000 2.250029
v  0.249975 1.000000 1.750006
v  0.749964 1.000000 1.750006
v  0.749964 1.000000 2.250029
v  1.249983 1.000000 2.250029
v  1.250019 1.000000 0.749994
v  1.750004 1.000000 0.749994
v  1.864645 1.000000 0.736790
v  1.969883 1.000000 0.699183
v  2.062717 1.000000 0.640162
v  2.140148 1.000000 0.562735
v  2.199169 1.000000 0.469900
v  2.236786 1.000000 0.364660
v  2.249990 1.000000 0.250010
v  2.249990 1.000000 -1.750008
v  2.236782 1.000000 -1.864658
v  2.199165 1.000000 -1.969906
v  2.140137 1.000000 -2.062746
v  2.062704 1.000000 -2.140179
v  1.969864 1.000000 -2.199205
v  1.864634 1.000000 -2.236820
v  -1.750038 0.000000 -0.250010
v  -1.750038 0.000000 -0.749998
v  -0.749998 0.000000 -0.749998
v  -0.749998 0.000000 -0.250010
v  -1.750038 1.000000 -0.250010
v  -1.750038 1.000000 -0.749998
v  -0.749998 1.000000 -0.749998
v  -0.749998 1.000000 -0.250010
v  1.750038 0.000000 -0.250010
v  0.812490 0.000000 -0.250010
v  0.812490 0.000000 -0.749998
v  1.750038 0.000000 -0.749998
v  1.750038 1.000000 -0.250010
v  0.812490 1.000000 -0.250010
v  0.812490 1.000000 -0.749998
v  1.750038 1.000000 -0.749998
# 104 vertices

vn 0.000000 0.000000 -1.000000
vn 0.000000 0.000000 -1.000000
vn 0.000000 0.000000 -1.000000
vn 0.000000 0.000000 -1.000000
vn -0.227014 0.000000 -0.973891
vn -0.114471 0.000000 -0.993427
vn -0.114471 0.000000 -0.993427
vn -0.227014 0.000000 -0.973891
vn -0.439297 0.000000 -0.898342
vn -0.227014 0.000000 -0.973891
vn -0.227014 0.000000 -0.973891
vn -0.439297 0.000000 -0.898342
vn -0.625592 0.000000 -0.780150
vn -0.439297 0.000000 -0.898342
vn -0.439297 0.000000 -0.898342
vn -0.625592 0.000000 -0.780150
vn -0.780182 0.000000 -0.625552
vn -0.625592 0.000000 -0.780150
vn -0.625592 0.000000 -0.780150
vn -0.780182 0.000000 -0.625552
vn -0.898351 0.000000 -0.439279
vn -0.780182 0.000000 -0.625552
vn -0.780182 0.000000 -0.625552
vn -0.898351 0.000000 -0.439279
vn -0.973900 0.000000 -0.226977
vn -0.898351 0.000000 -0.439279
vn -0.898351 0.000000 -0.439279
vn -0.973900 0.000000 -0.226977
vn -0.993431 0.000000 -0.114432
vn -0.973900 0.000000 -0.226977
vn -0.973900 0.000000 -0.226977
vn -0.993431 0.000000 -0.114432
vn -1.000000 0.000000 -0.000000
vn -1.000000 0.000000 -0.000000
vn -1.000000 0.000000 -0.000000
vn -1.000000 0.000000 -0.000000
vn -0.973895 0.000000 0.226999
vn -0.993427 0.000000 0.114465
vn -0.993427 0.000000 0.114465
vn -0.973895 0.000000 0.226999
vn -0.898344 0.000000 0.439292
vn -0.973895 0.000000 0.226999
vn -0.973895 0.000000 0.226999
vn -0.898344 0.000000 0.439292
vn -0.780146 0.000000 0.625598
vn -0.898344 0.000000 0.439292
vn -0.898344 0.000000 0.439292
vn -0.780146 0.000000 0.625598
vn -0.625548 0.000000 0.780186
vn -0.780146 0.000000 0.625598
vn -0.780146 0.000000 0.625598
vn -0.625548 0.000000 0.780186
vn -0.439282 0.000000 0.898349
vn -0.625548 0.000000 0.780186
vn -0.625548 0.000000 0.780186
vn -0.439282 0.000000 0.898349
vn -0.226990 0.000000 0.973897
vn -0.439282 0.000000 0.898349
vn -0.439282 0.000000 0.898349
vn -0.226990 0.000000 0.973897
vn -0.114438 0.000000 0.993430
vn -0.226990 0.000000 0.973897
vn -0.226990 0.000000 0.973897
vn -0.114438 0.000000 0.993430
vn 0.000038 0.000000 1.000000
vn 0.000038 0.000000 1.000000
vn 0.000038 0.000000 1.000000
vn 0.000038 0.000000 1.000000
vn -1.000000 0.000000 -0.000000
vn -1.000000 0.000000 -0.000000
vn -1.000000 0.000000 -0.000000
vn -1.000000 0.000000 -0.000000
vn 0.000000 0.000000 1.000000
vn 0.000000 0.000000 1.000000
vn 0.000000 0.000000 1.000000
vn 0.000000 0.000000 1.000000
vn 1.000000 0.000000 -0.000000
vn 1.000000 0.000000 -0.000000
vn 1.000000 0.000000 -0.000000
vn 1.000000 0.000000 -0.000000
vn 0.000000 0.000000 1.000000
vn 0.000000 0.000000 1.000000
vn 0.000000 0.000000 1.000000
vn 0.000000 0.000000 1.000000
vn -1.000000 0.000000 -0.000000
vn -1.000000 0.000000 -0.000000
vn -1.000000 0.000000 -0.000000
vn -1.000000 0.000000 -0.000000
vn 0.000000 0.000000 1.000000
vn 0.000000 0.000000 1.000000
vn 0.000000 0.000000 1.000000
vn 0.000000 0.000000 1.000000
vn 1.000000 0.000000 -0.000000
vn 1.000000 0.000000 -0.000000
vn 1.000000 0.000000 -0.000000
vn 1.000000 0.000000 -0.000000
vn 0.000000 0.000000 1.000000
vn 0.000000 0.000000 1.000000
vn 0.000000 0.000000 1.000000
vn 0.000000 0.000000 1.000000
vn -1.000000 0.000000 -0.000000
vn -1.000000 0.000000 -0.000000
vn -1.000000 0.000000 -0.000000
vn -1.000000 0.000000 -0.000000
vn 0.000000 0.000000 1.000000
vn 0.000000 0.000000 1.000000
vn 0.000000 0.000000 1.000000
vn 0.000000 0.000000 1.000000
vn 1.000000 0.000000 0.000024
vn 1.000000 0.000000 0.000024
vn 1.000000 0.000000 0.000024
vn 1.000000 0.000000 0.000024
vn 0.000000 0.000000 1.000000
vn 0.000000 0.000000 1.000000
vn 0.000000 0.000000 1.000000
vn 0.000000 0.000000 1.000000
vn 0.226949 0.000000 0.973907
vn 0.114425 0.000000 0.993432
vn 0.114425 0.000000 0.993432
vn 0.226949 0.000000 0.973907
vn 0.439244 0.000000 0.898368
vn 0.226949 0.000000 0.973907
vn 0.226949 0.000000 0.973907
vn 0.439244 0.000000 0.898368
vn 0.625552 0.000000 0.780183
vn 0.439244 0.000000 0.898368
vn 0.439244 0.000000 0.898368
vn 0.625552 0.000000 0.780183
vn 0.780167 0.000000 0.625571
vn 0.625552 0.000000 0.780183
vn 0.625552 0.000000 0.780183
vn 0.780167 0.000000 0.625571
vn 0.898351 0.000000 0.439278
vn 0.780167 0.000000 0.625571
vn 0.780167 0.000000 0.625571
vn 0.898351 0.000000 0.439278
vn 0.973899 0.000000 0.226981
vn 0.898351 0.000000 0.439278
vn 0.898351 0.000000 0.439278
vn 0.973899 0.000000 0.226981
vn 0.993433 0.000000 0.114416
vn 0.973899 0.000000 0.226981
vn 0.973899 0.000000 0.226981
vn 0.993433 0.000000 0.114416
vn 1.000000 0.000000 -0.000000
vn 1.000000 0.000000 -0.000000
vn 1.000000 0.000000 -0.000000
vn 1.000000 0.000000 -0.000000
vn 0.973898 0.000000 -0.226985
vn 0.993429 0.000000 -0.114448
vn 0.993429 0.000000 -0.114448
vn 0.973898 0.000000 -0.226985
vn 0.898350 0.000000 -0.439281
vn 0.973898 0.000000 -0.226985
vn 0.973898 0.000000 -0.226985
vn 0.898350 0.000000 -0.439281
vn 0.780165 0.000000 -0.625573
vn 0.898350 0.000000 -0.439281
vn 0.898350 0.000000 -0.439281
vn 0.780165 0.000000 -0.625573
vn 0.625568 0.000000 -0.780170
vn 0.780165 0.000000 -0.625573
vn 0.780165 0.000000 -0.625573
vn 0.625568 0.000000 -0.780170
vn 0.439291 0.000000 -0.898345
vn 0.625568 0.000000 -0.780170
vn 0.625568 0.000000 -0.780170
vn 0.439291 0.000000 -0.898345
vn 0.227005 0.000000 -0.973894
vn 0.439291 0.000000 -0.898345
vn 0.439291 0.000000 -0.898345
vn 0.227005 0.000000 -0.973894
vn 0.114453 0.000000 -0.993429
vn 0.227005 0.000000 -0.973894
vn 0.227005 0.000000 -0.973894
vn 0.114453 0.000000 -0.993429
vn 1.000000 0.000000 -0.000000
vn 1.000000 0.000000 -0.000000
vn 1.000000 0.000000 -0.000000
vn 1.000000 0.000000 -0.000000
vn 0.000000 0.000000 1.000000
vn 0.000000 0.000000 1.000000
vn 0.000000 0.000000 1.000000
vn 0.000000 0.000000 1.000000
vn -1.000000 0.000000 -0.000000
vn -1.000000 0.000000 -0.000000
vn -1.000000 0.000000 -0.000000
vn -1.000000 0.000000 -0.000000
vn 0.000000 0.000000 -1.000000
vn 0.000000 0.000000 -1.000000
vn 0.000000 0.000000 -1.000000
vn 0.000000 0.000000 -1.000000
vn 0.000000 0.000000 -1.000000
vn 0.000000 0.000000 -1.000000
vn 0.000000 0.000000 -1.000000
vn 0.000000 0.000000 -1.000000
vn 1.000000 0.000000 -0.000000
vn 1.000000 0.000000 -0.000000
vn 1.000000 0.000000 -0.000000
vn 1.000000 0.000000 -0.000000
vn 0.000000 0.000000 1.000000
vn 0.000000 0.000000 1.000000
vn 0.000000 0.000000 1.000000
vn 0.000000 0.000000 1.000000
vn -1.000000 0.000000 -0.000000
vn -1.000000 0.000000 -0.000000
vn -1.000000 0.000000 -0.000000
vn -1.000000 0.000000 -0.000000
vn 0.000000 -1.000000 -0.000000
vn 0.000000 -1.000000 -0.000000
vn 0.000000 -1.000000 -0.000000
vn 0.000000 -1.000000 -0.000000
vn 0.000000 -1.000000 -0.000000
vn 0.000000 -1.000000 -0.000000
vn 0.000000 -1.000000 -0.000000
vn 0.000000 -1.000000 -0.000000
vn 0.000000 -1.000000 -0.000000
vn 0.000000 -1.000000 -0.000000
vn 0.000000 -1.000000 -0.000000
vn 0.000000 -1.000000 -0.000000
vn 0.000000 -1.000000 -0.000000
vn 0.000000 -1.000000 -0.000000
vn 0.000000 -1.000000 -0.000000
vn 0.000000 -1.000000 -0.000000
vn 0.000000 -1.000000 -0.000000
vn 0.000000 -1.000000 -0.000000
vn 0.000000 -1.000000 -0.000000
vn 0.000000 -1.000000 -0.000000
vn 0.000000 -1.000000 -0.000000
vn 0.000000 -1.000000 -0.000000
vn 0.000000 -1.000000 -0.000000
vn 0.000000 -1.000000 -0.000000
vn 0.000000 -1.000000 -0.000000
vn 0.000000 -1.000000 -0.000000
vn 0.000000 -1.000000 -0.000000
vn 0.000000 -1.000000 -0.000000
vn 0.000000 -1.000000 -0.000000
vn 0.000000 -1.000000 -0.000000
vn 0.000000 -1.000000 -0.000000
vn 0.000000 -1.000000 -0.000000
vn 0.000000 -1.000000 -0.000000
vn 0.000000 -1.000000 -0.000000
vn 0.000000 -1.000000 -0.000000
vn 0.000000 -1.000000 -0.000000
vn 0.000000 -1.000000 -0.000000
vn 0.000000 -1.000000 -0.000000
vn 0.000000 -1.000000 -0.000000
vn 0.000000 -1.000000 -0.000000
vn 0.000000 -1.000000 -0.000000
vn 0.000000 -1.000000 -0.000000
vn 0.000000 -1.000000 -0.000000
vn 0.000000 -1.000000 -0.000000
vn 0.000000 -1.000000 -0.000000
vn 0.000000 -1.000000 -0.000000
vn 0.000000 -1.000000 -0.000000
vn 0.000000 -1.000000 -0.000000
vn 0.000000 -1.000000 -0.000000
vn 0.000000 -1.000000 -0.000000
vn 0.000000 -1.000000 -0.000000
vn 0.000000 -1.000000 -0.000000
vn 0.000000 -1.000000 -0.000000
vn 0.000000 -1.000000 -0.000000
vn 0.000000 -1.000000 -0.000000
vn 0.000000 -1.000000 -0.000000
vn 0.000000 -1.000000 -0.000000
vn 0.000000 -1.000000 -0.000000
vn 0.000000 -1.000000 -0.000000
vn 0.000000 -1.000000 -0.000000
vn 0.000000 -1.000000 -0.000000
vn 0.000000 -1.000000 -0.000000
vn 0.000000 -1.000000 -0.000000
vn 0.000000 -1.000000 -0.000000
vn 0.000000 -1.000000 -0.000000
vn 0.000000 -1.000000 -0.000000
vn 0.000000 -1.000000 -0.000000
vn 0.000000 -1.000000 -0.000000
vn 0.000000 -1.000000 -0.000000
vn 0.000000 -1.000000 -0.000000
vn 0.000000 -1.000000 -0.000000
vn 0.000000 -1.000000 -0.000000
vn 0.000000 -1.000000 -0.000000
vn 0.000000 -1.000000 -0.000000
vn 0.000000 -1.000000 -0.000000
vn 0.000000 -1.000000 -0.000000
vn 0.000000 -1.000000 -0.000000
vn 0.000000 -1.000000 -0.000000
vn 0.000000 -1.000000 -0.000000
vn 0.000000 -1.000000 -0.000000
vn 0.000000 -1.000000 -0.000000
vn 0.000000 -1.000000 -0.000000
vn 0.000000 -1.000000 -0.000000
vn 0.000000 -1.000000 -0.000000
vn 0.000000 -1.000000 -0.000000
vn 0.000000 -1.000000 -0.000000
vn 0.000000 -1.000000 -0.000000
vn 0.000000 -1.000000 -0.000000
vn 0.000000 -1.000000 -0.000000
vn 0.000000 -1.000000 -0.000000
vn 0.000000 -1.000000 -0.000000
vn 0.000000 -1.000000 -0.000000
vn 0.000000 -1.000000 -0.000000
vn 0.000000 -1.000000 -0.000000
vn 0.000000 -1.000000 -0.000000
vn 0.000000 -1.000000 -0.000000
vn 0.000000 -1.000000 -0.000000
vn 0.000000 -1.000000 -0.000000
vn 0.000000 -1.000000 -0.000000
vn 0.000000 -1.000000 -0.000000
vn 0.000000 -1.000000 -0.000000
vn 0.000000 -1.000000 -0.000000
vn 0.000000 -1.000000 -0.000000
vn 0.000000 -1.000000 -0.000000
vn 0.000000 -1.000000 -0.000000
vn 0.000000 -1.000000 -0.000000
vn 0.000000 -1.000000 -0.000000
vn 0.000000 -1.000000 -0.000000
vn 0.000000 -1.000000 -0.000000
vn 0.000000 -1.000000 -0.000000
vn 0.000000 1.000000 -0.000000
vn 0.000000 1.000000 -0.000000
vn 0.000000 1.000000 -0.000000
vn 0.000000 1.000000 -0.000000
vn 0.000000 1.000000 -0.000000
vn 0.000000 1.000000 -0.000000
vn 0.000000 1.000000 -0.000000
vn 0.000000 1.000000 -0.000000
vn 0.000000 1.000000 -0.000000
vn 0.000000 1.000000 -0.000000
vn 0.000000 1.000000 -0.000000
vn 0.000000 1.000000 -0.000000
vn 0.000000 1.000000 -0.000000
vn 0.000000 1.000000 -0.000000
vn 0.000000 1.000000 -0.000000
vn 0.000000 1.000000 -0.000000
vn 0.000000 1.000000 -0.000000
vn 0.000000 1.000000 -0.000000
vn 0.000000 1.000000 -0.000000
vn 0.000000 1.000000 -0.000000
vn 0.000000 1.000000 -0.000000
vn 0.000000 1.000000 -0.000000
vn 0.000000 1.000000 -0.000000
vn 0.000000 1.000000 -0.000000
vn 0.000000 1.000000 -0.000000
vn 0.000000 1.000000 -0.000000
vn 0.000000 1.000000 -0.000000
vn 0.000000 1.000000 -0.000000
vn 0.000000 1.000000 -0.000000
vn 0.000000 1.000000 -0.000000
vn 0.000000 1.000000 -0.000000
vn 0.000000 1.000000 -0.000000
vn 0.000000 1.000000 -0.000000
vn 0.000000 1.000000 -0.000000
vn 0.000000 1.000000 -0.000000
vn 0.000000 1.000000 -0.000000
vn 0.000000 1.000000 -0.000000
vn 0.000000 1.000000 -0.000000
vn 0.000000 1.000000 -0.000000
vn 0.000000 1.000000 -0.000000
vn 0.000000 1.000000 -0.000000
vn 0.000000 1.000000 -0.000000
vn 0.000000 1.000000 -0.000000
vn 0.000000 1.000000 -0.000000
vn 0.000000 1.000000 -0.000000
vn 0.000000 1.000000 -0.000000
vn 0.000000 1.000000 -0.000000
vn 0.000000 1.000000 -0.000000
vn 0.000000 1.000000 -0.000000
vn 0.000000 1.000000 -0.000000
vn 0.000000 1.000000 -0.000000
vn 0.000000 1.000000 -0.000000
vn 0.000000 1.000000 -0.000000
vn 0.000000 1.000000 -0.000000
vn 0.000000 1.000000 -0.000000
vn 0.000000 1.000000 -0.000000
vn 0.000000 1.000000 -0.000000
vn 0.000000 1.000000 -0.000000
vn 0.000000 1.000000 -0.000000
vn 0.000000 1.000000 -0.000000
vn 0.000000 1.000000 -0.000000
vn 0.000000 1.000000 -0.000000
vn 0.000000 1.000000 -0.000000
vn 0.000000 1.000000 -0.000000
vn 0.000000 1.000000 -0.000000
vn 0.000000 1.000000 -0.000000
vn 0.000000 1.000000 -0.000000
vn 0.000000 1.000000 -0.000000
vn 0.000000 1.000000 -0.000000
vn 0.000000 1.000000 -0.000000
vn 0.000000 1.000000 -0.000000
vn 0.000000 1.000000 -0.000000
vn 0.000000 1.000000 -0.000000
vn 0.000000 1.000000 -0.000000
vn 0.000000 1.000000 -0.000000
vn 0.000000 1.000000 -0.000000
vn 0.000000 1.000000 -0.000000
vn 0.000000 1.000000 -0.000000
vn 0.000000 1.000000 -0.000000
vn 0.000000 1.000000 -0.000000
vn 0.000000 1.000000 -0.000000
vn 0.000000 1.000000 -0.000000
vn 0.000000 1.000000 -0.000000
vn 0.000000 1.000000 -0.000000
vn 0.000000 1.000000 -0.000000
vn 0.000000 1.000000 -0.000000
vn 0.000000 1.000000 -0.000000
vn 0.000000 1.000000 -0.000000
vn 0.000000 1.000000 -0.000000
vn 0.000000 1.000000 -0.000000
vn 0.000000 1.000000 -0.000000
vn 0.000000 1.000000 -0.000000
vn 0.000000 1.000000 -0.000000
vn 0.000000 1.000000 -0.000000
vn 0.000000 1.000000 -0.000000
vn 0.000000 1.000000 -0.000000
vn 0.000000 1.000000 -0.000000
vn 0.000000 1.000000 -0.000000
vn 0.000000 1.000000 -0.000000
vn 0.000000 1.000000 -0.000000
vn 0.000000 1.000000 -0.000000
vn 0.000000 1.000000 -0.000000
vn 0.000000 1.000000 -0.000000
vn 0.000000 1.000000 -0.000000
vn 0.000000 1.000000 -0.000000
vn 0.000000 1.000000 -0.000000
vn 0.000000 1.000000 -0.000000
vn 0.000000 1.000000 -0.000000
vn 0.000000 1.000000 -0.000000
vn 0.000000 1.000000 -0.000000
# 428 vertex normals

g DeathBall
usemtl wire_008110135
f 46//1 45//2 1//3 2//4 
f 47//5 46//6 2//7 3//8 
f 48//9 47//10 3//11 4//12 
f 49//13 48//14 4//15 5//16 
f 50//17 49//18 5//19 6//20 
f 51//21 50//22 6//23 7//24 
f 52//25 51//26 7//27 8//28 
f 53//29 52//30 8//31 9//32 
f 54//33 53//34 9//35 10//36 
f 55//37 54//38 10//39 11//40 
f 56//41 55//42 11//43 12//44 
f 57//45 56//46 12//47 13//48 
f 58//49 57//50 13//51 14//52 
f 59//53 58//54 14//55 15//56 
f 60//57 59//58 15//59 16//60 
f 61//61 60//62 16//63 17//64 
f 62//65 61//66 17//67 18//68 
f 63//69 62//70 18//71 19//72 
f 64//73 63//74 19//75 20//76 
f 65//77 64//78 20//79 21//80 
f 66//81 65//82 21//83 22//84 
f 67//85 66//86 22//87 23//88 
f 68//89 67//90 23//91 24//92 
f 69//93 68//94 24//95 25//96 
f 70//97 69//98 25//99 26//100 
f 71//101 70//102 26//103 27//104 
f 72//105 71//106 27//107 28//108 
f 73//109 72//110 28//111 29//112 
f 74//113 73//114 29//115 30//116 
f 75//117 74//118 30//119 31//120 
f 76//121 75//122 31//123 32//124 
f 77//125 76//126 32//127 33//128 
f 78//129 77//130 33//131 34//132 
f 79//133 78//134 34//135 35//136 
f 80//137 79//138 35//139 36//140 
f 81//141 80//142 36//143 37//144 
f 82//145 81//146 37//147 38//148 
f 83//149 82//150 38//151 39//152 
f 84//153 83//154 39//155 40//156 
f 85//157 84//158 40//159 41//160 
f 86//161 85//162 41//163 42//164 
f 87//165 86//166 42//167 43//168 
f 88//169 87//170 43//171 44//172 
f 45//173 88//174 44//175 1//176 
f 94//177 93//178 89//179 90//180 
f 95//181 94//182 90//183 91//184 
f 96//185 95//186 91//187 92//188 
f 93//189 96//190 92//191 89//192 
f 102//193 101//194 97//195 98//196 
f 103//197 102//198 98//199 99//200 
f 104//201 103//202 99//203 100//204 
f 101//205 104//206 100//207 97//208 
f 97//209 37//210 30//211 29//212 
f 98//213 97//214 29//215 25//216 
f 28//217 27//218 26//219 29//220 
f 29//221 26//222 25//223 
f 25//224 24//225 23//226 22//227 
f 98//228 25//229 22//230 92//231 
f 98//232 92//233 91//234 99//235 
f 21//236 20//237 19//238 18//239 
f 22//240 21//241 18//242 92//243 
f 92//244 18//245 17//246 89//247 
f 89//248 17//249 16//250 15//251 
f 89//252 15//253 14//254 13//255 
f 89//256 13//257 12//258 11//259 
f 89//260 11//261 10//262 90//263 
f 90//264 10//265 9//266 8//267 
f 90//268 8//269 7//270 6//271 
f 90//272 6//273 5//274 4//275 
f 90//276 4//277 3//278 2//279 
f 90//280 2//281 1//282 91//283 
f 35//284 34//285 33//286 32//287 
f 35//288 32//289 31//290 36//291 
f 37//292 36//293 31//294 30//295 
f 37//296 97//297 100//298 38//299 
f 39//300 38//301 100//302 40//303 
f 41//304 40//305 100//306 42//307 
f 43//308 42//309 100//310 44//311 
f 1//312 44//313 100//314 99//315 
f 91//316 1//317 99//318 
f 77//319 78//320 79//321 76//322 
f 75//323 76//324 79//325 80//326 
f 75//327 80//328 81//329 74//330 
f 101//331 73//332 74//333 81//334 
f 104//335 101//336 81//337 82//338 
f 104//339 82//340 83//341 84//342 
f 104//343 84//344 85//345 86//346 
f 104//347 86//348 87//349 88//350 
f 104//351 88//352 45//353 103//354 
f 63//355 64//356 65//357 62//358 
f 62//359 65//360 66//361 96//362 
f 61//363 62//364 96//365 93//366 
f 60//367 61//368 93//369 59//370 
f 58//371 59//372 93//373 57//374 
f 56//375 57//376 93//377 55//378 
f 54//379 55//380 93//381 94//382 
f 53//383 54//384 94//385 52//386 
f 51//387 52//388 94//389 50//390 
f 49//391 50//392 94//393 48//394 
f 47//395 48//396 94//397 46//398 
f 45//399 46//400 94//401 95//402 
f 103//403 45//404 95//405 102//406 
f 102//407 95//408 96//409 66//410 
f 67//411 68//412 69//413 66//414 
f 102//415 66//416 69//417 73//418 
f 70//419 71//420 72//421 73//422 
f 69//423 70//424 73//425 
f 102//426 73//427 101//428 
# 104 polygons - 4 triangles

