<?xml version="1.0" standalone="no"?>
<!DOCTYPE svg PUBLIC "-//W3C//DTD SVG 1.1//EN" "http://www.w3.org/Graphics/SVG/1.1/DTD/svg11.dtd" >
<svg xmlns="http://www.w3.org/2000/svg">
<metadata>
This is a custom SVG font generated by IcoMoon.
<iconset grid="16"></iconset>
</metadata>
<defs>
<font id="icomoon" horiz-adv-x="512" >
<font-face units-per-em="512" ascent="480" descent="-32" />
<missing-glyph horiz-adv-x="512" />
<glyph unicode="&#x66;" d="M 287.935-32.00L 192.00-32.00 L 192.00,224.00 l-64.00,0.00 l0.00,88.225 l 64.00,0.029l-0.104,51.976C 191.896,436.206, 211.413,480.00, 296.195,480.00l 70.588,0.00 l0.00-88.242 l-44.115,0.00 
	c-33.016,0.00-34.603-12.328-34.603-35.342l-0.131-44.162l 79.345,0.00 l-9.352-88.225L 288.00,224.00L 287.935-32.00z"  />
<glyph unicode="&#x74;" d="M 384.00,224.00L 192.00,224.00 l0.00-64.00 c0.00-35.344, 28.656-64.00, 64.00-64.00l 32.00,0.00 l 48.00,0.00 l 48.00,0.00 c 35.344,0.00, 64.00-28.656, 64.00-64.00s-28.656-64.00-64.00-64.00l-48.00,0.00 l-48.00,0.00 l-32.00,0.00 
	C 149.968-32.00, 64.00,53.968, 64.00,160.00L 64.00,352.00 L 64.00,384.00 L 64.00,416.00 c0.00,35.344, 28.656,64.00, 64.00,64.00s 64.00-28.656, 64.00-64.00l0.00-32.00 l0.00-32.00 l 192.00,0.00 c 35.344,0.00, 64.00-28.656, 64.00-64.00S 419.344,224.00, 384.00,224.00z"  />
<glyph unicode="&#x70;" d="M 220.57,141.363C 207.13,70.886, 190.72,3.302, 142.08-32.00c-15.002,106.547, 22.042,186.547, 39.245,271.488
	c-29.338,49.408, 3.533,148.787, 65.434,124.288c 76.16-30.131-65.946-183.629, 29.44-202.803c 99.61-20.019, 140.262,172.80, 78.515,235.494
	C 265.472,487.04, 94.925,398.566, 115.917,268.954c 5.094-31.693, 37.837-41.318, 13.082-85.043c-57.114,12.646-74.163,57.702-71.962,117.76
	C 60.57,399.949, 145.357,468.762, 230.40,478.285c 107.571,12.058, 208.512-39.475, 222.413-140.646c 15.693-114.176-48.512-237.85-163.558-228.941
	C 258.099,111.078, 245.018,126.515, 220.57,141.363z"  />
<glyph unicode="&#x67;" d="M 250.286,61.429q0.00,6.00 -1.286,11.571t-2.714,10.286t-5.00,9.857t-6.00,8.714t-7.571,8.429t-7.857,7.286t-9.143,7.286t-8.857,6.571t-9.429,6.571t-8.714,6.00q-4.857,0.571 -14.286,0.571q-15.429,0.00 -30.286-2.00t-30.857-7.143t-28.00-13.143t-19.714-21.429t-7.714-30.571q0.00-19.429 10.143-34.714t 26.571-24.00t 34.429-13.00t 36.286-4.286q 16.857,0.00 32.143,3.571t 28.714,11.143t 21.286,21.00 t 7.857,31.429zM 216.00,307.714q0.00,17.143 -4.714,36.429t-13.429,37.286t-24.00,29.714t-34.143,11.714q-26.571,0.00 -41.143-19.714t-14.571-47.143q0.00-13.429 3.286-28.286t 10.143-29.714t 16.00-26.714t 22.286-19.286t 27.714-7.429q 27.714,0.00 40.143,17.286t 12.429,45.857zM 178.571,443.429l 124.857,0.00 l-38.571-22.571l-38.571,0.00 q 20.286-12.857 31.429-36.00t 11.143-48.286q0.00-21.143 -6.571-37.571t-16.00-26.429t-18.857-18.429 t-16.00-17.429t-6.571-19.286q0.00-7.429 4.714-14.571t 12.286-13.714t 16.714-13.714t 18.286-15.857t 16.714-18.857t 12.286-24.286t 4.714-30.429q0.00-45.714 -40.00-80.571q-43.429-37.429 -120.00-37.429q-16.857,0.00 -34.143,2.857t-34.857,9.571t-31.00,16.571t-22.00,25.429t-8.571,34.714q0.00,17.429 10.571,38.571q 9.143,18.286 27.429,31.571t 41.429,20.286t 44.286,10.286t 42.857,3.857q-18.286,23.714 -18.286,42.571q0.00,3.429 0.571,6.714 t 1.429,5.571t 2.286,6.143t 2.00,6.143q-11.429-1.429 -20.00-1.429q-42.571,0.00 -73.00,28.00t-30.429,70.286q0.00,40.00 27.143,71.571t 66.857,40.429q 26.857,5.714 53.429,5.714zM 475.429,370.286l0.00-36.571 l-73.143,0.00 l0.00-73.143 l-36.571,0.00 l0.00,73.143 l-73.143,0.00 l0.00,36.571 l 73.143,0.00 l0.00,73.143 l 36.571,0.00 l0.00-73.143 l 73.143,0.00 z" horiz-adv-x="475.4285714285714"  />
<glyph unicode="&#x22;" d="M 512.00,267.793c0.00,5.257-0.546,10.342-0.922,15.428c0.00,0.819, 0.137,1.604, 0.137,2.423l-0.273-0.273C 500.122,407.842, 377.583,480.00, 248.525,480.00
	C 113.425,480.00,0.00,385.109,0.00,266.701s 113.084-207.394, 267.332-213.299c 9.591-0.375, 18.978-0.068, 28.297,0.614l-0.137-0.137C 309.316,20.668, 270.95-32.00, 270.95-32.00
	s 144.213,69.837, 209.067,192.99C 500.258,192.768, 512.00,229.325, 512.00,267.793z"  />
<glyph unicode="&#x3a;" d="M0.00,160.00l0.00,64.00 l 64.00,0.00 l0.00-64.00 l-64.00,0.00 zM0.00,288.00l0.00,64.00 l 64.00,0.00 l0.00-64.00 l-64.00,0.00 z" horiz-adv-x="128" />
<glyph unicode="&#x21;" d="M0.00,96.00l0.00,64.00 l 64.00,0.00 l0.00-64.00 l-64.00,0.00 zM0.00,224.00l0.00,192.00 l 64.00,0.00 l0.00-192.00 l-64.00,0.00 z" horiz-adv-x="126.25" />
<glyph unicode="&#x239a;" d="M 55.652,118.261A5.565,5.565 180.00 1 1 66.783,118.26100000000002A5.565,5.565 180.00 1 1 55.652,118.26100000000002zM 55.652,101.565A5.565,5.565 180.00 1 1 66.783,101.565A5.565,5.565 180.00 1 1 55.652,101.565zM 55.652,84.87A5.565,5.565 180.00 1 1 66.783,84.87A5.565,5.565 180.00 1 1 55.652,84.87zM 38.957,101.565A5.565,5.565 180.00 1 1 50.087,101.565A5.565,5.565 180.00 1 1 38.957,101.565zM 38.957,84.87A5.565,5.565 180.00 1 1 50.087,84.87A5.565,5.565 180.00 1 1 38.957,84.87zM 55.652,68.174A5.565,5.565 180.00 1 1 66.783,68.17399999999998A5.565,5.565 180.00 1 1 55.652,68.17399999999998zM 72.348,118.261A5.565,5.565 180.00 1 1 83.478,118.26100000000002A5.565,5.565 180.00 1 1 72.348,118.26100000000002zM 72.348,101.565A5.565,5.565 180.00 1 1 83.478,101.565A5.565,5.565 180.00 1 1 72.348,101.565zM 72.348,84.87A5.565,5.565 180.00 1 1 83.478,84.87A5.565,5.565 180.00 1 1 72.348,84.87zM 89.043,101.565A5.565,5.565 180.00 1 1 100.174,101.565A5.565,5.565 180.00 1 1 89.043,101.565zM 89.043,84.87A5.565,5.565 180.00 1 1 100.174,84.87A5.565,5.565 180.00 1 1 89.043,84.87zM 72.348,68.174A5.565,5.565 180.00 1 1 83.478,68.17399999999998A5.565,5.565 180.00 1 1 72.348,68.17399999999998zM 322.783,168.465C 322.783,165.326, 320.239,162.783, 317.101,162.783L 55.769,162.783 C 52.63,162.783, 50.087,165.326, 50.087,168.465L 50.087,374.144 
	C 50.087,377.283, 52.63,379.826, 55.769,379.826L 317.106,379.826 c 3.128,0.00, 5.677-2.543, 5.677-5.682L 322.783,168.465 zM 320.00,146.087l-267.13,0.00 C 42.129,146.087, 33.391,154.824, 33.391,165.565l0.00,211.478 C 33.391,387.784, 42.129,396.522, 52.87,396.522l 267.13,0.00 c 10.741,0.00, 19.478-8.737, 19.478-19.478l0.00-211.478 
	C 339.478,154.824, 330.741,146.087, 320.00,146.087z M 52.87,390.957C 45.201,390.957, 38.957,384.712, 38.957,377.043l0.00-211.478 C 38.957,157.891, 45.201,151.652, 52.87,151.652l 267.13,0.00 c 7.674,0.00, 13.913,6.239, 13.913,13.913l0.00,211.478 
	c0.00,7.669-6.239,13.913-13.913,13.913L 52.87,390.957 zM 348.60,468.419C 340.803,476.255, 331.281,480.00, 320.278,480.00L 196.118,480.00 l-20.602,0.00 L 51.361,480.00 c-11.008,0.00-20.541-3.801-28.327-11.631
	C 0.59,445.802,0.00,395.219,0.00,395.025l0.00-341.66 c0.00-18.31, 15.243-29.056, 33.391-29.651L 33.391,6.957 l0.00-5.565 l0.00-33.391 l 300.522,0.00 l0.00,33.391 l0.00,5.565 l0.00,16.696 l 2.883,0.00 C 355.64,23.652, 372.87,34.515, 372.87,53.365L 372.87,395.025 
	C 372.87,395.219, 371.039,445.857, 348.60,468.419z M 31.104,460.06C 36.753,465.747, 43.381,468.87, 51.361,468.87l 124.154,0.00 l 20.602,0.00 l 124.16,0.00 
	c 7.986,0.00, 14.603-3.122, 20.257-8.81c 9.077-9.127, 13.841-23.758, 16.351-36.797C 351.226,427.364, 344.281,429.913, 336.796,429.913L 34.989,429.913 
	c-7.541,0.00-14.547-2.577-20.246-6.728C 17.247,436.246, 22.01,450.916, 31.104,460.06z M 322.783-20.87L 44.522-20.87 l0.00,16.696 l 278.261,0.00 L 322.783-20.87 z M 361.739,54.817c0.00-12.705-10.474-20.035-23.201-20.035
	L 35.745,34.783 C 23.012,34.783, 11.13,42.106, 11.13,54.817L 11.13,395.425 C 11.13,408.125, 23.012,418.783, 35.745,418.783l 302.792,0.00 C 351.265,418.783, 361.739,408.125, 361.739,395.425L 361.739,54.817 zM 333.913,93.217c0.00-7.686-6.227-13.913-13.913-13.913l-83.478,0.00 c-7.686,0.00-13.913,6.227-13.913,13.913l0.00,0.00c0.00,7.686, 6.227,13.913, 13.913,13.913l 83.478,0.00 
	C 327.686,107.13, 333.913,100.903, 333.913,93.217L 333.913,93.217z" horiz-adv-x="372.8695652173913"  />
<glyph unicode="&#x2a;" d="M 203.995,422.619l-19.749,47.689L 136.96,450.743L 156.928,402.469C 171.557,411.063, 187.355,417.865, 203.995,422.619zM 132.827,385.938L 95.634,423.131l-36.206-36.206l 37.595-37.595C 107.374,362.971, 119.406,375.259, 132.827,385.938zM 81.225,325.157l-49.371,20.48L 12.251,298.313l 49.883-20.663C 66.523,294.437, 72.997,310.345, 81.225,325.157zM 55.479,225.719c0.00,8.082, 0.512,16.055, 1.463,23.881L0.00,249.60 l0.00-51.20 l 57.307,0.00 C 56.137,207.323, 55.479,216.43, 55.479,225.719zM 458.021,278.93l 46.811,19.383L 485.303,345.637l-46.629-19.346C 446.976,311.552, 453.559,295.68, 458.021,278.93zM 257.719,430.519c 8.082,0.00, 18.761-0.549, 23.881-1.463L 281.60,480.00 L 230.40,480.00 l0.00-51.346 C 240.64,429.824, 248.43,430.519, 257.719,430.519zM 421.998,351.232l 35.694,35.694l-36.169,36.206L 385.829,387.438C 399.36,376.942, 411.502,364.80, 421.998,351.232zM 360.85,404.078L 380.197,450.743L 332.873,470.309L 313.49,423.461C 330.203,418.999, 346.112,412.416, 360.85,404.078zM 257.719,20.882c-9.289,0.00-17.079,0.695-27.319,1.865L 230.40-32.00 l 51.20,0.00 l0.00,54.309 C 276.48,21.431, 265.801,20.882, 257.719,20.882zM 383.89,62.464l 37.595-37.595l 36.169,36.242l-37.193,37.157C 409.856,84.809, 397.568,72.777, 383.89,62.464zM 437.065,122.368l 48.201-19.968l 19.566,47.287l-47.689,19.785C 452.425,152.759, 445.659,136.96, 437.065,122.368zM 63.013,170.679L 12.251,149.687l 19.602-47.287l 50.981,21.102C 74.35,138.167, 67.657,154.002, 63.013,170.679zM 463.653,249.60c 0.878-7.826, 1.426-15.799, 1.426-23.881c0.00-9.289-0.695-18.359-1.865-27.319L 512.00,198.40 L 512.00,249.60 L 463.653,249.60 zM 312.21,27.575l 20.626-49.847l 47.323,19.566l-20.48,49.408C 344.905,38.437, 328.96,31.963, 312.21,27.575zM 98.523,100.133l-39.095-39.022l 36.206-36.242l 39.095,39.095C 121.198,74.459, 109.019,86.601, 98.523,100.133zM 158.062,48.238l-21.102-50.981l 47.287-19.566l 21.029,50.725C 188.562,33.097, 172.763,39.79, 158.062,48.238z"  />
<glyph unicode="&#x2b22;" d="M0.00,471.718L0.00,480.00 l 59.261,0.00 l0.00-8.282 l-24.696,0.00 l0.00-65.646 L 24.696,406.071 L 24.696,471.718 L0.00,471.718 zM 74.832,480.00l0.00-28.26 l 0.211,0.00 c 0.683,1.656, 1.667,3.052, 2.911,4.196C 79.199,457.06, 80.595,458.004, 82.161,458.717
		C 83.707,459.45, 85.333,459.982, 87.03,460.323C 88.727,460.675, 90.373,460.845, 91.959,460.845c 3.534,0.00, 6.475-0.482, 8.824-1.456s 4.247-2.309, 5.712-4.036
		c 1.456-1.727, 2.47-3.775, 3.062-6.164c 0.592-2.379, 0.883-5.02, 0.883-7.921l0.00-35.197 l-8.824,0.00 L 101.617,442.313 c0.00,3.313-0.964,5.943-2.901,7.871
		C 96.778,452.111, 94.108,453.075, 90.714,453.075c-2.701,0.00-5.03-0.422-7.007-1.245c-1.968-0.833-3.614-2.008-4.939-3.524
		c-1.305-1.526-2.299-3.303-2.962-5.341C 75.164,440.947, 74.832,438.719, 74.832,436.299l0.00-30.228 L 66.018,406.071 L 66.018,480.00 L 74.832,480.00 zM 124.245,469.228L 124.245,480.00 l 8.814,0.00 l0.00-10.772 L 124.245,469.228 z M 133.07,459.60l0.00-53.529 l-8.814,0.00 L 124.255,459.60 L 133.07,459.60 zM 153.52,418.028c 0.833-1.345, 1.928-2.409, 3.263-3.213c 1.355-0.783, 2.871-1.365, 4.578-1.707
		c 1.687-0.341, 3.433-0.522, 5.23-0.522c 1.385,0.00, 2.831,0.10, 4.357,0.311c 1.526,0.211, 2.921,0.592, 4.206,1.134
		s 2.329,1.355, 3.162,2.429c 0.833,1.074, 1.245,2.44, 1.245,4.096c0.00,2.279-0.853,4.006-2.58,5.18
		c-1.727,1.175-3.895,2.118-6.485,2.841c-2.61,0.733-5.421,1.385-8.463,1.968s-5.853,1.416-8.463,2.49
		c-2.59,1.064-4.769,2.57-6.485,4.498c-1.737,1.938-2.59,4.628-2.59,8.082c0.00,2.701, 0.602,5.00, 1.817,6.937
		c 1.205,1.928, 2.761,3.504, 4.678,4.718c 1.897,1.205, 4.036,2.098, 6.435,2.691c 2.379,0.582, 4.759,0.873, 7.108,0.873
		c 3.052,0.00, 5.843-0.261, 8.403-0.773c 2.56-0.522, 4.819-1.426, 6.797-2.691c 1.968-1.275, 3.544-3.002, 4.718-5.18
		c 1.185-2.179, 1.877-4.889, 2.078-8.132l-8.814,0.00 c-0.151,1.717-0.602,3.152-1.355,4.297c-0.763,1.144-1.727,2.058-2.901,2.741
		s-2.48,1.195-3.885,1.496c-1.436,0.311-2.861,0.472-4.317,0.472c-1.325,0.00-2.64-0.11-3.996-0.311
		c-1.335-0.211-2.58-0.572-3.684-1.084c-1.104-0.522-2.008-1.205-2.701-2.068c-0.683-0.863-1.044-1.988-1.044-3.363
		c0.00-1.516, 0.542-2.781, 1.616-3.775c 1.054-1.004, 2.44-1.837, 4.096-2.49c 1.667-0.653, 3.534-1.205, 5.612-1.656
		c 2.078-0.452, 4.156-0.924, 6.224-1.405c 2.219-0.482, 4.387-1.074, 6.485-1.757c 2.108-0.693, 3.976-1.616, 5.612-2.751
		c 1.626-1.134, 2.941-2.57, 3.945-4.297c 1.004-1.727, 1.506-3.875, 1.506-6.415c0.00-3.253-0.673-5.943-2.018-8.082
		c-1.355-2.138-3.122-3.865-5.301-5.18c-2.179-1.315-4.628-2.229-7.369-2.741c-2.731-0.522-5.441-0.783-8.152-0.783
		c-2.972,0.00-5.823,0.321-8.523,0.944c-2.701,0.622-5.08,1.636-7.158,3.052c-2.078,1.416-3.745,3.283-4.989,5.592
		c-1.255,2.309-1.938,5.13-2.078,8.443l 8.824,0.00 C 152.235,421.02, 152.686,419.373, 153.52,418.028zM 228.051,469.228L 228.051,480.00 l 8.824,0.00 l0.00-10.772 L 228.051,469.228 z M 236.875,459.60l0.00-53.529 l-8.824,0.00 L 228.051,459.60 L 236.875,459.60 zM 257.315,418.028c 0.833-1.345, 1.928-2.409, 3.273-3.213c 1.345-0.783, 2.871-1.365, 4.568-1.707
		s 3.443-0.522, 5.23-0.522c 1.395,0.00, 2.851,0.10, 4.377,0.311c 1.516,0.211, 2.921,0.592, 4.196,1.134
		c 1.275,0.552, 2.329,1.355, 3.162,2.429c 0.833,1.074, 1.255,2.44, 1.255,4.096c0.00,2.279-0.863,4.006-2.60,5.18
		c-1.727,1.175-3.895,2.118-6.485,2.841c-2.60,0.733-5.421,1.385-8.463,1.968c-3.052,0.592-5.863,1.416-8.463,2.49
		c-2.59,1.064-4.769,2.57-6.485,4.498c-1.727,1.938-2.59,4.628-2.59,8.082c0.00,2.701, 0.602,5.00, 1.807,6.937
		c 1.215,1.928, 2.771,3.504, 4.678,4.718c 1.897,1.205, 4.046,2.098, 6.435,2.691c 2.389,0.582, 4.759,0.873, 7.118,0.873
		c 3.042,0.00, 5.843-0.261, 8.403-0.773c 2.56-0.522, 4.819-1.426, 6.787-2.691c 1.968-1.275, 3.554-3.002, 4.728-5.18
		c 1.185-2.179, 1.877-4.889, 2.088-8.132l-8.824,0.00 c-0.141,1.717-0.582,3.152-1.345,4.297c-0.763,1.144-1.727,2.058-2.901,2.741
		c-1.185,0.683-2.48,1.195-3.895,1.496c-1.426,0.311-2.851,0.472-4.307,0.472c-1.325,0.00-2.65-0.11-3.996-0.311
		c-1.345-0.211-2.58-0.572-3.684-1.084c-1.114-0.522-2.008-1.205-2.701-2.068c-0.693-0.863-1.044-1.988-1.044-3.363
		c0.00-1.516, 0.542-2.781, 1.606-3.775c 1.064-1.004, 2.44-1.837, 4.106-2.49c 1.656-0.653, 3.524-1.205, 5.602-1.656
		c 2.088-0.452, 4.156-0.924, 6.234-1.405c 2.219-0.482, 4.377-1.074, 6.485-1.757c 2.098-0.693, 3.986-1.616, 5.602-2.751
		c 1.626-1.134, 2.931-2.57, 3.945-4.297c 1.004-1.727, 1.506-3.875, 1.506-6.415c0.00-3.253-0.663-5.943-2.018-8.082
		c-1.345-2.138-3.122-3.865-5.291-5.18c-2.189-1.315-4.638-2.229-7.369-2.741c-2.731-0.522-5.451-0.783-8.152-0.783
		c-2.972,0.00-5.813,0.321-8.513,0.944c-2.701,0.622-5.10,1.636-7.158,3.052c-2.088,1.416-3.745,3.283-4.989,5.592
		s-1.938,5.13-2.088,8.443l 8.824,0.00 C 256.04,421.02, 256.492,419.373, 257.315,418.028zM 372.555,404.927c-2.289,0.00-4.106,0.643-5.451,1.917c-1.345,1.275-2.028,3.363-2.028,6.264
		c-2.419-2.901-5.24-4.989-8.463-6.264c-3.223-1.275-6.696-1.917-10.431-1.917c-2.429,0.00-4.708,0.261-6.857,0.783
		c-2.138,0.522-4.036,1.375-5.652,2.59c-1.626,1.205-2.901,2.761-3.845,4.658c-0.934,1.897-1.405,4.196-1.405,6.887
		c0.00,3.042, 0.522,5.522, 1.566,7.459c 1.044,1.928, 2.399,3.504, 4.086,4.708c 1.707,1.205, 3.644,2.118, 5.823,2.741
		c 2.179,0.612, 4.407,1.134, 6.696,1.546c 2.419,0.482, 4.728,0.843, 6.907,1.084s 4.096,0.582, 5.763,1.034
		c 1.656,0.452, 2.962,1.104, 3.945,1.968c 0.964,0.853, 1.456,2.118, 1.456,3.775c0.00,1.928-0.371,3.484-1.094,4.648
		c-0.723,1.175-1.656,2.078-2.801,2.701c-1.144,0.622-2.429,1.034-3.845,1.245c-1.416,0.201-2.821,0.311-4.196,0.311
		c-3.745,0.00-6.847-0.703-9.336-2.118c-2.50-1.416-3.855-4.096-4.056-8.021l-8.814,0.00 c 0.131,3.313, 0.833,6.104, 2.078,8.383
		c 1.235,2.279, 2.911,4.126, 4.979,5.542c 2.088,1.416, 4.467,2.429, 7.158,3.052c 2.711,0.622, 5.542,0.934, 8.523,0.934
		c 2.419,0.00, 4.819-0.171, 7.218-0.522c 2.379-0.341, 4.548-1.044, 6.485-2.118c 1.938-1.064, 3.494-2.57, 4.668-4.498
		c 1.175-1.928, 1.767-4.447, 1.767-7.56l0.00-27.538 c0.00-2.078, 0.11-3.584, 0.351-4.558c 0.241-0.974, 1.064-1.456, 2.44-1.456
		c 0.763,0.00, 1.667,0.181, 2.711,0.522l0.00-6.837 C 377.354,405.379, 375.246,404.927, 372.555,404.927z M 360.197,431.902c-1.807-0.381-3.684-0.693-5.652-0.934
		c-1.968-0.241-3.965-0.522-5.973-0.833c-2.008-0.311-3.805-0.813-5.391-1.496c-1.596-0.693-2.901-1.677-3.905-2.952
		c-0.994-1.275-1.496-3.022-1.496-5.23c0.00-1.456, 0.281-2.67, 0.883-3.674c 0.582-1.004, 1.345-1.807, 2.289-2.429
		c 0.924-0.622, 2.028-1.074, 3.313-1.345c 1.285-0.281, 2.59-0.422, 3.895-0.422c 2.911,0.00, 5.401,0.402, 7.469,1.195
		c 2.088,0.793, 3.775,1.787, 5.09,2.992c 1.315,1.215, 2.279,2.52, 2.901,3.935c 0.622,1.416, 0.934,2.741, 0.934,3.986L 364.554,433.719 
		C 363.46,432.896, 361.994,432.284, 360.197,431.902zM 101.195,328.287c-7.228,5.03-15.822,7.539-25.771,7.539c-8.503,0.00-15.762-1.586-21.795-4.769
		c-6.054-3.172-11.013-7.449-14.928-12.81c-3.915-5.351-6.797-11.485-8.664-18.352c-1.857-6.887-2.791-14.035-2.791-21.454
		c0.00-8.072, 0.934-15.711, 2.791-22.93c 1.867-7.208, 4.749-13.493, 8.664-18.854c 3.915-5.361, 8.915-9.628, 15.029-12.80
		c 6.104-3.172, 13.402-4.769, 21.896-4.769c 6.244,0.00, 11.776,1.034, 16.615,3.072c 4.839,2.058, 9.015,4.899, 12.539,8.543
		c 3.514,3.644, 6.264,7.981, 8.252,13.001s 3.192,10.461, 3.594,16.284L 135.529,259.991 c-1.867-17.87-8.031-31.774-18.522-41.693
		c-10.471-9.919-24.817-14.878-42.988-14.878c-11.013,0.00-20.641,1.877-28.863,5.652c-8.222,3.765-15.059,8.965-20.50,15.581
		c-5.441,6.616-9.527,14.426-12.238,23.421c-2.721,8.995-4.076,18.663-4.076,28.993c0.00,10.31, 1.456,20.008, 4.367,29.074
		c 2.921,9.065, 7.198,16.976, 12.84,23.723c 5.642,6.746, 12.68,12.077, 21.102,15.982c 8.423,3.905, 18.081,5.863, 28.963,5.863
		c 7.429,0.00, 14.456-0.994, 21.102-2.972c 6.626-1.988, 12.539-4.899, 17.709-8.744c 5.18-3.835, 9.487-8.634, 12.951-14.396
		c 3.443-5.752, 5.692-12.398, 6.756-19.948l-18.904,0.00 C 113.112,315.718, 108.424,323.258, 101.195,328.287zM 173.156,348.346l0.00-54.202 l 0.392,0.00 c 1.315,3.182, 3.182,5.853, 5.582,8.041c 2.379,2.179, 5.07,3.976, 8.051,5.371
		c 2.982,1.395, 6.104,2.409, 9.357,3.072c 3.253,0.673, 6.395,0.994, 9.447,0.994c 6.766,0.00, 12.408-0.924, 16.926-2.771
		c 4.498-1.857, 8.152-4.437, 10.943-7.75c 2.781-3.313, 4.739-7.238, 5.863-11.806c 1.124-4.558, 1.687-9.628, 1.687-15.189l0.00-67.504 l-16.916,0.00 l0.00,69.491 
		c0.00,6.345-1.857,11.374-5.572,15.079c-3.725,3.704-8.835,5.562-15.33,5.562c-5.17,0.00-9.648-0.783-13.443-2.369
		c-3.785-1.596-6.927-3.835-9.457-6.756c-2.51-2.911-4.407-6.325-5.672-10.23c-1.255-3.905-1.877-8.162-1.877-12.81l0.00-57.966 l-16.926,0.00 
		l0.00,141.754 L 173.156,348.356 zM 282.222,309.233l0.00-21.645 l 0.392,0.00 c 4.116,8.343, 9.166,14.487, 15.129,18.452c 5.973,3.976, 13.533,5.833, 22.679,5.562l0.00-17.86 
		c-6.756,0.00-12.539-0.934-17.308-2.771c-4.779-1.857-8.624-4.578-11.535-8.142c-2.921-3.574-5.05-7.921-6.385-13.011
		c-1.315-5.09-1.988-10.943-1.988-17.569l0.00-45.658 l-16.906,0.00 L 266.30,309.233 L 282.222,309.233 zM 327.198,278.965c 2.118,6.546, 5.311,12.228, 9.567,17.067c 4.237,4.829, 9.487,8.634, 15.711,11.415
		c 6.244,2.781, 13.412,4.166, 21.504,4.166c 8.222,0.00, 15.42-1.385, 21.594-4.166c 6.174-2.781, 11.374-6.586, 15.631-11.415
		c 4.237-4.839, 7.419-10.521, 9.547-17.067c 2.118-6.556, 3.192-13.603, 3.192-21.143c0.00-7.549-1.064-14.567-3.192-21.052
		c-2.128-6.485-5.311-12.147-9.547-16.976c-4.247-4.829-9.447-8.594-15.631-11.324c-6.174-2.711-13.372-4.056-21.594-4.056
		c-8.092,0.00-15.27,1.355-21.504,4.056c-6.234,2.721-11.475,6.485-15.711,11.324c-4.247,4.829-7.439,10.491-9.567,16.976
		c-2.118,6.485-3.172,13.493-3.172,21.052C 324.026,265.362, 325.08,272.409, 327.198,278.965z M 344.425,241.237
		c 1.656-4.829, 3.945-8.865, 6.867-12.117c 2.921-3.243, 6.335-5.722, 10.25-7.439c 3.915-1.727, 8.061-2.59, 12.449-2.59
		c 4.367,0.00, 8.523,0.863, 12.439,2.59c 3.905,1.717, 7.329,4.186, 10.25,7.439c 2.911,3.253, 5.21,7.288, 6.867,12.117
		c 1.656,4.829, 2.50,10.36, 2.50,16.585c0.00,6.214-0.833,11.746-2.50,16.575c-1.656,4.819-3.955,8.895-6.867,12.208
		c-2.921,3.303-6.345,5.823-10.25,7.539c-3.925,1.717-8.072,2.58-12.439,2.58c-4.387,0.00-8.533-0.863-12.449-2.58
		s-7.329-4.237-10.25-7.539c-2.921-3.313-5.21-7.389-6.867-12.208c-1.667-4.829-2.49-10.36-2.49-16.575
		C 341.936,251.598, 342.769,246.066, 344.425,241.237zM 459.766,309.233l0.00-15.089 l 0.392,0.00 c 7.70,11.645, 18.783,17.468, 33.24,17.468c 6.375,0.00, 12.137-1.315, 17.318-3.965
		c 5.19-2.65, 8.835-7.148, 10.953-13.503c 3.453,5.562, 8.001,9.859, 13.643,12.90c 5.632,3.042, 11.836,4.568, 18.613,4.568
		c 5.17,0.00, 9.838-0.552, 14.025-1.677c 4.176-1.134, 7.75-2.891, 10.742-5.271c 2.982-2.379, 5.301-5.451, 6.957-9.226
		c 1.667-3.765, 2.49-8.302, 2.49-13.593l0.00-75.244 L 571.231,206.602 L 571.231,273.895 c0.00,3.182-0.271,6.154-0.803,8.935s-1.516,5.19-2.982,7.238
		c-1.466,2.058-3.484,3.674-6.074,4.869c-2.58,1.185-5.933,1.777-10.039,1.777c-8.373,0.00-14.918-2.369-19.707-7.138
		c-4.789-4.769-7.168-11.123-7.168-19.064l0.00-63.93 l-16.936,0.00 L 507.523,273.895 c0.00,3.313-0.291,6.355-0.883,9.136s-1.626,5.19-3.092,7.248
		c-1.456,2.058-3.423,3.634-5.863,4.759c-2.47,1.124-5.612,1.687-9.457,1.687c-4.909,0.00-9.126-0.994-12.629-2.972
		c-3.524-1.988-6.375-4.377-8.563-7.138c-2.189-2.781-3.785-5.652-4.769-8.634c-1.004-2.972-1.496-5.461-1.496-7.449l0.00-63.93 l-16.916,0.00 
		L 443.854,309.233 L 459.766,309.233 zM 686.472,213.138c-7.70-5.823-17.388-8.724-29.064-8.724c-8.232,0.00-15.36,1.315-21.404,3.976
		c-6.044,2.64-11.113,6.345-15.229,11.113c-4.106,4.769-7.198,10.451-9.256,17.077c-2.048,6.616-3.213,13.824-3.484,21.635
		c0.00,7.811, 1.195,14.968, 3.584,21.444c 2.389,6.485, 5.732,12.107, 10.039,16.876c 4.317,4.769, 9.417,8.473, 15.33,11.113
		c 5.903,2.65, 12.368,3.965, 19.406,3.965c 9.166,0.00, 16.755-1.887, 22.799-5.642c 6.044-3.775, 10.872-8.573, 14.527-14.396
		c 3.644-5.833, 6.164-12.178, 7.56-19.064c 1.405-6.887, 1.958-13.432, 1.697-19.647l-77.021,0.00 c-0.151-4.508, 0.381-8.774, 1.586-12.81
		c 1.185-4.036, 3.122-7.61, 5.763-10.722c 2.66-3.112, 6.054-5.582, 10.16-7.439c 4.106-1.857, 8.955-2.781, 14.527-2.781
		c 7.168,0.00, 13.041,1.656, 17.609,4.959c 4.588,3.313, 7.60,8.343, 9.055,15.089l 16.725,0.00 C 699.141,227.644, 694.172,218.96, 686.472,213.138z
		 M 682.396,279.055c-1.526,3.574-3.574,6.656-6.164,9.226c-2.60,2.58-5.642,4.628-9.156,6.144c-3.524,1.526-7.409,2.289-11.645,2.289
		c-4.387,0.00-8.323-0.763-11.846-2.289c-3.524-1.516-6.536-3.604-9.055-6.254c-2.52-2.65-4.508-5.722-5.973-9.226
		c-1.466-3.514-2.319-7.248-2.58-11.214l 59.111,0.00 C 684.815,271.706, 683.912,275.471, 682.396,279.055zM 113.443,148.867l0.00-15.882 L 34.224,132.984 l0.00-45.076 l 73.838,0.00 l0.00-15.882 L 34.224,72.026 l0.00-49.021 l 79.812,0.00 l0.00-15.882 L 15.31,7.123 L 15.31,148.867 L 113.443,148.867 zM 125.972,109.744l 21.705,0.00 l 24.676-35.92l 25.67,35.92l 20.309,0.00 l-35.428-47.235l 39.805-55.396l-21.695,0.00 l-28.662,42.466
		l-28.662-42.466l-20.50,0.00 l 38.621,54.001L 125.972,109.744zM 254.755,109.744l0.00-13.884 l 0.402,0.00 c 2.781,5.682, 7.168,9.828, 13.141,12.408c 5.973,2.57, 12.539,3.865, 19.697,3.865
		c 7.961,0.00, 14.898-1.466, 20.791-4.377c 5.913-2.901, 10.822-6.847, 14.728-11.806c 3.915-4.979, 6.867-10.682, 8.855-17.177
		s 2.992-13.372, 2.992-20.651c0.00-7.299-0.964-14.155-2.881-20.671c-1.938-6.475-4.849-12.137-8.764-16.956
		c-3.925-4.819-8.835-8.624-14.728-11.415c-5.903-2.781-12.78-4.156-20.60-4.156c-2.52,0.00-5.351,0.251-8.453,0.783
		c-3.132,0.512-6.214,1.395-9.266,2.57c-3.052,1.195-5.933,2.821-8.654,4.879c-2.721,2.038-5.02,4.588-6.867,7.65l-0.402,0.00 L 254.745-32.00 l-16.916,0.00 
		L 237.829,109.744 L 254.755,109.744 z M 315.563,73.311c-1.265,4.588-3.182,8.644-5.763,12.218c-2.59,3.584-5.913,6.435-9.949,8.533
		c-4.056,2.118-8.794,3.192-14.226,3.192c-5.712,0.00-10.551-1.134-14.537-3.393c-3.986-2.239-7.238-5.20-9.758-8.824
		c-2.52-3.644-4.347-7.78-5.461-12.408c-1.134-4.628-1.697-9.336-1.697-14.095c0.00-5.02, 0.602-9.899, 1.787-14.587
		c 1.195-4.708, 3.092-8.824, 5.672-12.408c 2.58-3.564, 5.943-6.455, 10.049-8.644c 4.116-2.179, 9.085-3.273, 14.928-3.273
		c 5.843,0.00, 10.712,1.134, 14.637,3.393c 3.905,2.239, 7.058,5.23, 9.447,8.925c 2.379,3.704, 4.116,7.941, 5.17,12.71
		s 1.596,9.668, 1.596,14.707C 317.46,64.075, 316.828,68.744, 315.563,73.311zM 428.112,13.668c-7.69-5.823-17.368-8.724-29.053-8.724c-8.232,0.00-15.37,1.295-21.394,3.965
		c-6.044,2.65-11.123,6.355-15.24,11.113c-4.106,4.769-7.198,10.451-9.246,17.077c-2.058,6.606-3.223,13.824-3.494,21.624
		c0.00,7.821, 1.205,14.958, 3.584,21.454c 2.379,6.475, 5.732,12.097, 10.039,16.886c 4.317,4.749, 9.427,8.453, 15.33,11.093
		c 5.903,2.65, 12.368,3.976, 19.416,3.976c 9.166,0.00, 16.745-1.887, 22.799-5.662c 6.024-3.765, 10.883-8.573, 14.527-14.396
		c 3.644-5.823, 6.174-12.178, 7.56-19.054c 1.395-6.887, 1.958-13.432, 1.687-19.647l-77.031,0.00 c-0.131-4.508, 0.412-8.784, 1.606-12.82
		c 1.185-4.016, 3.112-7.59, 5.763-10.702c 2.66-3.122, 6.044-5.592, 10.16-7.449c 4.106-1.847, 8.955-2.781, 14.527-2.781
		c 7.158,0.00, 13.041,1.667, 17.619,4.979c 4.578,3.313, 7.60,8.333, 9.055,15.079l 16.725,0.00 C 440.792,28.155, 435.812,19.491, 428.112,13.668z
		 M 424.036,79.566c-1.526,3.584-3.594,6.666-6.174,9.236c-2.58,2.59-5.642,4.648-9.156,6.154c-3.514,1.526-7.399,2.299-11.645,2.299
		c-4.387,0.00-8.333-0.763-11.846-2.299c-3.524-1.506-6.525-3.604-9.045-6.254c-2.52-2.65-4.518-5.722-5.973-9.236
		c-1.466-3.514-2.329-7.238-2.60-11.214l 59.121,0.00 C 426.456,72.237, 425.562,76.002, 424.036,79.566zM 477.475,109.744l0.00-21.624 l 0.402,0.00 c 4.116,8.333, 9.166,14.487, 15.129,18.452c 5.973,3.976, 13.533,5.843, 22.679,5.572l0.00-17.88 
		c-6.756,0.00-12.529-0.924-17.308-2.761c-4.779-1.847-8.624-4.568-11.545-8.142c-2.921-3.584-5.04-7.921-6.375-13.001
		c-1.325-5.10-1.988-10.963-1.988-17.589l0.00-45.648 l-16.916,0.00 L 461.553,109.744 L 477.475,109.744 zM 529.428,128.216l0.00,20.651 l 16.916,0.00 l0.00-20.651 L 529.428,128.216 z M 546.344,109.744l0.00-102.631 l-16.916,0.00 L 529.428,109.744 L 546.344,109.744 zM 588.539,109.744l0.00-15.079 l 0.402,0.00 c 7.70,11.625, 18.763,17.468, 33.24,17.468c 6.375,0.00, 12.137-1.335, 17.328-3.976
		c 5.17-2.65, 8.814-7.138, 10.943-13.493c 3.453,5.552, 7.991,9.859, 13.633,12.90c 5.642,3.042, 11.846,4.568, 18.613,4.568
		c 5.18,0.00, 9.848-0.572, 14.035-1.687c 4.176-1.134, 7.75-2.881, 10.732-5.271c 2.992-2.369, 5.311-5.451, 6.967-9.216
		c 1.667-3.765, 2.49-8.312, 2.49-13.603l0.00-75.234 l-16.916,0.00 L 700.004,74.416 c0.00,3.172-0.271,6.154-0.803,8.945c-0.532,2.761-1.526,5.20-2.982,7.238
		c-1.466,2.058-3.484,3.664-6.074,4.859c-2.59,1.195-5.933,1.807-10.039,1.807c-8.363,0.00-14.938-2.389-19.717-7.158s-7.168-11.113-7.168-19.054
		l0.00-63.92 l-16.926,0.00 L 636.296,74.416 c0.00,3.313-0.291,6.355-0.893,9.136c-0.592,2.761-1.626,5.20-3.092,7.238c-1.466,2.058-3.413,3.644-5.863,4.769
		c-2.46,1.134-5.612,1.707-9.457,1.707c-4.909,0.00-9.126-1.004-12.639-3.002c-3.524-1.978-6.375-4.377-8.563-7.138
		c-2.189-2.781-3.785-5.642-4.779-8.644c-1.004-2.962-1.486-5.451-1.486-7.429l0.00-63.92 l-16.926,0.00 L 572.597,109.744 L 588.539,109.744 zM 815.245,13.668c-7.70-5.823-17.388-8.724-29.064-8.724c-8.232,0.00-15.36,1.295-21.404,3.965
		c-6.044,2.65-11.113,6.355-15.229,11.113s-7.198,10.451-9.256,17.077c-2.058,6.606-3.213,13.824-3.494,21.624
		c0.00,7.821, 1.205,14.958, 3.584,21.454c 2.389,6.475, 5.742,12.097, 10.049,16.886c 4.317,4.749, 9.417,8.453, 15.32,11.093
		c 5.913,2.65, 12.378,3.976, 19.416,3.976c 9.166,0.00, 16.755-1.887, 22.799-5.662c 6.044-3.765, 10.872-8.573, 14.527-14.396
		c 3.644-5.823, 6.164-12.178, 7.56-19.054c 1.405-6.887, 1.948-13.432, 1.697-19.647l-77.031,0.00 c-0.141-4.508, 0.392-8.784, 1.596-12.82
		c 1.185-4.016, 3.112-7.59, 5.763-10.702s 6.044-5.592, 10.16-7.449c 4.106-1.847, 8.955-2.781, 14.517-2.781c 7.178,0.00, 13.041,1.667, 17.619,4.979
		c 4.588,3.313, 7.60,8.333, 9.055,15.079l 16.725,0.00 C 827.914,28.155, 822.945,19.491, 815.245,13.668z M 811.169,79.566
		c-1.526,3.584-3.584,6.666-6.164,9.236c-2.60,2.59-5.642,4.648-9.166,6.154c-3.514,1.526-7.399,2.299-11.635,2.299
		c-4.387,0.00-8.323-0.763-11.846-2.299c-3.534-1.506-6.536-3.604-9.055-6.254s-4.508-5.722-5.973-9.236s-2.319-7.238-2.59-11.214l 59.121,0.00 
		C 813.578,72.237, 812.685,76.002, 811.169,79.566zM 865.20,109.744l0.00-16.274 l 0.402,0.00 c 7.027,12.449, 18.181,18.663, 33.431,18.663c 6.776,0.00, 12.408-0.944, 16.926-2.781
		s 8.162-4.427, 10.943-7.74c 2.791-3.313, 4.749-7.258, 5.883-11.806c 1.124-4.568, 1.697-9.628, 1.697-15.199l0.00-67.494 l-16.936,0.00 l0.00,69.491 
		c0.00,6.335-1.867,11.374-5.572,15.079c-3.715,3.704-8.824,5.572-15.32,5.572c-5.18,0.00-9.658-0.803-13.432-2.389
		c-3.785-1.586-6.937-3.845-9.457-6.746c-2.52-2.921-4.407-6.335-5.672-10.22c-1.265-3.925-1.887-8.172-1.887-12.82l0.00-57.956 l-16.926,0.00 
		L 849.277,109.744 L 865.20,109.744 zM 1003.922,109.744l0.00-14.878 l-20.50,0.00 l0.00-63.729 c0.00-1.978, 0.171-3.584, 0.502-4.769c 0.331-1.195, 0.964-2.118, 1.887-2.781
		s 2.229-1.094, 3.885-1.295c 1.646-0.201, 3.815-0.291, 6.475-0.291L 1003.922,22.001 l0.00-14.878 l-12.941,0.00 c-4.367,0.00-8.132,0.291-11.234,0.883
		c-3.122,0.612-5.642,1.687-7.57,3.273c-1.917,1.606-3.353,3.845-4.277,6.746c-0.934,2.921-1.395,6.766-1.395,11.505l0.00,65.335 l-17.518,0.00 
		l0.00,14.878 l 17.518,0.00 l0.00,30.78 l 16.916,0.00 l0.00-30.78 L 1003.922,109.744 z" horiz-adv-x="1003.9215686274509"  />
<glyph unicode="&#x2603;" d="M 347.407,480.00l 20.982-56.139L 389.461,480.00l 12.127,0.00 l0.00-66.811 l-8.393,0.00 L 393.196,468.766 l-0.201,0.00 l-20.791-55.577l-7.549,0.00 l-20.791,55.577l-0.191,0.00 
		l0.00-55.577 l-8.393,0.00 L 335.28,480.00 L 347.407,480.00 zM 452.026,412.155c-2.058,0.00-3.684,0.582-4.899,1.737c-1.205,1.155-1.817,3.042-1.817,5.662
		c-2.179-2.62-4.708-4.508-7.60-5.662c-2.891-1.155-6.013-1.737-9.387-1.737c-2.158,0.00-4.216,0.231-6.134,0.703
		c-1.938,0.472-3.624,1.255-5.10,2.339c-1.456,1.094-2.61,2.50-3.443,4.206c-0.833,1.717-1.255,3.795-1.255,6.224
		c0.00,2.741, 0.462,4.989, 1.385,6.736c 0.944,1.747, 2.168,3.162, 3.694,4.257c 1.516,1.094, 3.263,1.917, 5.21,2.49
		c 1.968,0.552, 3.976,1.024, 6.024,1.395c 2.189,0.432, 4.247,0.763, 6.214,0.984c 1.938,0.221, 3.674,0.532, 5.17,0.934
		c 1.496,0.412, 2.68,0.994, 3.544,1.777c 0.873,0.783, 1.305,1.917, 1.305,3.413c0.00,1.747-0.311,3.142-0.974,4.206
		c-0.643,1.054-1.486,1.877-2.52,2.44c-1.024,0.562-2.168,0.934-3.464,1.124c-1.275,0.181-2.53,0.281-3.765,0.281
		c-3.353,0.00-6.154-0.643-8.393-1.917c-2.249-1.275-3.453-3.694-3.624-7.248l-7.941,0.00 c 0.141,2.992, 0.753,5.522, 1.877,7.58
		s 2.60,3.725, 4.477,5.01c 1.867,1.275, 3.996,2.199, 6.435,2.761c 2.419,0.562, 4.969,0.833, 7.65,0.833
		c 2.179,0.00, 4.337-0.151, 6.475-0.462c 2.158-0.311, 4.096-0.954, 5.823-1.917c 1.747-0.974, 3.142-2.329, 4.196-4.066
		C 452.247,454.48, 452.769,452.211, 452.769,449.40l0.00-24.887 c0.00-1.877, 0.11-3.243, 0.331-4.126c 0.211-0.873, 0.944-1.305, 2.189-1.305
		c 0.683,0.00, 1.486,0.161, 2.429,0.472l0.00-6.184 C 456.343,412.567, 454.455,412.155, 452.026,412.155z M 440.922,436.54c-1.606-0.351-3.313-0.622-5.08-0.843
		C 434.066,435.466, 432.289,435.225, 430.482,434.944c-1.797-0.281-3.413-0.733-4.849-1.355c-1.426-0.622-2.59-1.516-3.494-2.67
		s-1.355-2.731-1.355-4.728c0.00-1.315, 0.271-2.419, 0.783-3.323c 0.542-0.904, 1.225-1.636, 2.058-2.199
		c 0.843-0.562, 1.847-0.974, 3.002-1.215c 1.134-0.251, 2.299-0.381, 3.494-0.381c 2.60,0.00, 4.839,0.361, 6.706,1.084
		c 1.867,0.713, 3.393,1.616, 4.568,2.711s 2.058,2.279, 2.61,3.554c 0.572,1.275, 0.843,2.48, 0.843,3.604L 444.848,438.167 
		C 443.844,437.424, 442.539,436.882, 440.922,436.54zM 500.224,413.189L 500.224,419.735 l-0.191,0.00 c-1.305-2.68-3.353-4.608-6.144-5.803c-2.791-1.185-5.883-1.777-9.226-1.777
		c-3.745,0.00-6.987,0.693-9.758,2.068c-2.761,1.365-5.07,3.213-6.907,5.512c-1.827,2.309-3.213,5.00-4.156,8.051
		c-0.924,3.062-1.385,6.295-1.385,9.738c0.00,3.423, 0.442,6.676, 1.335,9.728c 0.914,3.062, 2.289,5.722, 4.116,8.001
		c 1.827,2.279, 4.116,4.086, 6.897,5.431c 2.751,1.345, 5.993,2.008, 9.658,2.008c 1.245,0.00, 2.58-0.12, 4.006-0.371s 2.861-0.663, 4.287-1.265
		c 1.446-0.592, 2.791-1.365, 4.066-2.339c 1.265-0.974, 2.329-2.168, 3.203-3.604l 0.191,0.00 L 500.214,480.00 l 7.931,0.00 l0.00-66.811 L 500.224,413.189 z M 471.753,430.356
		c 0.572-2.148, 1.476-4.066, 2.701-5.763c 1.205-1.677, 2.761-3.012, 4.658-4.016c 1.887-0.994, 4.106-1.496, 6.666-1.496
		c 2.68,0.00, 4.949,0.532, 6.807,1.596c 1.867,1.054, 3.393,2.45, 4.568,4.166s 2.038,3.664, 2.57,5.853
		c 0.522,2.179, 0.793,4.397, 0.793,6.646c0.00,2.369-0.281,4.668-0.843,6.877c-0.552,2.219-1.446,4.166-2.66,5.853
		c-1.215,1.687-2.771,3.042-4.718,4.076c-1.917,1.034-4.247,1.546-6.977,1.546c-2.67,0.00-4.949-0.532-6.817-1.596
		c-1.857-1.054-3.353-2.47-4.467-4.206c-1.124-1.747-1.928-3.745-2.429-5.993c-0.492-2.249-0.733-4.558-0.733-6.927
		C 470.859,434.713, 471.15,432.515, 471.753,430.356zM 554.496,416.271c-3.604-2.741-8.152-4.116-13.613-4.116c-3.865,0.00-7.208,0.632-10.029,1.877
		c-2.821,1.255-5.21,3.002-7.128,5.24c-1.917,2.239-3.373,4.919-4.347,8.041c-0.954,3.122-1.506,6.515-1.626,10.20
		c0.00,3.674, 0.572,7.048, 1.667,10.099c 1.124,3.062, 2.701,5.712, 4.728,7.951c 2.018,2.249, 4.397,3.996, 7.178,5.24
		c 2.761,1.245, 5.803,1.867, 9.085,1.867c 4.297,0.00, 7.851-0.883, 10.672-2.66c 2.821-1.777, 5.10-4.046, 6.817-6.787
		c 1.707-2.741, 2.891-5.732, 3.544-8.985s 0.914-6.325, 0.793-9.266l-36.091,0.00 c-0.06-2.118, 0.191-4.136, 0.753-6.034
		c 0.552-1.897, 1.456-3.584, 2.711-5.05c 1.225-1.466, 2.821-2.63, 4.749-3.514c 1.917-0.873, 4.206-1.305, 6.817-1.305
		c 3.343,0.00, 6.094,0.783, 8.242,2.339s 3.554,3.935, 4.247,7.108l 7.821,0.00 C 560.429,423.108, 558.11,419.022, 554.496,416.271z M 552.579,447.342
		c-0.703,1.687-1.677,3.132-2.881,4.357c-1.215,1.215-2.65,2.179-4.297,2.901c-1.646,0.723-3.474,1.074-5.451,1.074
		c-2.058,0.00-3.905-0.361-5.552-1.074c-1.646-0.713-3.062-1.697-4.247-2.941c-1.175-1.255-2.108-2.701-2.781-4.347
		c-0.683-1.656-1.094-3.413-1.225-5.291l 27.698,0.00 C 553.713,443.879, 553.291,445.656, 552.579,447.342zM 635.703,413.189l-9.798,38.46l-0.191,0.00 l-9.688-38.46l-8.584,0.00 l-15.48,48.369l 8.774,0.00 l 10.913-39.575l 0.181,0.00 l 9.698,39.575
		l 8.674,0.00 l 10.069-39.575l 0.191,0.00 l 10.812,39.575l 8.202,0.00 l-15.37-48.369L 635.703,413.189 zM 667.497,470.262L 667.497,480.00 l 7.921,0.00 l0.00-9.738 L 667.497,470.262 z M 675.418,461.568l0.00-48.369 l-7.921,0.00 L 667.497,461.568 L 675.418,461.568 zM 708.347,461.568l0.00-7.017 l-9.608,0.00 l0.00-30.037 c0.00-0.934, 0.08-1.687, 0.231-2.249c 0.151-0.562, 0.452-1.004, 0.893-1.315
		c 0.432-0.311, 1.034-0.512, 1.817-0.602c 0.773-0.09, 1.787-0.141, 3.032-0.141l 3.634,0.00 l0.00-7.017 l-6.064,0.00 c-2.058,0.00-3.815,0.141-5.261,0.422
		c-1.476,0.281-2.65,0.803-3.554,1.546c-0.904,0.753-1.556,1.807-1.998,3.182c-0.442,1.365-0.653,3.172-0.653,5.421L 690.819,454.551 l-8.202,0.00 L 682.616,461.568 
		l 8.202,0.00 L 690.819,476.065 l 7.921,0.00 l0.00-14.507 L 708.347,461.558 zM 725.042,480.00l0.00-25.54 l 0.191,0.00 c 0.612,1.496, 1.476,2.761, 2.60,3.785s 2.379,1.867, 3.775,2.52
		c 1.416,0.653, 2.851,1.134, 4.397,1.456c 1.516,0.311, 3.002,0.462, 4.417,0.462c 3.162,0.00, 5.813-0.432, 7.931-1.305
		c 2.118-0.873, 3.825-2.088, 5.13-3.644s 2.229-3.413, 2.741-5.572c 0.532-2.148, 0.793-4.538, 0.793-7.158l0.00-31.814 l-7.921,0.00 L 749.096,445.937 
		c0.00,2.992-0.873,5.361-2.62,7.108c-1.737,1.737-4.126,2.62-7.168,2.62c-2.44,0.00-4.528-0.381-6.295-1.124
		c-1.787-0.753-3.253-1.807-4.437-3.182c-1.175-1.375-2.068-2.982-2.66-4.819c-0.582-1.847-0.873-3.855-0.873-6.044l0.00-27.317 L 717.101,413.179 L 717.101,480.00 
		L 725.042,480.00 zM 20.219,311.713c 0.753-1.215, 1.727-2.179, 2.941-2.901c 1.205-0.713, 2.58-1.235, 4.096-1.536
		c 1.526-0.311, 3.092-0.472, 4.718-0.472c 1.245,0.00, 2.54,0.09, 3.915,0.281c 1.365,0.191, 2.63,0.532, 3.775,1.024
		c 1.144,0.502, 2.088,1.235, 2.841,2.209c 0.743,0.964, 1.124,2.199, 1.124,3.694c0.00,2.058-0.793,3.614-2.339,4.678
		c-1.556,1.054-3.484,1.917-5.823,2.57s-4.869,1.245-7.60,1.777c-2.731,0.522-5.271,1.275-7.59,2.249
		c-2.339,0.964-4.277,2.319-5.833,4.066c-1.556,1.747-2.329,4.186-2.329,7.309c0.00,2.429, 0.542,4.518, 1.626,6.275
		c 1.084,1.747, 2.49,3.162, 4.196,4.247c 1.707,1.094, 3.644,1.897, 5.783,2.44c 2.148,0.532, 4.277,0.793, 6.385,0.793
		c 2.731,0.00, 5.261-0.231, 7.549-0.693c 2.299-0.472, 4.337-1.285, 6.114-2.429c 1.767-1.155, 3.182-2.721, 4.237-4.688
		c 1.054-1.958, 1.677-4.407, 1.867-7.339l-7.931,0.00 c-0.12,1.556-0.532,2.861-1.205,3.885c-0.693,1.024-1.556,1.857-2.62,2.48
		c-1.064,0.622-2.229,1.074-3.504,1.355c-1.265,0.281-2.56,0.422-3.865,0.422c-1.175,0.00-2.379-0.09-3.584-0.271
		c-1.215-0.191-2.319-0.522-3.313-0.984c-0.994-0.472-1.807-1.094-2.419-1.877c-0.622-0.783-0.934-1.797-0.934-3.042
		c0.00-1.375, 0.482-2.51, 1.446-3.413c 0.974-0.904, 2.189-1.656, 3.684-2.249c 1.496-0.582, 3.162-1.084, 5.03-1.486
		c 1.867-0.412, 3.725-0.833, 5.602-1.265c 1.988-0.432, 3.925-0.964, 5.823-1.596c 1.887-0.622, 3.574-1.456, 5.03-2.48
		c 1.456-1.034, 2.64-2.329, 3.544-3.885s 1.355-3.494, 1.355-5.803c0.00-2.931-0.602-5.361-1.827-7.299
		c-1.215-1.938-2.791-3.494-4.759-4.678c-1.958-1.195-4.166-2.008-6.626-2.48s-4.889-0.703-7.319-0.703
		c-2.67,0.00-5.21,0.291-7.64,0.843c-2.419,0.562-4.568,1.476-6.435,2.761C 15.561,304.755, 14.065,306.432, 12.951,308.53
		c-1.114,2.088-1.737,4.628-1.867,7.62l 7.921,0.00 C 19.064,314.413, 19.466,312.927, 20.219,311.713zM 59.673,335.014c 0.984,3.092, 2.48,5.773, 4.467,8.041c 1.988,2.289, 4.447,4.076, 7.369,5.381
		c 2.921,1.305, 6.275,1.968, 10.059,1.968c 3.865,0.00, 7.238-0.653, 10.13-1.968c 2.891-1.305, 5.331-3.102, 7.319-5.381
		c 1.988-2.269, 3.474-4.949, 4.477-8.041c 0.984-3.092, 1.486-6.405, 1.486-9.959s-0.502-6.867-1.486-9.919
		c-1.004-3.062-2.49-5.722-4.477-8.001c-1.988-2.279-4.427-4.056-7.319-5.331c-2.891-1.275-6.264-1.917-10.13-1.917
		c-3.795,0.00-7.148,0.643-10.059,1.917c-2.921,1.275-5.381,3.062-7.369,5.331c-1.988,2.279-3.484,4.949-4.467,8.001
		c-1.004,3.052-1.496,6.365-1.496,9.919S 58.669,331.922, 59.673,335.014z M 67.735,317.234c 0.783-2.279, 1.847-4.186, 3.223-5.712
		c 1.365-1.526, 2.962-2.701, 4.809-3.514c 1.827-0.813, 3.775-1.215, 5.823-1.215c 2.058,0.00, 3.996,0.402, 5.833,1.215s 3.433,1.978, 4.809,3.514
		c 1.365,1.526, 2.429,3.433, 3.213,5.712c 0.783,2.279, 1.175,4.879, 1.175,7.811c0.00,2.931-0.402,5.532-1.175,7.811
		c-0.783,2.269-1.847,4.186-3.213,5.752c-1.375,1.556-2.962,2.741-4.809,3.554s-3.775,1.215-5.833,1.215
		c-2.048,0.00-3.996-0.402-5.823-1.215c-1.837-0.813-3.433-1.998-4.809-3.554c-1.375-1.556-2.44-3.484-3.223-5.752
		c-0.773-2.279-1.165-4.889-1.165-7.811C 66.57,322.113, 66.952,319.513, 67.735,317.234zM 121.766,349.279l0.00-7.118 l 0.181,0.00 c 3.604,5.491, 8.794,8.232, 15.571,8.232c 2.982,0.00, 5.692-0.622, 8.112-1.877
		c 2.429-1.255, 4.136-3.363, 5.14-6.365c 1.616,2.62, 3.745,4.648, 6.375,6.084c 2.65,1.436, 5.552,2.148, 8.724,2.148
		c 2.419,0.00, 4.618-0.261, 6.576-0.793c 1.968-0.542, 3.634-1.355, 5.04-2.48c 1.405-1.124, 2.49-2.57, 3.253-4.357
		c 0.783-1.777, 1.165-3.915, 1.165-6.415l0.00-35.459 l-7.921,0.00 l0.00,31.724 c0.00,1.486-0.141,2.901-0.392,4.206c-0.241,1.305-0.703,2.45-1.395,3.413
		c-0.683,0.974-1.636,1.737-2.841,2.299c-1.215,0.562-2.781,0.833-4.708,0.833c-3.925,0.00-6.997-1.124-9.236-3.363
		c-2.239-2.249-3.353-5.24-3.353-8.985l0.00-30.128 l-7.921,0.00 l0.00,31.724 c0.00,1.556-0.141,2.992-0.412,4.297c-0.291,1.305-0.773,2.45-1.456,3.423
		c-0.683,0.964-1.606,1.707-2.751,2.239c-1.144,0.532-2.63,0.793-4.427,0.793c-2.299,0.00-4.277-0.462-5.923-1.395
		c-1.646-0.944-2.982-2.068-4.006-3.373c-1.024-1.305-1.777-2.67-2.239-4.066c-0.472-1.416-0.703-2.57-0.703-3.514l0.00-30.128 l-7.921,0.00 
		l0.00,48.379 L 121.766,349.259 zM 227.971,303.992c-3.604-2.741-8.152-4.116-13.613-4.116c-3.855,0.00-7.198,0.632-10.029,1.877
		c-2.821,1.255-5.21,3.002-7.128,5.24c-1.917,2.239-3.373,4.919-4.337,8.041c-0.964,3.122-1.506,6.525-1.626,10.21
		c0.00,3.674, 0.552,7.048, 1.667,10.099c 1.124,3.062, 2.691,5.712, 4.708,7.951c 2.028,2.249, 4.407,3.986, 7.188,5.24
		c 2.761,1.255, 5.803,1.877, 9.085,1.877c 4.297,0.00, 7.851-0.893, 10.672-2.67c 2.821-1.777, 5.09-4.036, 6.807-6.787
		c 1.717-2.741, 2.891-5.742, 3.544-8.975c 0.653-3.243, 0.914-6.335, 0.803-9.266l-36.091,0.00 c-0.06-2.118, 0.181-4.136, 0.753-6.034
		c 0.552-1.907, 1.456-3.584, 2.711-5.06c 1.235-1.466, 2.821-2.63, 4.749-3.514c 1.928-0.873, 4.196-1.305, 6.817-1.305
		c 3.343,0.00, 6.094,0.783, 8.242,2.339s 3.554,3.935, 4.247,7.118l 7.831,0.00 C 233.894,310.819, 231.565,306.743, 227.971,303.992z M 226.053,335.054
		c-0.713,1.687-1.677,3.132-2.891,4.357c-1.205,1.215-2.64,2.179-4.287,2.901c-1.646,0.713-3.474,1.074-5.451,1.074
		c-2.058,0.00-3.905-0.361-5.552-1.074c-1.646-0.723-3.062-1.697-4.247-2.952c-1.175-1.255-2.098-2.701-2.791-4.347
		s-1.094-3.413-1.215-5.281l 27.698,0.00 C 227.177,331.60, 226.766,333.377, 226.053,335.054zM 264.985,342.262l0.00,7.027 l 8.112,0.00 l0.00,7.198 c0.00,3.935, 1.134,6.907, 3.403,8.935c 2.269,2.028, 5.572,3.042, 9.929,3.042
		c 0.753,0.00, 1.606-0.07, 2.56-0.191c 0.964-0.131, 1.817-0.311, 2.57-0.562l0.00-6.927 c-0.683,0.251-1.436,0.432-2.249,0.522
		c-0.803,0.09-1.556,0.141-2.239,0.141c-1.917,0.00-3.413-0.381-4.477-1.124c-1.044-0.753-1.586-2.189-1.586-4.307l0.00-6.726 l 9.326,0.00 l0.00-7.027 
		l-9.326,0.00 l0.00-41.352 l-7.921,0.00 L 273.087,342.262 L 264.985,342.262 zM 304.60,349.279l0.00-10.20 l 0.191,0.00 c 1.928,3.935, 4.297,6.837, 7.098,8.704s 6.335,2.741, 10.632,2.62l0.00-8.413 
		c-3.172,0.00-5.873-0.432-8.122-1.305c-2.239-0.883-4.036-2.158-5.401-3.835c-1.375-1.687-2.359-3.735-2.982-6.134
		c-0.622-2.399-0.934-5.16-0.934-8.282l0.00-21.524 L 297.161,300.91 l0.00,48.379 L 304.60,349.289 zM 328.945,357.983l0.00,9.728 l 7.931,0.00 l0.00-9.728 L 328.945,357.983 z M 336.866,349.279l0.00-48.379 l-7.931,0.00 l0.00,48.379 L 336.866,349.279 zM 383.297,303.992c-3.604-2.741-8.142-4.116-13.613-4.116c-3.845,0.00-7.188,0.632-10.019,1.877
		c-2.831,1.255-5.21,3.002-7.138,5.24c-1.928,2.239-3.363,4.919-4.337,8.041c-0.974,3.122-1.506,6.525-1.636,10.21
		c0.00,3.674, 0.562,7.048, 1.677,10.099c 1.114,3.062, 2.691,5.712, 4.708,7.951c 2.018,2.249, 4.407,3.986, 7.178,5.24
		s 5.793,1.877, 9.085,1.877c 4.287,0.00, 7.841-0.893, 10.672-2.67c 2.831-1.777, 5.09-4.036, 6.807-6.787
		c 1.707-2.741, 2.881-5.742, 3.554-8.975c 0.643-3.243, 0.914-6.335, 0.783-9.266l-36.081,0.00 c-0.07-2.118, 0.191-4.136, 0.733-6.034
		c 0.572-1.907, 1.466-3.584, 2.711-5.06c 1.245-1.466, 2.831-2.63, 4.759-3.514c 1.928-0.873, 4.196-1.305, 6.797-1.305
		c 3.363,0.00, 6.114,0.783, 8.252,2.339c 2.148,1.556, 3.564,3.935, 4.247,7.118l 7.831,0.00 C 389.23,310.819, 386.901,306.743, 383.297,303.992z
		 M 381.39,335.054c-0.713,1.687-1.677,3.132-2.891,4.357c-1.215,1.215-2.64,2.179-4.297,2.901c-1.646,0.713-3.453,1.074-5.441,1.074
		c-2.058,0.00-3.905-0.361-5.552-1.074c-1.646-0.723-3.072-1.697-4.237-2.952c-1.185-1.255-2.118-2.701-2.811-4.347
		c-0.683-1.656-1.084-3.413-1.205-5.281l 27.678,0.00 C 382.534,331.60, 382.103,333.377, 381.39,335.054zM 406.709,349.279l0.00-7.68 l 0.181,0.00 c 3.293,5.863, 8.533,8.794, 15.671,8.794c 3.162,0.00, 5.813-0.432, 7.931-1.305
		c 2.108-0.873, 3.825-2.088, 5.13-3.644s 2.229-3.413, 2.741-5.572c 0.532-2.148, 0.803-4.548, 0.803-7.158l0.00-31.814 l-7.921,0.00 l0.00,32.748 
		c0.00,2.992-0.883,5.361-2.63,7.108c-1.747,1.737-4.126,2.61-7.168,2.61c-2.429,0.00-4.518-0.371-6.305-1.124
		c-1.767-0.743-3.243-1.807-4.417-3.172c-1.185-1.375-2.068-2.972-2.66-4.819c-0.602-1.837-0.883-3.845-0.883-6.034l0.00-27.317 l-7.931,0.00 l0.00,48.379 
		L 406.709,349.279 zM 486.239,300.91l0.00,6.546 l-0.191,0.00 c-1.305-2.68-3.353-4.608-6.144-5.803c-2.791-1.185-5.883-1.777-9.236-1.777
		c-3.735,0.00-6.977,0.693-9.758,2.068c-2.761,1.365-5.06,3.213-6.897,5.512c-1.827,2.309-3.203,5.00-4.146,8.051
		c-0.934,3.062-1.405,6.305-1.405,9.738c0.00,3.423, 0.462,6.676, 1.355,9.728c 0.904,3.052, 2.279,5.712, 4.116,8.001
		c 1.817,2.279, 4.126,4.076, 6.897,5.431c 2.761,1.335, 5.983,2.008, 9.648,2.008c 1.245,0.00, 2.58-0.131, 4.006-0.371
		c 1.436-0.251, 2.861-0.663, 4.297-1.265c 1.436-0.592, 2.771-1.375, 4.056-2.339c 1.265-0.964, 2.339-2.168, 3.203-3.604l 0.191,0.00 l0.00,24.887 
		l 7.941,0.00 l0.00-66.801 L 486.239,300.92 z M 457.758,318.077c 0.592-2.148, 1.486-4.066, 2.711-5.752c 1.205-1.687, 2.761-3.022, 4.658-4.026
		c 1.897-0.994, 4.116-1.496, 6.666-1.496c 2.68,0.00, 4.939,0.532, 6.817,1.596c 1.857,1.054, 3.383,2.45, 4.558,4.166
		c 1.185,1.707, 2.038,3.664, 2.58,5.843c 0.512,2.189, 0.773,4.397, 0.773,6.646c0.00,2.359-0.271,4.658-0.823,6.877
		c-0.562,2.219-1.456,4.166-2.66,5.853c-1.225,1.687-2.791,3.032-4.718,4.066c-1.917,1.034-4.257,1.546-6.987,1.546
		c-2.68,0.00-4.929-0.532-6.817-1.586c-1.867-1.064-3.363-2.47-4.467-4.216c-1.124-1.747-1.928-3.745-2.419-5.983
		c-0.512-2.249-0.743-4.558-0.743-6.927C 456.875,322.424, 457.166,320.226, 457.758,318.077zM 512.442,311.713c 0.743-1.215, 1.727-2.179, 2.931-2.901c 1.215-0.713, 2.58-1.235, 4.106-1.536
		c 1.516-0.311, 3.092-0.472, 4.708-0.472c 1.235,0.00, 2.55,0.09, 3.915,0.281c 1.375,0.191, 2.63,0.532, 3.785,1.024
		c 1.155,0.502, 2.088,1.235, 2.831,2.209c 0.753,0.964, 1.124,2.199, 1.124,3.694c0.00,2.058-0.773,3.614-2.329,4.678
		c-1.546,1.054-3.494,1.917-5.833,2.57c-2.329,0.653-4.849,1.245-7.60,1.777c-2.731,0.522-5.261,1.275-7.60,2.249
		c-2.319,0.964-4.287,2.319-5.823,4.066c-1.556,1.747-2.329,4.186-2.329,7.309c0.00,2.429, 0.552,4.518, 1.626,6.275
		c 1.084,1.747, 2.48,3.162, 4.206,4.247c 1.707,1.094, 3.614,1.897, 5.783,2.44c 2.138,0.532, 4.267,0.793, 6.375,0.793
		c 2.741,0.00, 5.251-0.231, 7.56-0.693c 2.299-0.472, 4.337-1.285, 6.104-2.429c 1.777-1.155, 3.172-2.721, 4.247-4.688
		c 1.054-1.958, 1.677-4.407, 1.857-7.339l-7.911,0.00 c-0.141,1.556-0.542,2.861-1.215,3.885c-0.683,1.024-1.556,1.857-2.61,2.48
		c-1.054,0.622-2.229,1.074-3.494,1.355c-1.295,0.281-2.58,0.422-3.885,0.422c-1.175,0.00-2.369-0.09-3.594-0.271
		c-1.195-0.191-2.309-0.522-3.293-0.984c-1.004-0.472-1.817-1.094-2.419-1.877c-0.622-0.783-0.944-1.797-0.944-3.042
		c0.00-1.375, 0.492-2.51, 1.456-3.413c 0.954-0.904, 2.199-1.656, 3.674-2.249c 1.486-0.582, 3.172-1.084, 5.04-1.486
		c 1.867-0.412, 3.735-0.833, 5.592-1.265c 1.988-0.432, 3.935-0.964, 5.823-1.596c 1.897-0.622, 3.574-1.456, 5.04-2.48
		c 1.466-1.034, 2.64-2.329, 3.554-3.885c 0.904-1.556, 1.355-3.494, 1.355-5.803c0.00-2.931-0.612-5.361-1.817-7.299
		c-1.215-1.938-2.811-3.494-4.769-4.678c-1.948-1.195-4.166-2.008-6.616-2.48s-4.889-0.703-7.319-0.703
		c-2.68,0.00-5.23,0.291-7.65,0.843c-2.419,0.562-4.578,1.476-6.445,2.761c-1.857,1.275-3.353,2.952-4.467,5.05
		c-1.124,2.088-1.747,4.628-1.877,7.62l 7.931,0.00 C 511.287,314.413, 511.699,312.927, 512.442,311.713zM 574.072,342.262l0.00,7.027 l 8.122,0.00 l0.00,7.198 c0.00,3.935, 1.124,6.907, 3.403,8.935c 2.269,2.028, 5.572,3.042, 9.929,3.042
		c 0.743,0.00, 1.596-0.07, 2.55-0.191c 0.974-0.131, 1.837-0.311, 2.58-0.562l0.00-6.927 c-0.683,0.251-1.436,0.432-2.249,0.522
		c-0.813,0.09-1.546,0.141-2.239,0.141c-1.917,0.00-3.423-0.381-4.467-1.124c-1.054-0.753-1.596-2.189-1.596-4.307l0.00-6.726 l 9.336,0.00 l0.00-7.027 
		l-9.336,0.00 l0.00-41.352 l-7.911,0.00 L 582.194,342.262 L 574.072,342.262 zM 613.697,349.279l0.00-10.20 l 0.191,0.00 c 1.928,3.935, 4.297,6.837, 7.088,8.704s 6.345,2.741, 10.642,2.62l0.00-8.413 
		c-3.172,0.00-5.883-0.432-8.132-1.305c-2.239-0.883-4.026-2.158-5.401-3.835c-1.365-1.687-2.359-3.735-2.982-6.134
		c-0.622-2.399-0.944-5.16-0.944-8.282l0.00-21.524 l-7.911,0.00 l0.00,48.379 L 613.697,349.289 zM 634.77,335.014c 0.994,3.092, 2.48,5.773, 4.457,8.041c 1.998,2.289, 4.447,4.076, 7.369,5.381
		c 2.931,1.305, 6.285,1.968, 10.079,1.968c 3.855,0.00, 7.228-0.653, 10.12-1.968c 2.891-1.305, 5.331-3.102, 7.319-5.381
		c 1.988-2.269, 3.494-4.949, 4.467-8.041c 1.004-3.092, 1.496-6.405, 1.496-9.959s-0.502-6.867-1.496-9.919
		c-0.984-3.062-2.48-5.722-4.467-8.001c-1.978-2.279-4.417-4.056-7.319-5.331s-6.264-1.917-10.12-1.917
		c-3.795,0.00-7.148,0.643-10.079,1.917c-2.921,1.275-5.371,3.062-7.369,5.331c-1.978,2.279-3.474,4.949-4.457,8.001
		c-1.004,3.052-1.486,6.365-1.486,9.919S 633.776,331.922, 634.77,335.014z M 642.831,317.234c 0.783-2.279, 1.857-4.186, 3.223-5.712
		c 1.365-1.526, 2.962-2.701, 4.799-3.514c 1.847-0.813, 3.775-1.215, 5.833-1.215c 2.048,0.00, 3.986,0.402, 5.823,1.215s 3.433,1.978, 4.799,3.514
		c 1.375,1.526, 2.44,3.433, 3.223,5.712c 0.773,2.279, 1.165,4.879, 1.165,7.811c0.00,2.931-0.392,5.532-1.165,7.811
		c-0.783,2.269-1.857,4.186-3.223,5.752c-1.365,1.556-2.962,2.741-4.799,3.554s-3.775,1.215-5.823,1.215
		c-2.058,0.00-3.986-0.402-5.833-1.215c-1.837-0.813-3.433-1.998-4.799-3.554c-1.375-1.556-2.44-3.484-3.223-5.752
		c-0.773-2.279-1.155-4.889-1.155-7.811C 641.677,322.113, 642.058,319.513, 642.831,317.234zM 696.862,349.279l0.00-7.118 l 0.191,0.00 c 3.604,5.491, 8.814,8.232, 15.571,8.232c 2.992,0.00, 5.692-0.622, 8.122-1.877
		s 4.136-3.363, 5.13-6.365c 1.616,2.62, 3.745,4.648, 6.395,6.084c 2.64,1.436, 5.542,2.148, 8.714,2.148
		c 2.419,0.00, 4.608-0.261, 6.566-0.793c 1.958-0.542, 3.634-1.355, 5.05-2.48c 1.395-1.124, 2.48-2.57, 3.253-4.357
		s 1.165-3.915, 1.165-6.415l0.00-35.459 l-7.921,0.00 l0.00,31.724 c0.00,1.486-0.131,2.901-0.381,4.206c-0.251,1.305-0.713,2.45-1.405,3.413
		c-0.683,0.974-1.616,1.737-2.831,2.299c-1.215,0.562-2.781,0.833-4.718,0.833c-3.915,0.00-6.977-1.124-9.226-3.363
		c-2.249-2.249-3.353-5.24-3.353-8.985l0.00-30.128 l-7.931,0.00 l0.00,31.724 c0.00,1.556-0.141,2.992-0.412,4.297c-0.281,1.305-0.763,2.45-1.456,3.423
		c-0.683,0.964-1.606,1.707-2.761,2.239c-1.134,0.532-2.62,0.793-4.417,0.793c-2.299,0.00-4.287-0.462-5.913-1.395
		c-1.656-0.944-2.992-2.068-4.006-3.373c-1.034-1.305-1.777-2.67-2.249-4.066c-0.472-1.416-0.693-2.57-0.693-3.514l0.00-30.128 l-7.921,0.00 
		l0.00,48.379 L 696.862,349.259 zM 562.347,155.743c 5.923-4.899, 18.281-15.24, 18.281-34.906c0.00-19.135-10.822-28.20-21.645-36.723
		c-3.353-3.353-7.218-6.977-7.218-12.69c0.00-5.662, 3.865-8.784, 6.696-11.113l 9.296-7.218c 11.334-9.587, 21.635-18.372, 21.635-36.211
		c0.00-24.315-23.452-48.881-67.775-48.881c-37.366,0.00-55.396,17.84-55.396,36.984c0.00,9.316, 4.618,22.488, 19.837,31.573
		c 15.972,9.828, 37.627,11.093, 49.222,11.886c-3.614,4.668-7.74,9.567-7.74,17.589c0.00,4.397, 1.295,6.977, 2.59,10.079
		c-2.851-0.251-5.672-0.512-8.252-0.512c-27.327,0.00-42.787,20.43-42.787,40.589c0.00,11.907, 5.421,25.098, 16.494,34.665
		c 14.697,12.157, 32.206,14.216, 46.14,14.216l 53.077,0.00 l-16.494-9.316L 562.347,155.753 z M 544.035,40.925c-2.068,0.271-3.343,0.271-5.913,0.271
		c-2.319,0.00-16.243-0.532-27.076-4.156c-5.652-2.058-22.157-8.252-22.157-26.624c0.00-18.352, 17.789-31.573, 45.367-31.573
		c 24.727,0.00, 37.878,11.927, 37.878,27.939C 572.135,20.003, 563.642,26.96, 544.035,40.925z M 551.524,90.057c 5.923,5.963, 6.435,14.236, 6.435,18.884
		c0.00,18.623-11.083,47.586-32.467,47.586c-6.686,0.00-13.914-3.353-18.04-8.553c-4.387-5.431-5.652-12.388-5.652-19.115
		c0.00-17.338, 10.049-46.04, 32.206-46.04C 540.441,82.829, 547.368,85.921, 551.524,90.057zM 400.103,45.061c-40.91,0.00-62.775,32.015-62.775,60.938c0.00,33.822, 27.538,62.745, 66.65,62.745
		c 37.808,0.00, 61.48-29.686, 61.48-60.938C 465.458,77.357, 442.057,45.061, 400.103,45.061z M 432.259,65.983c 6.194,8.272, 7.74,18.593, 7.74,28.662
		c0.00,22.729-10.812,66.098-42.717,66.098c-8.503,0.00-16.986-3.373-23.15-8.804c-10.039-9.015-11.846-20.39-11.846-31.493
		c0.00-25.57, 12.599-67.624, 43.731-67.624C 416.055,52.821, 426.365,57.731, 432.259,65.983zM 260.658,45.061c-40.92,0.00-62.785,32.015-62.785,60.938c0.00,33.822, 27.538,62.745, 66.65,62.745
		c 37.808,0.00, 61.49-29.686, 61.49-60.938C 326.003,77.357, 302.592,45.061, 260.658,45.061z M 292.814,65.983c 6.174,8.272, 7.72,18.593, 7.72,28.662
		c0.00,22.729-10.812,66.098-42.707,66.098c-8.483,0.00-16.986-3.373-23.16-8.804c-10.029-9.015-11.826-20.39-11.826-31.493
		c0.00-25.57, 12.599-67.624, 43.741-67.624C 276.611,52.821, 286.901,57.731, 292.814,65.983zM 178.216,49.117l-37.005-8.573c-15.019-2.329-28.451-4.407-42.677-4.407C 27.146,36.136,0.00,88.842,0.00,130.113
		c0.00,50.357, 38.531,97.059, 104.508,97.059c 13.975,0.00, 27.407-2.068, 39.565-5.441c 19.396-5.461, 28.451-12.198, 34.143-16.103l-21.484-20.50l-9.045-2.078
		l 6.465,10.391c-8.794,8.563-24.847,24.395-55.356,24.395c-40.88,0.00-71.66-31.162-71.66-76.589c0.00-48.781, 35.177-94.73, 91.568-94.73
		c 16.575,0.00, 25.098,3.353, 32.858,6.485l0.00,41.783 l-39.063-2.078l 20.691,11.154l 54.844,0.00 l-6.726-6.475c-1.827-1.566-2.078-2.098-2.59-4.156
		c-0.271-2.329-0.512-9.859-0.512-12.469L 178.206,49.117 zM 644.116,56.586c-8.563,0.783-10.35,2.329-10.35,12.449L 633.766,71.906 L 633.766,215.979 c 0.05,0.552, 0.09,1.124, 0.151,1.667
		c 1.044,9.075, 3.624,10.632, 11.645,15.31l-37.005,0.00 l-19.406-9.336l 19.777,0.00 l0.00-0.12 l-0.01,0.08L 608.919,71.906 l0.00-8.573 c0.00-5.18-1.034-5.963-6.977-13.744
		l 45.789,0.00 l 9.577,5.702C 652.90,55.823, 648.503,56.074, 644.116,56.586zM 749.357,54.197c-2.801-1.546-5.642-3.353-8.453-4.648c-8.503-3.865-17.237-4.899-24.937-4.899
		c-8.202,0.00-21.062,0.532-34.173,10.079c-18.211,12.88-26.182,35.037-26.182,54.392c0.00,39.946, 32.376,59.553, 58.82,59.553
		c 9.246,0.00, 18.763-2.329, 26.483-7.238c 12.82-8.493, 16.153-19.566, 17.95-25.49l-60.356-24.506l-19.797-1.546c 6.425-32.728, 28.531-51.802, 52.917-51.802
		c 13.121,0.00, 22.618,4.628, 31.352,9.015L 749.357,54.197z M 725.223,131.017c 4.859,1.807, 7.439,3.353, 7.439,6.957
		c0.00,10.31-11.565,22.177-25.429,22.177c-10.29,0.00-29.545-8.001-29.545-35.84c0.00-4.377, 0.502-9.015, 0.773-13.643L 725.223,131.017z" horiz-adv-x="762.9803921568628"  />
<glyph unicode="&#x25b9;" d="M0.00,480.00L 128.00,480.00L 128.00-32.00L0.00-32.00zM 256.00,480.00L 384.00,480.00L 384.00-32.00L 256.00-32.00z" horiz-adv-x="384"  />
<glyph unicode="&#x25b6;" d="M0.00,480.00L 384.00,224.00L0.00-32.00 	z" horiz-adv-x="384"  />
<glyph unicode="&#x266b;" d="M 359.765,64.235c-6.143,0.00-12.284,2.343-16.971,7.029c-9.372,9.372-9.372,24.568,0.00,33.941
		c 65.503,65.503, 65.503,172.085,0.00,237.588c-9.372,9.373-9.372,24.569,0.00,33.941c 9.372,9.371, 24.569,9.372, 33.941,0.00
		C 417.532,335.938, 440.00,281.696, 440.00,224.00c0.00-57.695-22.468-111.938-63.265-152.735C 372.049,66.578, 365.907,64.235, 359.765,64.235zM 274.51,109.49c-6.143,0.00-12.284,2.343-16.971,7.029c-9.373,9.373-9.373,24.568,0.00,33.941
		c 40.55,40.55, 40.55,106.529,0.00,147.078c-9.373,9.373-9.373,24.569,0.00,33.941c 9.373,9.372, 24.568,9.372, 33.941,0.00
		c 59.265-59.265, 59.265-155.696,0.00-214.961C 286.794,111.833, 280.652,109.49, 274.51,109.49zM 200.666,440.666 C 213.50,453.50 224.00,449.15 224.00,431.00 L 224.00,17.00 C 224.00-1.15 213.50-5.499 200.666,7.335 L 80.00,128.00 L 0.00,128.00 L 0.00,320.00 L 80.00,320.00 L 200.666,440.666 Z"  />
<glyph unicode="&#x2669;" d="M 200.666,440.666 C 213.50,453.50 224.00,449.15 224.00,431.00 L 224.00,17.00 C 224.00-1.15 213.50-5.499 200.666,7.335 L 80.00,128.00 L 0.00,128.00 L 0.00,320.00 L 80.00,320.00 L 200.666,440.666 ZM 480.00,170.426 L 480.00,128.00 L 437.574,128.00 L 384.00,181.574 L 330.426,128.00 L 288.00,128.00 L 288.00,170.426 L 341.574,224.00 L 288.00,277.574 L 288.00,320.00 L 330.426,320.00 L 384.00,266.426 L 437.574,320.00 L 480.00,320.00 L 480.00,277.574 L 426.426,224.00 Z"  />
<glyph unicode="&#x2622;" d="M 32.00,224.00c 17.68,0.00, 32.00-14.32, 32.00-32.00l0.00-128.00 c0.00-17.68-14.32-32.00-32.00-32.00L0.00,32.00 l0.00-64.00 l 256.00,0.00 l0.00,64.00 l-31.872,0.00 C 206.496,32.00, 192.00,46.32, 192.00,64.00l-0.064,224.00L0.00,288.00 
			l0.00-64.00 L 32.00,224.00 zM 64.00,416.00A64.00,64.00 1620.00 1 1 192.00,416A64.00,64.00 1620.00 1 1 64.00,416z" horiz-adv-x="256"  />
<glyph unicode="&#x30;" d="M0.00-32.00l0.00,512.00 l 614.00,0.00 l0.00-512.00 l-614.00,0.00 zM 102.00,70.00l 410.00,0.00 l0.00,308.00 l-410.00,0.00 l0.00-308.00 z" horiz-adv-x="614" />
<glyph unicode="&#x31;" d="M0.00,378.00l0.00,102.00 l 205.00,0.00 l0.00-410.00 l0.00-102.00 l-103.00,0.00 l0.00,102.00 l0.00,308.00 l-102.00,0.00 z" horiz-adv-x="204" />
<glyph unicode="&#x32;" d="M0.00-32.00l0.00,307.00 l 512.00,0.00 l0.00,103.00 l-512.00,0.00 l0.00,102.00 l 614.00,0.00 l0.00-307.00 l-512.00,0.00 l0.00-103.00 l 512.00,0.00 l0.00-102.00 l-614.00,0.00 z" horiz-adv-x="614" />
<glyph unicode="&#x33;" d="M0.00-32.00l0.00,102.00 l 512.00,0.00 l0.00,103.00 l-512.00,0.00 l0.00,102.00 l 512.00,0.00 l0.00,103.00 l-512.00,0.00 l0.00,102.00 l 614.00,0.00 l0.00-512.00 l-614.00,0.00 z" horiz-adv-x="614" />
<glyph unicode="&#x34;" d="M0.00,173.00l0.00,307.00 l 102.00,0.00 l0.00-205.00 l 410.00,0.00 l0.00,205.00 l 102.00,0.00 l0.00-512.00 l-102.00,0.00 l0.00,205.00 l-512.00,0.00 z" horiz-adv-x="614" />
<glyph unicode="&#x35;" d="M0.00-32.00l0.00,102.00 l 512.00,0.00 l0.00,103.00 l-512.00,0.00 l0.00,307.00 l 614.00,0.00 l0.00-102.00 l-512.00,0.00 l0.00-103.00 l 512.00,0.00 l0.00-307.00 l-614.00,0.00 z" horiz-adv-x="614" />
<glyph unicode="&#x36;" d="M0.00-32.00l0.00,512.00 l 614.00,0.00 l0.00-102.00 l-512.00,0.00 l0.00-103.00 l 512.00,0.00 l0.00-307.00 l-614.00,0.00 zM 102.00,70.00l 410.00,0.00 l0.00,103.00 l-410.00,0.00 l0.00-103.00 z" horiz-adv-x="614" />
<glyph unicode="&#x37;" d="M0.00,378.00l0.00,102.00 l 614.00,0.00 l0.00-512.00 l-102.00,0.00 l0.00,410.00 l-512.00,0.00 z" horiz-adv-x="614" />
<glyph unicode="&#x55;" d="M0.00-32.00l0.00,512.00 l 102.00,0.00 l0.00-410.00 l 410.00,0.00 l0.00,410.00 l 102.00,0.00 l0.00-512.00 l-614.00,0.00 z" horiz-adv-x="614" />
<glyph unicode="&#x54;" d="M0.00,378.00l0.00,102.00 l 614.00,0.00 l0.00-102.00 l-261.00,0.00 l0.00-410.00 l-103.00,0.00 l0.00,410.00 l-250.00,0.00 z" horiz-adv-x="614" />
<glyph unicode="&#x53;" d="M0.00-32.00l0.00,102.00 l 512.00,0.00 l0.00,103.00 l-512.00,0.00 l0.00,307.00 l 614.00,0.00 l0.00-102.00 l-512.00,0.00 l0.00-103.00 l 512.00,0.00 l0.00-307.00 l-614.00,0.00 z" horiz-adv-x="614" />
<glyph unicode="&#x52;" d="M0.00-32.00l0.00,512.00 l 614.00,0.00 l0.00-205.00 l-102.00,0.00 l0.00-102.00 l 102.00,0.00 l0.00-205.00 l-102.00,0.00 l0.00,205.00 l-410.00,0.00 l0.00-205.00 l-102.00,0.00 zM 102.00,275.00l 410.00,0.00 l0.00,103.00 l-410.00,0.00 l0.00-103.00 z" horiz-adv-x="614" />
<glyph unicode="&#x51;" d="M0.00-32.00l0.00,512.00 l 614.00,0.00 l0.00-512.00 l-614.00,0.00 zM 102.00,70.00l 148.00,0.00 l0.00,103.00 l 103.00,0.00 l0.00-103.00 l 159.00,0.00 l0.00,308.00 l-410.00,0.00 l0.00-308.00 z" horiz-adv-x="614" />
<glyph unicode="&#x50;" d="M0.00-32.00l0.00,512.00 l 614.00,0.00 l0.00-307.00 l-512.00,0.00 l0.00-205.00 l-102.00,0.00 zM 102.00,275.00l 410.00,0.00 l0.00,103.00 l-410.00,0.00 l0.00-103.00 z" horiz-adv-x="614" />
<glyph unicode="&#x4f;" d="M0.00-32.00l0.00,512.00 l 614.00,0.00 l0.00-512.00 l-614.00,0.00 zM 102.00,70.00l 410.00,0.00 l0.00,308.00 l-410.00,0.00 l0.00-308.00 z" horiz-adv-x="614" />
<glyph unicode="&#x4e;" d="M0.00-32.00l0.00,512.00 l 614.00,0.00 l0.00-512.00 l-102.00,0.00 l0.00,410.00 l-410.00,0.00 l0.00-410.00 l-102.00,0.00 z" horiz-adv-x="614" />
<glyph unicode="&#x4d;" d="M0.00-32.00l0.00,512.00 l 614.00,0.00 l0.00-512.00 l-102.00,0.00 l0.00,410.00 l-159.00,0.00 l0.00-410.00 l-103.00,0.00 l0.00,410.00 l-148.00,0.00 l0.00-410.00 l-102.00,0.00 z" horiz-adv-x="614" />
<glyph unicode="&#x4c;" d="M0.00-32.00l0.00,512.00 l 102.00,0.00 l0.00-410.00 l 512.00,0.00 l0.00-102.00 l-614.00,0.00 z" horiz-adv-x="614" />
<glyph unicode="&#x4b;" d="M0.00-32.00l0.00,512.00 l 102.00,0.00 l0.00-205.00 l 410.00,0.00 l0.00,205.00 l 102.00,0.00 l0.00-205.00 l-102.00,0.00 l0.00-102.00 l 102.00,0.00 l0.00-205.00 l-102.00,0.00 l0.00,205.00 l-410.00,0.00 l0.00-205.00 l-102.00,0.00 z" horiz-adv-x="614" />
<glyph unicode="&#x4a;" d="M0.00-32.00l0.00,205.00 l 102.00,0.00 l0.00-103.00 l 410.00,0.00 l0.00,410.00 l 102.00,0.00 l0.00-512.00 l-614.00,0.00 z" horiz-adv-x="614" />
<glyph unicode="&#x49;" d="M0.00-32.00l0.00,512.00 l 102.00,0.00 l0.00-512.00 l-102.00,0.00 z" horiz-adv-x="102" />
<glyph unicode="&#x48;" d="M0.00-32.00l0.00,512.00 l 102.00,0.00 l0.00-205.00 l 410.00,0.00 l0.00,205.00 l 102.00,0.00 l0.00-512.00 l-102.00,0.00 l0.00,205.00 l-410.00,0.00 l0.00-205.00 l-102.00,0.00 z" horiz-adv-x="614" />
<glyph unicode="&#x47;" d="M0.00-32.00l0.00,512.00 l 614.00,0.00 l0.00-102.00 l-512.00,0.00 l0.00-308.00 l 410.00,0.00 l0.00,103.00 l-307.00,0.00 l0.00,102.00 l 409.00,0.00 l0.00-307.00 l-614.00,0.00 z" horiz-adv-x="614" />
<glyph unicode="&#x46;" d="M0.00-32.00l0.00,512.00 l 614.00,0.00 l0.00-102.00 l-512.00,0.00 l0.00-103.00 l 512.00,0.00 l0.00-102.00 l-512.00,0.00 l0.00-205.00 l-102.00,0.00 z" horiz-adv-x="614" />
<glyph unicode="&#x45;" d="M0.00-32.00l0.00,512.00 l 614.00,0.00 l0.00-102.00 l-512.00,0.00 l0.00-103.00 l 512.00,0.00 l0.00-102.00 l-512.00,0.00 l0.00-103.00 l 512.00,0.00 l0.00-102.00 l-614.00,0.00 z" horiz-adv-x="614" />
<glyph unicode="&#x44;" d="M0.00-32.00l0.00,512.00 l 512.00,0.00 l0.00-102.00 l 102.00,0.00 l0.00-410.00 l-614.00,0.00 zM 102.00,70.00l 410.00,0.00 l0.00,308.00 l-410.00,0.00 l0.00-308.00 z" horiz-adv-x="614" />
<glyph unicode="&#x43;" d="M0.00-32.00l0.00,512.00 l 614.00,0.00 l0.00-102.00 l-512.00,0.00 l0.00-308.00 l 512.00,0.00 l0.00-102.00 l-614.00,0.00 z" horiz-adv-x="614" />
<glyph unicode="&#x42;" d="M0.00-32.00l0.00,512.00 l 512.00,0.00 l0.00-205.00 l 102.00,0.00 l0.00-307.00 l-614.00,0.00 zM 102.00,70.00l 410.00,0.00 l0.00,103.00 l-410.00,0.00 l0.00-103.00 zM 102.00,275.00l 308.00,0.00 l0.00,103.00 l-308.00,0.00 l0.00-103.00 z" horiz-adv-x="614" />
<glyph unicode="&#x41;" d="M0.00-32.00l0.00,512.00 l 614.00,0.00 l0.00-512.00 l-102.00,0.00 l0.00,102.00 l-410.00,0.00 l0.00-102.00 l-102.00,0.00 zM 102.00,173.00l 410.00,0.00 l0.00,205.00 l-410.00,0.00 l0.00-205.00 z" horiz-adv-x="614" />
<glyph unicode="&#x39;" d="M0.00,173.00l0.00,307.00 l 614.00,0.00 l0.00-512.00 l-102.00,0.00 l0.00,205.00 l-512.00,0.00 zM 102.00,275.00l 410.00,0.00 l0.00,103.00 l-410.00,0.00 l0.00-103.00 z" horiz-adv-x="614" />
<glyph unicode="&#x38;" d="M0.00-32.00l0.00,512.00 l 614.00,0.00 l0.00-512.00 l-614.00,0.00 zM 102.00,70.00l 410.00,0.00 l0.00,103.00 l-410.00,0.00 l0.00-103.00 zM 102.00,275.00l 410.00,0.00 l0.00,103.00 l-410.00,0.00 l0.00-103.00 z" horiz-adv-x="614" />
<glyph unicode="&#x56;" d="M0.00,70.00l0.00,410.00 l 102.00,0.00 l0.00-410.00 l 410.00,0.00 l0.00,410.00 l 102.00,0.00 l0.00-410.00 l-102.00,0.00 l0.00-102.00 l-410.00,0.00 l0.00,102.00 l-102.00,0.00 z" horiz-adv-x="614" />
<glyph unicode="&#x58;" d="M0.00-32.00l0.00,205.00 l 102.00,0.00 l0.00,102.00 l-102.00,0.00 l0.00,205.00 l 102.00,0.00 l0.00-205.00 l 410.00,0.00 l0.00,205.00 l 102.00,0.00 l0.00-205.00 l-102.00,0.00 l0.00-102.00 l 102.00,0.00 l0.00-205.00 l-102.00,0.00 l0.00,205.00 l-410.00,0.00 l0.00-205.00 l-102.00,0.00 z" horiz-adv-x="614" />
<glyph unicode="&#x59;" d="M0.00,173.00l0.00,307.00 l 102.00,0.00 l0.00-205.00 l 410.00,0.00 l0.00,205.00 l 102.00,0.00 l0.00-307.00 l-261.00,0.00 l0.00-205.00 l-103.00,0.00 l0.00,205.00 l-250.00,0.00 z" horiz-adv-x="614" />
<glyph unicode="&#x5a;" d="M0.00-32.00l0.00,307.00 l 512.00,0.00 l0.00,103.00 l-512.00,0.00 l0.00,102.00 l 614.00,0.00 l0.00-307.00 l-512.00,0.00 l0.00-103.00 l 512.00,0.00 l0.00-102.00 l-614.00,0.00 z" horiz-adv-x="614" />
<glyph unicode="&#x57;" d="M 614.40-32.00L0.00-32.00 L0.00,480.00 l 102.40,0.00 l0.00-409.60 l 159.289,0.00 L 261.689,480.00 l 102.40,0.00 l0.00-409.60 l 147.911,0.00 L 512.00,480.00 l 102.40,0.00 L 614.40-32.00 z" horiz-adv-x="614.4" />
<glyph unicode="&#xe00c;" d="M 102.40,172.80L0.00,172.80 L0.00,480.00 l 102.40,0.00 L 102.40,172.80 z M 102.40-32.00L0.00-32.00 l0.00,102.40 l 102.40,0.00 L 102.40-32.00 z" horiz-adv-x="102.4" />
<glyph unicode="&#xe00e;" d="M0.00-32.00l0.00,102.00 l 102.00,0.00 l0.00-102.00 l-102.00,0.00 zM0.00,173.00l0.00,307.00 l 102.00,0.00 l0.00-307.00 l-102.00,0.00 z" horiz-adv-x="102" />
<glyph unicode="&#x3e;" d="M 89.472,480.00L 352.00,224.00l-262.528-256.00L0.00,55.296L 173.024,224.00L0.00,392.704L 89.472,480.00z" horiz-adv-x="352"  />
<glyph unicode="&#x3c;" d="M 262.528-32.00L0.00,224.00l 262.528,256.00L 352.00,392.704L 178.976,224.00L 352.00,55.296L 262.528-32.00z" horiz-adv-x="352"  />
<glyph unicode="&#x23;" d="M 373.111,273.789L 373.123,273.789L 373.123,273.789 	zM 139.264,273.789L 139.264,273.789L 139.275,273.789 	zM 139.275,173.562L 139.264,173.562L 139.264,173.562 	zM 256.00,480.00C 114.62,480.00,0.00,365.38,0.00,224.00C0.00,82.608, 114.62-32.00, 256.00-32.00C 397.392-32.00, 512.00,82.608, 512.00,224.00
		C 512.00,365.38, 397.392,480.00, 256.00,480.00z M 206.086,106.752l-33.405-33.405l0.00-0.011L 139.264,73.335 l0.00,0.00L 105.859,73.335 l0.00,33.417 l0.00,0.00l0.00,33.417 l 33.405,33.405l 33.417,33.417l0.00-41.756 
		L 172.681,156.871 l0.00-16.703 l0.00,0.00 l0.00,0.00l 33.417,0.00 l0.00,0.00l 33.405,0.00 L 206.086,106.752z M 206.086,307.194L 206.086,307.194l-33.417,0.00l0.00,0.00 l0.00-25.054 l0.00-8.351 l0.00,0.00 l0.00-33.405 l-33.417,33.405
		l-33.405,33.405l0.00,33.417 L 105.847,374.016 l 33.405,0.00 l0.00,0.00l0.00,0.00 l 33.405,0.00 l0.00,0.00l 33.405-33.405l0.00-0.011l0.00,0.011 l 33.405-33.417L 206.086,307.194 z M 306.301,340.611L 306.301,340.611
		L 306.301,340.611l 33.417,33.405l0.00,0.00l 33.405,0.00 l 0.011,0.00 l0.00,0.00l 33.405,0.00 l0.00,0.00l0.00-33.405 l0.00-33.417 l-33.405-33.405l-33.417-33.405l0.00,33.405 l0.00,0.00l0.00,33.405 l0.00,0.00 l-33.417,0.00 l0.00,0.00 
		l-33.405,0.00 L 306.301,340.611z M 406.528,106.752L 406.528,106.752l-0.011-33.417l-33.405,0.00 l0.00,0.00l-33.417,0.00 L 339.695,73.358 l-33.405,33.405l-33.417,33.417l 33.417,0.00 l0.00,0.00
		l 33.405,0.00 l0.00,0.00l0.00,0.00L 339.695,156.871 l0.00,16.703 l0.00,0.00l0.00,33.417 l 33.417-33.417l 33.417-33.405L 406.528,106.752 zM 373.123,173.562L 373.123,173.562L 373.111,173.562 	z"  />
<glyph unicode="&#x24;" d="M 256.00,480.00C 114.62,480.00,0.00,365.38,0.00,224.00C0.00,82.608, 114.62-32.00, 256.00-32.00C 397.392-32.00, 512.00,82.608, 512.00,224.00
	C 512.00,365.38, 397.392,480.00, 256.00,480.00z M 406.335,173.892l-100.227,0.00 l0.00,0.00l0.00-100.227 l-100.227,0.00 l0.00,100.227 L 105.665,173.892 l0.00,100.227 l 100.227,0.00 l 0.011,0.00 l-0.011,0.00 L 205.892,374.335 l 100.227,0.00 l0.00-100.227 
	l-0.011,0.00 l 0.011,0.00 l0.00,0.00l 100.227,0.00 L 406.346,173.892 z"  />
<glyph unicode="&#x25;" d="M 384.239,194.918L 384.239,342.693 L 130.708,342.693 l0.00-147.775 L 257.479,95.545L 384.239,194.918z M 153.463,319.937l 205.653,0.00 l0.00-111.639 L 257.479,128.427
		l-104.016,82.239L 153.463,319.937 zM 256.00,480.00C 114.62,480.00,0.00,365.38,0.00,224.00C0.00,82.608, 114.62-32.00, 256.00-32.00C 397.392-32.00, 512.00,82.608, 512.00,224.00
		C 512.00,365.38, 397.392,480.00, 256.00,480.00z M 407.814,183.45L 257.479,65.587L 107.145,183.45L 107.145,366.256 l 300.669,0.00 L 407.814,183.45 zM 512.00,480.00"  />
<glyph unicode="&#x26;" d="M 256.00,480.00C 114.62,480.00,0.00,365.38,0.00,224.00C0.00,82.608, 114.62-32.00, 256.00-32.00C 397.392-32.00, 512.00,82.608, 512.00,224.00
	C 512.00,365.38, 397.392,480.00, 256.00,480.00z M 289.508,90.175l0.00-32.666 l-33.906,0.00 l-33.109,0.00 l0.00,32.666 l0.00,34.35 l 33.109,0.00 l0.00,0.00 l 33.906,0.00 L 289.508,90.175 z M 406.335,332.191l0.00-72.75 l0.00-68.198 
	L 289.508,191.243 l0.00-33.508 l-67.015,0.00 l0.00,33.997 l0.00,68.892 L 339.627,260.625 l0.00,66.719 L 172.385,327.344 l0.00-34.054 l0.00-32.666 l-33.428,0.00 L 105.665,260.625 L 105.665,293.291 l0.00,33.86 l0.00,33.701 l 300.669,0.00 L 406.335,332.191 z"  />
<glyph unicode="&#x27;" d="M 256.00,480.00C 114.62,480.00,0.00,365.38,0.00,224.00C0.00,82.608, 114.62-32.00, 256.00-32.00C 397.392-32.00, 512.00,82.608, 512.00,224.00
	C 512.00,365.38, 397.392,480.00, 256.00,480.00z M 129.616,68.693L 105.563,68.693 L 105.563,370.273 l 24.053,0.00 L 129.616,68.693 z M 186.357,68.693l-42.962,0.00 L 143.394,370.273 l 42.962,0.00 L 186.357,68.693 z M 311.091,68.693L 200.704,68.693 
	L 200.704,370.273 l 110.387,0.00 L 311.091,68.693 z M 368.401,68.693l-42.962,0.00 L 325.439,370.273 l 42.962,0.00 L 368.401,68.693 z M 406.232,68.693L 382.18,68.693 L 382.18,370.273 l 24.053,0.00 L 406.232,68.693 z"  />
<glyph unicode="&#x28;" d="M 163.977,92.894L 163.988,92.894L 197.393,92.894L 197.393,92.894L 230.798,126.299L 230.798,126.299L 230.798,126.299L 256.319,151.808L 281.839,126.299L 281.839,126.299L 281.839,126.299L 315.244,92.894L 315.244,92.894L 348.649,92.894L 348.661,92.894L 348.661,92.894L 382.054,92.894L 382.054,126.299L 382.054,159.716L 348.661,193.109L 348.661,193.109L 348.649,193.109L 348.661,193.109L 323.129,218.63L 348.661,244.15L 348.649,244.15L 348.661,244.15L 348.661,244.15L 382.054,277.555L 382.054,310.972L 382.054,344.377L 348.661,344.377L 348.661,344.377L 348.649,344.377L 315.244,344.377L 315.244,344.377L 281.839,310.972L 281.839,310.96L 281.839,310.972L 256.319,285.44L 230.798,310.972L 230.798,310.96L 230.798,310.972L 197.393,344.377L 197.393,344.377L 163.988,344.377L 163.977,344.377L 163.977,344.377L 130.571,344.377L 130.571,310.972L 130.571,277.555L 163.977,244.15L 163.977,244.15L 163.988,244.15L 163.977,244.15L 189.497,218.63L 163.977,193.109L 163.988,193.109L 163.977,193.109L 163.977,193.109L 130.571,159.716L 130.571,126.299L 130.571,92.894L 163.977,92.894 	zM 256.00,480.00C 114.62,480.00,0.00,365.38,0.00,224.00C0.00,82.608, 114.62-32.00, 256.00-32.00C 397.392-32.00, 512.00,82.608, 512.00,224.00
		C 512.00,365.38, 397.392,480.00, 256.00,480.00z M 406.255,69.308L 105.586,69.308 L 105.586,369.988 l 300.669,0.00 L 406.255,69.308 z"  />
<glyph unicode="&#x29;" d="M 256.00,480.00C 114.62,480.00,0.00,365.38,0.00,224.00C0.00,82.608, 114.62-32.00, 256.00-32.00C 397.392-32.00, 512.00,82.608, 512.00,224.00
	C 512.00,365.38, 397.392,480.00, 256.00,480.00z M 105.825,369.727l 100.227,0.00 l0.00-100.227 L 105.825,269.50 L 105.825,369.727 z M 239.457,69.046L 105.825,69.046 L 105.825,202.678 l 133.632,0.00 L 239.457,69.046 z M 272.862,336.321
	l 33.417,0.00 l0.00-33.417 l-33.417,0.00 L 272.862,336.321 z M 272.862,269.50l 100.227,0.00 l0.00-100.227 l-100.227,0.00 L 272.862,269.50 z M 406.505,69.046l-66.822,0.00 l0.00,66.822 l 66.822,0.00 L 406.505,69.046 z M 406.505,302.905
	l-66.822,0.00 L 339.684,369.727 l 66.822,0.00 L 406.505,302.905 z"  />
<glyph unicode="&#x2b;" d="M 172.681,302.996L 172.681,302.996L 172.681,302.996 	zM 339.706,302.996L 339.706,302.996L 339.706,302.996 	zM 256.00,480.00C 114.62,480.00,0.00,365.38,0.00,224.00C0.00,82.608, 114.62-32.00, 256.00-32.00C 397.392-32.00, 512.00,82.608, 512.00,224.00
		C 512.00,365.38, 397.392,480.00, 256.00,480.00z M 239.491,236.186L 239.491,236.186l0.00-167.037l-66.81,0.00 L 172.681,236.186 l-33.417,33.405l0.00,0.00 l0.00,0.00 l-33.405,33.405l0.00,33.405 l0.00,0.00 l0.00,0.00 l0.00,0.00
		L 105.859,369.806 l0.00,0.00l 33.405,0.00 l0.00,0.00 l0.00,0.00l 33.405,0.00 l 33.405-33.405l0.00,0.00l0.00,0.00c 0.046-0.057, 33.405-33.405, 33.405-33.405l0.00,0.00l0.00-33.405 l0.00,0.00 L 239.479,236.186 z M 406.528,336.401l-100.238,0.00 
		l0.00,0.00L 406.528,336.401 l-0.011-33.405l-33.405-33.405l0.00,0.00 l0.00,0.00l-33.417-33.405l0.00,0.00l0.00,0.00l0.00-167.037 l-66.822,0.00 L 272.873,236.186 l0.00,0.00l0.00,33.405 l0.00,33.405 l 33.417,33.405l0.00,0.00l0.00,0.00l0.00,0.00
		l 33.417,33.405l 33.405,0.00 l 0.011,0.00 l 33.417,0.00 L 406.539,336.401 z"  />
<glyph unicode="&#x2c;" d="M 372.907,173.892L 372.918,173.892L 372.918,173.892 	zM 139.071,240.714l0.00-33.417 l0.00,0.00l 233.847,0.00 l0.00,33.417 L 372.918,307.513 L 139.071,307.513 L 139.071,240.714 z M 306.108,274.108l 33.417,0.00 l0.00-33.405 l-33.417,0.00 L 306.108,274.108 z
		 M 172.487,274.108l 33.405,0.00 l0.00-33.405 L 172.487,240.703 L 172.487,274.108 zM 256.00,480.00C 114.62,480.00,0.00,365.38,0.00,224.00C0.00,82.608, 114.62-32.00, 256.00-32.00C 397.392-32.00, 512.00,82.608, 512.00,224.00
		C 512.00,365.38, 397.392,480.00, 256.00,480.00z M 406.335,173.892l-33.417,0.00 l0.00-33.417 l0.00-33.405 l-33.405,0.00 l0.00-33.417 l-33.417,0.00 l0.00,33.417 l 33.417,0.00 l0.00,33.405 l-33.417,0.00 l0.00,33.417 l 0.011,0.00 
		l-100.25,0.00 l 0.011,0.00 l0.00-33.417 L 172.487,140.476 l0.00-33.405 l 33.405,0.00 l0.00-33.417 L 172.487,73.654 l0.00,33.417 l-33.417,0.00 l0.00,33.405 l0.00,33.417 L 105.665,173.892 l0.00,33.417 l0.00,33.417 L 105.665,307.513 l0.00,0.00l0.00,33.417 l 66.822,0.00 L 172.487,374.335 
		l 33.405,0.00 l0.00-33.405 l 100.227,0.00 L 306.119,374.335 l 33.417,0.00 l0.00-33.405 l 33.405,0.00 l 33.417,0.00 l0.00-33.417 l0.00,0.00l0.00-66.81 l0.00,0.00l0.00-33.417 l0.00,0.00L 406.357,173.892 z"  />
<glyph unicode="&#x2d;" d="M 139.082,107.082l 233.836,0.00 L 372.918,340.918 L 139.082,340.918 L 139.082,107.082 z M 205.892,274.108l 100.227,0.00 l0.00-100.227 l-100.227,0.00 L 205.892,274.108 zM 256.00,480.00C 114.62,480.00,0.00,365.38,0.00,224.00C0.00,82.608, 114.62-32.00, 256.00-32.00C 397.392-32.00, 512.00,82.608, 512.00,224.00
		C 512.00,365.38, 397.392,480.00, 256.00,480.00z M 406.335,107.082L 406.335,107.082l0.00-33.405 L 105.665,73.677 l0.00,33.405 L 105.665,340.918 l0.00,4.176 L 105.665,374.323 l 300.669,0.00 l0.00-29.23 l0.00,0.00L 406.335,107.082 z"  />
<glyph unicode="&#x2e;" d="M 306.108,140.476L 339.524,140.476L 339.524,107.071L 306.108,107.071zM 305.88,173.892L 305.869,173.892L 272.93,173.892L 272.93,173.892L 272.714,173.892L 272.714,140.476L 306.108,140.476L 306.108,173.892 	zM 172.248,173.892L 172.248,173.892L 139.31,173.892L 139.31,173.892L 139.071,173.892L 139.071,140.476L 172.487,140.476L 172.487,173.892 	zM 239.297,140.476L 272.703,140.476L 272.703,107.071L 239.297,107.071zM 256.00,480.00C 114.62,480.00,0.00,365.38,0.00,224.00C0.00,82.608, 114.62-32.00, 256.00-32.00C 397.392-32.00, 512.00,82.608, 512.00,224.00
		C 512.00,365.38, 397.392,480.00, 256.00,480.00z M 406.335,140.476l-33.405,0.00 l0.00-33.405 l 33.405,0.00 l0.00-33.417 l-33.405,0.00 l0.00,33.417 l-33.417,0.00 l0.00-33.417 l-33.417,0.00 l0.00,33.417 l-33.405,0.00 l0.00-33.417 
		l-33.417,0.00 l0.00,33.417 l-33.417,0.00 l0.00,33.405 l 33.417,0.00 l0.00,33.417 l-0.239,0.00 l0.00,0.00 l-32.927,0.00 l0.00,0.00 l-0.239,0.00 l0.00-33.417 L 172.487,140.476 l0.00-33.405 l 33.405,0.00 l0.00-33.417 L 172.487,73.654 l0.00,33.417 l-33.417,0.00 l0.00-33.417 
		L 105.665,73.654 l0.00,33.417 l 33.405,0.00 l0.00,33.405 L 105.665,140.476 l0.00,33.417 l0.00,0.00 l0.00,0.00 L 105.665,374.335 l 300.669,0.00 l0.00-200.442 l0.00,0.00L 406.335,140.476 zM 372.702,173.892L 372.69,173.892L 339.752,173.892L 339.752,173.892L 339.524,173.892L 339.524,140.476L 372.929,140.476L 372.929,173.892 	z"  />
<glyph unicode="&#x2f;" d="M 372.918,207.297L 372.918,207.297L 372.929,207.297 	zM 272.714,307.524L 272.714,307.513L 272.714,307.524 	zM 256.00,480.00C 114.62,480.00,0.00,365.38,0.00,224.00C0.00,82.608, 114.62-32.00, 256.00-32.00C 397.392-32.00, 512.00,82.608, 512.00,224.00
		C 512.00,365.38, 397.392,480.00, 256.00,480.00z M 239.297,374.335l 33.417,0.00 l 33.405,0.00 l0.00,0.00l 33.417,0.00 l 33.417-33.405l-33.417,0.00 l0.00,0.00l-33.417,0.00 l0.00,0.00l0.00-25.054 l0.00-8.351 l0.00,0.00 l0.00-33.405 
		l-33.405,33.405l-33.417,33.417L 239.297,374.335 z M 272.714,207.297L 272.714,207.297L 272.714,207.297l0.00-33.417 l0.00-33.417 l-33.417,33.417l-33.417,33.417l0.00,33.417 
		l0.00,8.34 l0.00,25.065 l 33.405,0.00 l0.00,0.00 l 33.417,0.00 l-0.011,0.00l 0.011,0.00l 33.405-33.417l0.00,0.00l0.00,0.00l 33.417-33.405L 297.756,207.297 l0.00,0.00L 272.714,207.297 z M 105.665,340.929L 105.665,340.929
		L 105.665,374.335 l0.00,0.00l 33.405,0.00 l0.00,0.00 l0.00,0.00l 33.405,0.00 l 33.405-33.405l 33.405-33.417l-33.405,0.00 l0.00,0.00 L 172.487,307.513 l0.00,0.00 l0.00-33.405 l0.00-33.417 l-33.417,33.417L 105.665,307.513L 105.665,340.929 z
		 M 139.082,173.892L 139.082,173.892l0.00-33.417 l0.00-33.405 l-33.417,33.405l0.00,33.417 l0.00,33.417 l0.00,0.00 l0.00,0.00 l0.00,0.00l0.00,33.417 l 33.417,0.00 l 33.405-33.417l0.00-0.011 l0.00,0.011
		l 33.405-33.417l-41.756,0.00 l0.00,0.00L 139.082,173.892 z M 239.297,140.476l 33.417-33.405l 33.405-33.417l-33.405,0.00 l0.00,0.00l-33.417,0.00 l0.00,0.00l-33.405,0.00 l0.00,0.00 l-33.405,0.00 l0.00,33.417 l0.00,0.00l0.00,33.405 
		l 33.405,0.00 l0.00,0.00 L 239.297,140.476  M 406.335,107.082l-33.405,0.00 l0.00-33.417 l0.00,0.00l-0.011,0.00 l-33.405,0.00 l0.00,0.00l-33.417,33.417l0.00,33.405 l0.00,33.417 l 33.405,0.00 l 0.011,0.00 l 33.405,0.00 l 0.011,0.00 
		l 33.405-33.417L 406.335,107.082 z M 406.335,215.66l0.00-8.351 l0.00,0.00l0.00-33.417 l-33.417,33.417l-33.417,33.405l0.00,33.417 l 0.011,0.00 L 339.513,274.13 l 0.011,0.00 l0.00,33.417 l 33.405,0.00 l 0.011,0.00 
		l 33.405,0.00 l0.00-33.417 l0.00,0.00l0.00-33.417 l0.00,0.00L 406.346,215.66 z"  />
<glyph unicode="&#x3b;" d="M 139.071,274.108L 205.892,274.108L 205.892,240.691L 139.071,240.691zM 310.283,274.108L 372.918,274.108L 372.918,240.691L 310.283,240.691zM 256.00,480.00C 114.62,480.00,0.00,365.38,0.00,224.00C0.00,82.608, 114.62-32.00, 256.00-32.00C 397.392-32.00, 512.00,82.608, 512.00,224.00
		C 512.00,365.38, 397.392,480.00, 256.00,480.00z M 372.918,374.335c 18.455,0.00, 33.417-14.95, 33.417-33.405l0.00-66.822 l0.00-33.417 l0.00-33.405 c0.00-18.455-14.95-33.417-33.417-33.417
		l-33.405,0.00 l0.00-66.81 l0.00-33.417 l-33.417,0.00 l0.00,33.417 l-33.417,0.00 l0.00-33.417 l-33.405,0.00 l0.00,33.417 l-33.405,0.00 l0.00-33.417 l-33.417,0.00 l0.00,33.417 l0.00,66.81 l-33.405,0.00 l0.00-0.102 l0.00,0.00 l0.00,0.102 
		c-18.455,0.00-33.405,14.95-33.405,33.417l0.00,33.405 l0.00,33.417 l0.00,66.822 c0.00,18.455, 14.95,33.405, 33.405,33.405 M 139.071,374.335l 233.847,0.00 "  />
<glyph unicode="&#x25a3;" d="M 164.00-4.416c-30.016,0.00-54.432,23.52-54.432,52.48c0.00,28.896, 24.416,52.448, 54.432,52.448s 54.432-23.52, 54.432-52.448
		C 218.40,19.136, 193.984-4.416, 164.00-4.416z M 164.00,68.512c-12.352,0.00-22.432-9.152-22.432-20.448s 10.048-20.48, 22.432-20.48
		s 22.432,9.184, 22.432,20.48S 176.352,68.512, 164.00,68.512zM 318.40,412.032c0.00,0.00, 0.032,40.16-19.232,58.56C 292.512,476.96, 284.32,480.00, 274.88,480.00L 168.32,480.00 L 150.624,480.00 l-106.56,0.00 
	c-9.44,0.00-17.632-3.104-24.32-9.472C 0.512,452.16, 0.512,412.32, 0.544,412.32l 0.416-0.192c0.00,0.00-0.928-1.184-0.928-1.344l0.00-418.624 
	C0.00-23.168, 13.856-32.00, 30.016-32.00l 259.04,0.00 C 305.248-32.00, 320.00-23.168, 320.00-7.808L 320.00,410.816 c0.00,0.16-0.704,1.216-0.704,1.216L 318.40,412.032 z M 26.688,463.776
	c 4.832,4.64, 10.528,7.168, 17.376,7.168l 106.56,0.00 L 168.32,470.944 l 106.56,0.00 c 6.848,0.00, 12.544-2.56, 17.376-7.168c 7.808-7.424, 11.904-19.328, 14.016-29.952
	C 301.44,437.152, 295.488,439.232, 289.056,439.232L 30.016,439.232 c-6.496,0.00-12.48-2.08-17.376-5.472C 14.816,444.384, 18.88,456.32, 26.688,463.776z M 310.432-6.624
	c0.00-10.336-8.96-16.32-19.872-16.32L 30.688-22.944 c-10.944,0.00-21.152,5.984-21.152,16.32L 9.536,411.136 c0.00,10.336, 10.208,19.008, 21.152,19.008L 290.56,430.144 
	c 10.912,0.00, 19.872-8.672, 19.872-19.008L 310.432-6.624 zM 274.656,117.536L 45.376,117.536 c-9.216,0.00-16.704,7.104-16.704,15.84L 28.672,396.16 c0.00,8.736, 7.488,15.872, 16.704,15.872l 229.28,0.00 
	c 9.216,0.00, 16.704-7.104, 16.704-15.872l0.00-262.784 C 291.328,124.64, 283.872,117.536, 274.656,117.536z M 45.376,407.488c-6.592,0.00-11.936-5.088-11.936-11.328
	l0.00-262.784 c0.00-6.24, 5.344-11.328, 11.936-11.328l 229.28,0.00 c 6.592,0.00, 11.936,5.056, 11.936,11.328L 286.592,396.16 c0.00,6.24-5.344,11.328-11.936,11.328L 45.376,407.488 zM 277.024,135.744c0.00-2.56-2.176-4.64-4.864-4.64L 47.872,131.104 c-2.688,0.00-4.864,2.048-4.864,4.64L 43.008,393.824 
	c0.00,2.56, 2.176,4.64, 4.864,4.64l 224.288,0.00 c 2.688,0.00, 4.864-2.048, 4.864-4.64L 277.024,135.744 z" horiz-adv-x="320"  />
<glyph unicode="&#x21a9;" d="M 512.031,293.896L 226.444,293.896L 325.818,395.396L 242.983,480.00L0.00,231.835L 242.983-16.33L 325.818,68.259L 226.459,169.744L 512.031,169.744L 512.031-32.00L 636.121-32.00L 636.121,169.744L 636.121,293.896 z" horiz-adv-x="636.1212121212121"  />
<glyph unicode="&#x233d;" d="M 104.251,70.361l 104.251,0.00 L 208.502-32.00 L 104.251-32.00 L 104.251,70.361 zM 208.502,111.281L 104.251,111.281 L 104.251,152.202 c0.00,0.00-1.457,42.299, 41.708,81.881C 189.086,273.625, 250.21,306.314, 250.21,336.404c0.00,30.129-24.655,61.401-62.543,61.401
		c-37.888,0.00-50.924,0.00-62.543,0.00c-17.447,0.00-62.543-15.596-62.543-40.921L0.00,356.884 c0.00,0.00,0.00,20.165,0.00,40.921s 62.385,81.881, 125.086,81.881
		C 186.21,479.685, 354.462,493.903, 354.462,336.404c0.00-61.676-101.809-115.358-125.086-143.242C 206.06,165.238, 208.502,153.305, 208.502,111.281z" horiz-adv-x="354.46153846153845" />
<glyph unicode="&#x20;" horiz-adv-x="256" />
<glyph class="hidden" unicode="&#xf000;" d="M0,480L 512 -32L0 -32 z" horiz-adv-x="0" />
</font>
</defs>
</svg>
