# 3ds Max Wavefront OBJ Exporter v0.97b - (c)2007 guruware
# File Created: 10.12.2012 16:23:23

mtllib PaddleResize.mtl

#
# object PaddleResize
#

v  2.250010 0.000000 1.749973
v  -2.250010 0.000000 1.749973
v  -2.250010 0.000000 2.249992
v  2.250010 0.000000 2.249992
v  2.250010 1.000000 1.749973
v  -2.250010 1.000000 1.749973
v  -2.250010 1.000000 2.249992
v  2.250010 1.000000 2.249992
v  2.250010 0.000000 -2.249992
v  -2.249974 0.000000 -2.249992
v  -2.249974 0.000000 -0.249975
v  2.250010 0.000000 -0.249975
v  2.250010 1.000000 -2.249992
v  -2.249974 1.000000 -2.249992
v  -2.249974 1.000000 -0.249975
v  2.250010 1.000000 -0.249975
v  2.250010 0.000000 0.249973
v  -2.249974 0.000000 0.249973
v  -2.249974 0.000000 1.187525
v  2.250010 0.000000 1.187525
v  2.250010 1.000000 0.249973
v  -2.249974 1.000000 0.249973
v  -2.249974 1.000000 1.187525
v  2.250010 1.000000 1.187525
# 24 vertices

vn 0.000000 0.000000 -1.000000
vn 0.000000 0.000000 -1.000000
vn 0.000000 0.000000 -1.000000
vn 0.000000 0.000000 -1.000000
vn -1.000000 0.000000 -0.000000
vn -1.000000 0.000000 -0.000000
vn -1.000000 0.000000 -0.000000
vn -1.000000 0.000000 -0.000000
vn 0.000000 0.000000 1.000000
vn 0.000000 0.000000 1.000000
vn 0.000000 0.000000 1.000000
vn 0.000000 0.000000 1.000000
vn 1.000000 0.000000 -0.000000
vn 1.000000 0.000000 -0.000000
vn 1.000000 0.000000 -0.000000
vn 1.000000 0.000000 -0.000000
vn 0.000000 0.000000 -1.000000
vn 0.000000 0.000000 -1.000000
vn 0.000000 0.000000 -1.000000
vn 0.000000 0.000000 -1.000000
vn -1.000000 0.000000 -0.000000
vn -1.000000 0.000000 -0.000000
vn -1.000000 0.000000 -0.000000
vn -1.000000 0.000000 -0.000000
vn 0.000000 0.000000 1.000000
vn 0.000000 0.000000 1.000000
vn 0.000000 0.000000 1.000000
vn 0.000000 0.000000 1.000000
vn 1.000000 0.000000 -0.000000
vn 1.000000 0.000000 -0.000000
vn 1.000000 0.000000 -0.000000
vn 1.000000 0.000000 -0.000000
vn 0.000000 0.000000 -1.000000
vn 0.000000 0.000000 -1.000000
vn 0.000000 0.000000 -1.000000
vn 0.000000 0.000000 -1.000000
vn -1.000000 0.000000 -0.000000
vn -1.000000 0.000000 -0.000000
vn -1.000000 0.000000 -0.000000
vn -1.000000 0.000000 -0.000000
vn 0.000000 0.000000 1.000000
vn 0.000000 0.000000 1.000000
vn 0.000000 0.000000 1.000000
vn 0.000000 0.000000 1.000000
vn 1.000000 0.000000 -0.000000
vn 1.000000 0.000000 -0.000000
vn 1.000000 0.000000 -0.000000
vn 1.000000 0.000000 -0.000000
vn 0.000000 -1.000000 -0.000000
vn 0.000000 -1.000000 -0.000000
vn 0.000000 -1.000000 -0.000000
vn 0.000000 -1.000000 -0.000000
vn 0.000000 -1.000000 -0.000000
vn 0.000000 -1.000000 -0.000000
vn 0.000000 -1.000000 -0.000000
vn 0.000000 -1.000000 -0.000000
vn 0.000000 -1.000000 -0.000000
vn 0.000000 -1.000000 -0.000000
vn 0.000000 -1.000000 -0.000000
vn 0.000000 -1.000000 -0.000000
vn 0.000000 1.000000 -0.000000
vn 0.000000 1.000000 -0.000000
vn 0.000000 1.000000 -0.000000
vn 0.000000 1.000000 -0.000000
vn 0.000000 1.000000 -0.000000
vn 0.000000 1.000000 -0.000000
vn 0.000000 1.000000 -0.000000
vn 0.000000 1.000000 -0.000000
vn 0.000000 1.000000 -0.000000
vn 0.000000 1.000000 -0.000000
vn 0.000000 1.000000 -0.000000
vn 0.000000 1.000000 -0.000000
# 72 vertex normals

g PaddleResize
usemtl wire_008110135
f 6//1 5//2 1//3 2//4 
f 7//5 6//6 2//7 3//8 
f 8//9 7//10 3//11 4//12 
f 5//13 8//14 4//15 1//16 
f 14//17 13//18 9//19 10//20 
f 15//21 14//22 10//23 11//24 
f 16//25 15//26 11//27 12//28 
f 13//29 16//30 12//31 9//32 
f 22//33 21//34 17//35 18//36 
f 23//37 22//38 18//39 19//40 
f 24//41 23//42 19//43 20//44 
f 21//45 24//46 20//47 17//48 
f 3//49 2//50 1//51 4//52 
f 11//53 10//54 9//55 12//56 
f 19//57 18//58 17//59 20//60 
f 5//61 6//62 7//63 8//64 
f 13//65 14//66 15//67 16//68 
f 21//69 22//70 23//71 24//72 
# 18 polygons

