# 3ds Max Wavefront OBJ Exporter v0.97b - (c)2007 guruware
# File Created: 10.12.2012 16:23:57

mtllib GhostBall.mtl

#
# object GhostBall
#

v  2.250095 0.000000 -2.249992
v  -2.250094 0.000000 -2.249992
v  -2.250094 0.000000 2.249992
v  2.250095 0.000000 2.249992
v  2.250095 1.000000 -2.249992
v  -2.250094 1.000000 -2.249992
v  -2.250094 1.000000 2.249992
v  2.250095 1.000000 2.249992
v  -1.749935 0.000000 -1.749973
v  1.749938 0.000000 -1.749973
v  1.749938 0.000000 1.750002
v  -1.749935 0.000000 1.750002
v  -1.749935 1.000000 -1.749973
v  1.749938 1.000000 -1.749973
v  1.749938 1.000000 1.750002
v  -1.749935 1.000000 1.750002
v  0.750031 0.000000 -0.750000
v  -0.750033 0.000000 -0.750000
v  -0.750033 0.000000 0.750000
v  0.750031 0.000000 0.750000
v  0.750031 1.000000 -0.750000
v  -0.750033 1.000000 -0.750000
v  -0.750033 1.000000 0.750000
v  0.750031 1.000000 0.750000
# 24 vertices

vn 0.000000 0.000000 -1.000000
vn 0.000000 0.000000 -1.000000
vn 0.000000 0.000000 -1.000000
vn 0.000000 0.000000 -1.000000
vn -1.000000 0.000000 -0.000000
vn -1.000000 0.000000 -0.000000
vn -1.000000 0.000000 -0.000000
vn -1.000000 0.000000 -0.000000
vn 0.000000 0.000000 1.000000
vn 0.000000 0.000000 1.000000
vn 0.000000 0.000000 1.000000
vn 0.000000 0.000000 1.000000
vn 1.000000 0.000000 -0.000000
vn 1.000000 0.000000 -0.000000
vn 1.000000 0.000000 -0.000000
vn 1.000000 0.000000 -0.000000
vn 0.000000 0.000000 1.000000
vn 0.000000 0.000000 1.000000
vn 0.000000 0.000000 1.000000
vn 0.000000 0.000000 1.000000
vn -1.000000 0.000000 -0.000000
vn -1.000000 0.000000 -0.000000
vn -1.000000 0.000000 -0.000000
vn -1.000000 0.000000 -0.000000
vn 0.000000 0.000000 -1.000000
vn 0.000000 0.000000 -1.000000
vn 0.000000 0.000000 -1.000000
vn 0.000000 0.000000 -1.000000
vn 1.000000 0.000000 -0.000000
vn 1.000000 0.000000 -0.000000
vn 1.000000 0.000000 -0.000000
vn 1.000000 0.000000 -0.000000
vn 0.000000 0.000000 -1.000000
vn 0.000000 0.000000 -1.000000
vn 0.000000 0.000000 -1.000000
vn 0.000000 0.000000 -1.000000
vn -1.000000 0.000000 -0.000000
vn -1.000000 0.000000 -0.000000
vn -1.000000 0.000000 -0.000000
vn -1.000000 0.000000 -0.000000
vn 0.000000 0.000000 1.000000
vn 0.000000 0.000000 1.000000
vn 0.000000 0.000000 1.000000
vn 0.000000 0.000000 1.000000
vn 1.000000 0.000000 -0.000000
vn 1.000000 0.000000 -0.000000
vn 1.000000 0.000000 -0.000000
vn 1.000000 0.000000 -0.000000
vn 0.000000 -1.000000 -0.000000
vn 0.000000 -1.000000 -0.000000
vn 0.000000 -1.000000 -0.000000
vn 0.000000 -1.000000 -0.000000
vn 0.000000 -1.000000 -0.000000
vn 0.000000 -1.000000 -0.000000
vn 0.000000 -1.000000 -0.000000
vn 0.000000 -1.000000 -0.000000
vn 0.000000 -1.000000 -0.000000
vn 0.000000 -1.000000 -0.000000
vn 0.000000 -1.000000 -0.000000
vn 0.000000 -1.000000 -0.000000
vn 0.000000 -1.000000 -0.000000
vn 0.000000 -1.000000 -0.000000
vn 0.000000 -1.000000 -0.000000
vn 0.000000 -1.000000 -0.000000
vn 0.000000 -1.000000 -0.000000
vn 0.000000 -1.000000 -0.000000
vn 0.000000 -1.000000 -0.000000
vn 0.000000 -1.000000 -0.000000
vn 0.000000 1.000000 -0.000000
vn 0.000000 1.000000 -0.000000
vn 0.000000 1.000000 -0.000000
vn 0.000000 1.000000 -0.000000
vn 0.000000 1.000000 -0.000000
vn 0.000000 1.000000 -0.000000
vn 0.000000 1.000000 -0.000000
vn 0.000000 1.000000 -0.000000
vn 0.000000 1.000000 -0.000000
vn 0.000000 1.000000 -0.000000
vn 0.000000 1.000000 -0.000000
vn 0.000000 1.000000 -0.000000
vn 0.000000 1.000000 -0.000000
vn 0.000000 1.000000 -0.000000
vn 0.000000 1.000000 -0.000000
vn 0.000000 1.000000 -0.000000
vn 0.000000 1.000000 -0.000000
vn 0.000000 1.000000 -0.000000
vn 0.000000 1.000000 -0.000000
vn 0.000000 1.000000 -0.000000
# 88 vertex normals

g GhostBall
usemtl wire_008110135
f 6//1 5//2 1//3 2//4 
f 7//5 6//6 2//7 3//8 
f 8//9 7//10 3//11 4//12 
f 5//13 8//14 4//15 1//16 
f 14//17 13//18 9//19 10//20 
f 15//21 14//22 10//23 11//24 
f 16//25 15//26 11//27 12//28 
f 13//29 16//30 12//31 9//32 
f 22//33 21//34 17//35 18//36 
f 23//37 22//38 18//39 19//40 
f 24//41 23//42 19//43 20//44 
f 21//45 24//46 20//47 17//48 
f 3//49 2//50 9//51 12//52 
f 3//53 12//54 11//55 4//56 
f 4//57 11//58 10//59 1//60 
f 1//61 10//62 9//63 2//64 
f 19//65 18//66 17//67 20//68 
f 6//69 7//70 16//71 13//72 
f 5//73 6//74 13//75 14//76 
f 15//77 16//78 7//79 8//80 
f 14//81 15//82 8//83 5//84 
f 21//85 22//86 23//87 24//88 
# 22 polygons

