# 3ds Max Wavefront OBJ Exporter v0.97b - (c)2007 guruware
# File Created: 03.04.2013 14:47:06

#
# object extra_shield
#

v  -1.8831 0.0000 0.6365
v  -1.8831 0.0000 -1.5751
v  1.9113 0.0000 -1.5751
v  1.9113 0.0000 0.6365
v  0.0141 0.0000 2.1238
v  -1.8831 1.0000 0.6365
v  -1.8831 1.0000 -1.5625
v  1.9113 1.0000 -1.5751
v  1.9113 1.0000 0.6365
v  0.0141 1.0000 2.1238
v  -2.2359 0.0000 0.8082
v  0.0141 0.0000 2.5721
v  2.2641 0.0000 0.8082
v  2.2641 0.0000 -1.9279
v  -2.2359 0.0000 -1.9279
v  -2.2359 1.0000 0.8082
v  0.0141 1.0000 2.5721
v  2.2641 1.0000 0.8082
v  2.2641 1.0000 -1.9279
v  -2.2351 1.0000 -1.9125
v  1.9113 0.9972 0.6365
# 21 vertices

vn 1.0000 0.0000 -0.0000
vn 1.0000 0.0000 -0.0000
vn 1.0000 0.0000 -0.0000
vn 1.0000 0.0000 -0.0000
vn 1.0000 0.0000 -0.0000
vn 1.0000 0.0000 -0.0000
vn 0.0005 -0.0106 0.9999
vn 0.0000 -0.0127 0.9999
vn 0.0028 -0.0021 1.0000
vn 0.0028 -0.0021 1.0000
vn 0.0033 0.0000 1.0000
vn 0.0005 -0.0106 0.9999
vn -1.0000 0.0000 -0.0000
vn -1.0000 0.0000 -0.0000
vn -1.0000 0.0000 -0.0000
vn -1.0000 0.0000 -0.0000
vn -1.0000 0.0000 -0.0000
vn -1.0000 0.0000 -0.0000
vn -1.0000 0.0000 -0.0000
vn -1.0000 0.0000 -0.0000
vn -1.0000 0.0000 -0.0000
vn -0.6170 0.0000 -0.7870
vn -0.6170 0.0000 -0.7870
vn -0.6170 0.0000 -0.7870
vn -0.6170 0.0000 -0.7870
vn -0.6170 0.0000 -0.7870
vn -0.6170 0.0000 -0.7870
vn -0.6170 0.0000 -0.7870
vn -0.6170 0.0000 -0.7870
vn -0.6170 0.0000 -0.7870
vn 0.6170 0.0000 -0.7870
vn 0.6170 0.0000 -0.7870
vn 0.6170 0.0000 -0.7870
vn 0.6170 0.0000 -0.7870
vn 0.6170 0.0000 -0.7870
vn 0.6170 0.0000 -0.7870
vn -0.6170 0.0000 0.7870
vn -0.6170 0.0000 0.7870
vn -0.6170 0.0000 0.7870
vn -0.6170 0.0000 0.7870
vn -0.6170 0.0000 0.7870
vn -0.6170 0.0000 0.7870
vn 0.6170 0.0000 0.7870
vn 0.6170 0.0000 0.7870
vn 0.6170 0.0000 0.7870
vn 0.6170 0.0000 0.7870
vn 0.6170 0.0000 0.7870
vn 0.6170 0.0000 0.7870
vn 1.0000 0.0000 -0.0000
vn 1.0000 0.0000 -0.0000
vn 1.0000 0.0000 -0.0000
vn 1.0000 0.0000 -0.0000
vn 1.0000 0.0000 -0.0000
vn 1.0000 0.0000 -0.0000
vn -0.0005 0.0021 -1.0000
vn 0.0000 0.0000 -1.0000
vn -0.0029 0.0133 -0.9999
vn -0.0029 0.0133 -0.9999
vn -0.0034 0.0154 -0.9999
vn -0.0005 0.0021 -1.0000
vn -1.0000 0.0002 -0.0002
vn -1.0000 0.0000 -0.0003
vn -1.0000 0.0006 -0.0001
vn -1.0000 0.0006 -0.0001
vn -1.0000 0.0008 -0.0000
vn -1.0000 0.0002 -0.0002
vn 0.0000 -1.0000 -0.0000
vn 0.0000 -1.0000 -0.0000
vn 0.0000 -1.0000 -0.0000
vn 0.0000 -1.0000 -0.0000
vn 0.0000 -1.0000 -0.0000
vn 0.0000 -1.0000 -0.0000
vn 0.0000 -1.0000 -0.0000
vn 0.0000 -1.0000 -0.0000
vn 0.0000 -1.0000 -0.0000
vn 0.0000 -1.0000 -0.0000
vn 0.0000 -1.0000 -0.0000
vn 0.0000 -1.0000 -0.0000
vn 0.0000 -1.0000 -0.0000
vn 0.0000 -1.0000 -0.0000
vn 0.0000 -1.0000 -0.0000
vn 0.0000 -1.0000 -0.0000
vn 0.0000 -1.0000 -0.0000
vn 0.0000 -1.0000 -0.0000
vn 0.0000 -1.0000 -0.0000
vn 0.0000 -1.0000 -0.0000
vn 0.0000 -1.0000 -0.0000
vn 0.0000 -1.0000 -0.0000
vn 0.0000 -1.0000 -0.0000
vn 0.0000 -1.0000 -0.0000
vn 0.0000 -1.0000 -0.0000
vn 0.0000 -1.0000 -0.0000
vn 0.0000 -1.0000 -0.0000
vn 0.0000 -1.0000 -0.0000
vn 0.0000 -1.0000 -0.0000
vn 0.0000 -1.0000 -0.0000
vn 0.0000 1.0000 -0.0000
vn 0.0000 1.0000 -0.0000
vn 0.0000 1.0000 -0.0000
vn 0.0000 1.0000 -0.0000
vn 0.0000 1.0000 -0.0000
vn 0.0000 1.0000 -0.0000
vn 0.0000 1.0000 -0.0000
vn 0.0000 1.0000 -0.0000
vn 0.0000 1.0000 -0.0000
vn 0.0000 1.0000 -0.0000
vn 0.0000 1.0000 -0.0000
vn 0.0000 1.0000 -0.0000
vn 0.0000 1.0000 -0.0000
vn 0.0000 1.0000 -0.0000
vn 0.0000 1.0000 -0.0000
vn 0.0000 1.0000 -0.0000
vn 0.0000 1.0000 -0.0000
vn 0.0000 1.0000 -0.0000
vn 0.0000 1.0000 -0.0000
vn 0.0000 1.0000 -0.0000
vn 0.0000 1.0000 -0.0000
vn 0.0000 1.0000 -0.0000
vn 0.0000 1.0000 -0.0000
vn 0.0000 1.0000 -0.0000
vn 0.0000 1.0000 -0.0000
vn 0.0000 1.0000 -0.0000
vn 0.0000 1.0000 -0.0000
vn 0.0000 1.0000 -0.0000
vn 0.0000 1.0000 -0.0000
vn 0.0000 1.0000 -0.0000
# 126 vertex normals

vt 0.0788 0.4302 0.0005
vt 0.0788 0.9212 0.0005
vt 0.9212 0.9212 0.0005
vt 0.9212 0.4302 0.0005
vt 0.5000 0.1000 0.0005
vt 0.0788 0.4302 0.9995
vt 0.0788 0.9184 0.9995
vt 0.9212 0.9212 0.9995
vt 0.9212 0.4302 0.9995
vt 0.5000 0.1000 0.9995
vt 0.0005 0.3921 0.0005
vt 0.5000 0.0005 0.0005
vt 0.9995 0.3921 0.0005
vt 0.9995 0.9995 0.0005
vt 0.0005 0.9995 0.0005
vt 0.0005 0.3921 0.9995
vt 0.5000 0.0005 0.9995
vt 0.9995 0.3921 0.9995
vt 0.9995 0.9995 0.9995
vt 0.0007 0.9961 0.9995
vt 0.9212 0.4302 0.9967
# 21 texture coords

g extra_shield
s 1
f 2/2/1 7/7/2 6/6/3 
f 6/6/4 1/1/5 2/2/6 
s 4
f 7/7/7 2/2/8 3/3/9 
f 3/3/10 8/8/11 7/7/12 
s 2
f 8/8/13 3/3/14 4/4/15 
f 8/8/16 4/4/17 21/21/18 
f 8/8/19 21/21/20 9/9/21 
s 4
f 5/5/22 10/10/23 9/9/24 
f 5/5/25 9/9/26 21/21/27 
f 5/5/28 21/21/29 4/4/30 
s 2
f 10/10/31 5/5/32 1/1/33 
f 1/1/34 6/6/35 10/10/36 
s 1
f 16/16/37 11/11/38 12/12/39 
f 12/12/40 17/17/41 16/16/42 
s 4
f 17/17/43 12/12/44 13/13/45 
f 13/13/46 18/18/47 17/17/48 
s 2
f 18/18/49 13/13/50 14/14/51 
f 14/14/52 19/19/53 18/18/54 
s 4
f 19/19/55 14/14/56 15/15/57 
f 15/15/58 20/20/59 19/19/60 
s 2
f 11/11/61 16/16/62 20/20/63 
f 20/20/64 15/15/65 11/11/66 
s 16
f 11/11/67 15/15/68 2/2/69 
f 2/2/70 1/1/71 11/11/72 
f 15/15/73 14/14/74 3/3/75 
f 3/3/76 2/2/77 15/15/78 
f 3/3/79 14/14/80 13/13/81 
f 13/13/82 4/4/83 3/3/84 
f 13/13/85 12/12/86 5/5/87 
f 5/5/88 4/4/89 13/13/90 
f 5/5/91 12/12/92 11/11/93 
f 11/11/94 1/1/95 5/5/96 
s 8
f 16/16/97 17/17/98 10/10/99 
f 10/10/100 6/6/101 16/16/102 
f 20/20/103 7/7/104 8/8/105 
f 8/8/106 19/19/107 20/20/108 
s 1
f 18/18/109 19/19/110 8/8/111 
f 8/8/112 9/9/113 18/18/114 
s 16
f 18/18/115 9/9/116 10/10/117 
f 10/10/118 17/17/119 18/18/120 
s off
f 7/7/121 20/20/122 16/16/123 
f 16/16/124 6/6/125 7/7/126 
# 42 faces

#
# object Object02
#

v  0.0141 0.0000 1.6318
v  1.5355 0.0000 0.4363
v  1.5355 0.0000 -1.2345
v  -1.5425 0.0000 -1.2345
v  -1.5425 0.0000 0.4010
v  0.0141 1.0000 1.6318
v  1.5355 1.0000 0.4363
v  1.5355 1.0000 -1.2345
v  -1.5425 1.0000 -1.2345
v  -1.5425 1.0000 0.4010
# 10 vertices

vn 0.6179 0.0000 0.7863
vn 0.6179 0.0000 0.7863
vn 0.6179 0.0000 0.7863
vn 0.6179 0.0000 0.7863
vn 0.6179 0.0000 0.7863
vn 0.6179 0.0000 0.7863
vn 1.0000 0.0000 -0.0000
vn 1.0000 0.0000 -0.0000
vn 1.0000 0.0000 -0.0000
vn 1.0000 0.0000 -0.0000
vn 1.0000 0.0000 -0.0000
vn 1.0000 0.0000 -0.0000
vn 0.0000 0.0000 -1.0000
vn 0.0000 0.0000 -1.0000
vn 0.0000 0.0000 -1.0000
vn 0.0000 0.0000 -1.0000
vn 0.0000 0.0000 -1.0000
vn 0.0000 0.0000 -1.0000
vn -1.0000 0.0000 -0.0000
vn -1.0000 0.0000 -0.0000
vn -1.0000 0.0000 -0.0000
vn -1.0000 0.0000 -0.0000
vn -1.0000 0.0000 -0.0000
vn -1.0000 0.0000 -0.0000
vn -0.6202 0.0000 0.7844
vn -0.6202 0.0000 0.7844
vn -0.6202 0.0000 0.7844
vn -0.6202 0.0000 0.7844
vn -0.6202 0.0000 0.7844
vn -0.6202 0.0000 0.7844
vn 0.0000 1.0000 -0.0000
vn 0.0000 1.0000 -0.0000
vn 0.0000 1.0000 -0.0000
vn 0.0000 1.0000 -0.0000
vn 0.0000 1.0000 -0.0000
vn 0.0000 1.0000 -0.0000
vn 0.0000 1.0000 -0.0000
vn 0.0000 1.0000 -0.0000
vn 0.0000 1.0000 -0.0000
vn 0.0000 -1.0000 -0.0000
vn 0.0000 -1.0000 -0.0000
vn 0.0000 -1.0000 -0.0000
vn 0.0000 -1.0000 -0.0000
vn 0.0000 -1.0000 -0.0000
vn 0.0000 -1.0000 -0.0000
vn 0.0000 -1.0000 -0.0000
vn 0.0000 -1.0000 -0.0000
vn 0.0000 -1.0000 -0.0000
# 48 vertex normals

vt 0.5057 0.0005 0.0005
vt 0.9995 0.0005 0.4172
vt 0.9995 0.0005 0.9995
vt 0.9995 0.0005 0.9995
vt 0.5705 0.0005 0.0005
vt 0.5057 0.9995 0.0005
vt 0.9995 0.9995 0.4172
vt 0.9995 0.9995 0.9995
vt 0.9995 0.9995 0.9995
vt 0.5705 0.9995 0.0005
vt 0.4172 0.9995 0.9995
vt 0.4172 0.0005 0.9995
vt 0.0005 0.9995 0.9995
vt 0.0005 0.0005 0.9995
vt 0.0005 0.9995 0.0005
vt 0.0005 0.0005 0.0005
vt 0.0005 0.9995 0.4295
vt 0.0005 0.0005 0.4295
vt 0.9995 0.4172 0.9995
vt 0.9995 0.9995 0.9995
vt 0.0005 0.9995 0.9995
vt 0.0005 0.4295 0.9995
vt 0.5057 0.0005 0.9995
vt 0.4943 0.0005 0.0005
vt 0.9995 0.4295 0.0005
vt 0.9995 0.9995 0.0005
vt 0.0005 0.9995 0.0005
vt 0.0005 0.4172 0.0005
# 28 texture coords

g Object02
s 1
f 27/27/127 22/22/128 23/23/129 
f 23/23/130 28/28/131 27/27/132 
s 4
f 28/32/133 23/33/134 24/24/135 
f 24/24/136 29/29/137 28/32/138 
s 2
f 29/34/139 24/35/140 25/25/141 
f 25/25/142 30/30/143 29/34/144 
s 4
f 30/36/145 25/37/146 26/26/147 
f 26/26/148 31/31/149 30/36/150 
s 2
f 31/38/151 26/39/152 22/22/153 
f 22/22/154 27/27/155 31/38/156 
s off
f 30/42/157 31/43/158 27/44/159 
f 29/41/160 30/42/161 27/44/162 
f 28/40/163 29/41/164 27/44/165 
f 25/47/166 24/48/167 23/49/168 
f 26/46/169 25/47/170 23/49/171 
f 22/45/172 26/46/173 23/49/174 
# 16 faces

