# 3ds Max Wavefront OBJ Exporter v0.97b - (c)2007 guruware
# File Created: 10.12.2012 16:24:18

mtllib Multiball.mtl

#
# object Multiball
#

v  -0.249978 0.000000 0.249992
v  -2.249992 0.000000 0.249992
v  -2.249992 0.000000 2.250010
v  -0.249978 0.000000 2.250010
v  -0.249978 1.000000 0.249992
v  -2.249992 1.000000 0.249992
v  -2.249992 1.000000 2.250010
v  -0.249978 1.000000 2.250010
v  2.249992 0.000000 1.250000
v  1.250019 0.000000 1.250000
v  1.250019 0.000000 2.250010
v  2.249992 0.000000 2.250010
v  2.249992 1.000000 1.250000
v  1.250019 1.000000 1.250000
v  1.250019 1.000000 2.250010
v  2.249992 1.000000 2.250010
v  1.750039 0.000000 -0.750013
v  0.250046 0.000000 -0.750013
v  0.250046 0.000000 0.749945
v  1.750039 0.000000 0.749945
v  1.750039 1.000000 -0.750013
v  0.250046 1.000000 -0.750013
v  0.250046 1.000000 0.749945
v  1.750039 1.000000 0.749945
v  2.249992 0.000000 -2.250010
v  1.250019 0.000000 -2.250010
v  1.250019 0.000000 -1.250001
v  2.249992 0.000000 -1.250001
v  2.249992 1.000000 -2.250010
v  1.250019 1.000000 -2.250010
v  1.250019 1.000000 -1.250001
v  2.249992 1.000000 -1.250001
v  -0.749998 0.000000 -2.249974
v  -2.249992 0.000000 -2.249974
v  -2.249992 0.000000 -0.750013
v  -0.749998 0.000000 -0.750013
v  -0.749998 1.000000 -2.249974
v  -2.249992 1.000000 -2.249974
v  -2.249992 1.000000 -0.750013
v  -0.749998 1.000000 -0.750013
v  0.749995 0.000000 -1.750021
v  0.249975 0.000000 -1.750021
v  0.249975 0.000000 -1.250001
v  0.749995 0.000000 -1.250001
v  0.749995 1.000000 -1.750021
v  0.249975 1.000000 -1.750021
v  0.249975 1.000000 -1.250001
v  0.749995 1.000000 -1.250001
# 48 vertices

vn 0.000000 0.000000 -1.000000
vn 0.000000 0.000000 -1.000000
vn 0.000000 0.000000 -1.000000
vn 0.000000 0.000000 -1.000000
vn -1.000000 0.000000 -0.000000
vn -1.000000 0.000000 -0.000000
vn -1.000000 0.000000 -0.000000
vn -1.000000 0.000000 -0.000000
vn 0.000000 0.000000 1.000000
vn 0.000000 0.000000 1.000000
vn 0.000000 0.000000 1.000000
vn 0.000000 0.000000 1.000000
vn 1.000000 0.000000 -0.000000
vn 1.000000 0.000000 -0.000000
vn 1.000000 0.000000 -0.000000
vn 1.000000 0.000000 -0.000000
vn 0.000000 0.000000 -1.000000
vn 0.000000 0.000000 -1.000000
vn 0.000000 0.000000 -1.000000
vn 0.000000 0.000000 -1.000000
vn -1.000000 0.000000 -0.000000
vn -1.000000 0.000000 -0.000000
vn -1.000000 0.000000 -0.000000
vn -1.000000 0.000000 -0.000000
vn 0.000000 0.000000 1.000000
vn 0.000000 0.000000 1.000000
vn 0.000000 0.000000 1.000000
vn 0.000000 0.000000 1.000000
vn 1.000000 0.000000 -0.000000
vn 1.000000 0.000000 -0.000000
vn 1.000000 0.000000 -0.000000
vn 1.000000 0.000000 -0.000000
vn 0.000000 0.000000 -1.000000
vn 0.000000 0.000000 -1.000000
vn 0.000000 0.000000 -1.000000
vn 0.000000 0.000000 -1.000000
vn -1.000000 0.000000 -0.000000
vn -1.000000 0.000000 -0.000000
vn -1.000000 0.000000 -0.000000
vn -1.000000 0.000000 -0.000000
vn 0.000000 0.000000 1.000000
vn 0.000000 0.000000 1.000000
vn 0.000000 0.000000 1.000000
vn 0.000000 0.000000 1.000000
vn 1.000000 0.000000 -0.000000
vn 1.000000 0.000000 -0.000000
vn 1.000000 0.000000 -0.000000
vn 1.000000 0.000000 -0.000000
vn 0.000000 0.000000 -1.000000
vn 0.000000 0.000000 -1.000000
vn 0.000000 0.000000 -1.000000
vn 0.000000 0.000000 -1.000000
vn -1.000000 0.000000 -0.000000
vn -1.000000 0.000000 -0.000000
vn -1.000000 0.000000 -0.000000
vn -1.000000 0.000000 -0.000000
vn 0.000000 0.000000 1.000000
vn 0.000000 0.000000 1.000000
vn 0.000000 0.000000 1.000000
vn 0.000000 0.000000 1.000000
vn 1.000000 0.000000 -0.000000
vn 1.000000 0.000000 -0.000000
vn 1.000000 0.000000 -0.000000
vn 1.000000 0.000000 -0.000000
vn 0.000000 0.000000 -1.000000
vn 0.000000 0.000000 -1.000000
vn 0.000000 0.000000 -1.000000
vn 0.000000 0.000000 -1.000000
vn -1.000000 0.000000 -0.000000
vn -1.000000 0.000000 -0.000000
vn -1.000000 0.000000 -0.000000
vn -1.000000 0.000000 -0.000000
vn 0.000000 0.000000 1.000000
vn 0.000000 0.000000 1.000000
vn 0.000000 0.000000 1.000000
vn 0.000000 0.000000 1.000000
vn 1.000000 0.000000 -0.000000
vn 1.000000 0.000000 -0.000000
vn 1.000000 0.000000 -0.000000
vn 1.000000 0.000000 -0.000000
vn 0.000000 0.000000 -1.000000
vn 0.000000 0.000000 -1.000000
vn 0.000000 0.000000 -1.000000
vn 0.000000 0.000000 -1.000000
vn -1.000000 0.000000 -0.000000
vn -1.000000 0.000000 -0.000000
vn -1.000000 0.000000 -0.000000
vn -1.000000 0.000000 -0.000000
vn 0.000000 0.000000 1.000000
vn 0.000000 0.000000 1.000000
vn 0.000000 0.000000 1.000000
vn 0.000000 0.000000 1.000000
vn 1.000000 0.000000 -0.000000
vn 1.000000 0.000000 -0.000000
vn 1.000000 0.000000 -0.000000
vn 1.000000 0.000000 -0.000000
vn 0.000000 -1.000000 -0.000000
vn 0.000000 -1.000000 -0.000000
vn 0.000000 -1.000000 -0.000000
vn 0.000000 -1.000000 -0.000000
vn 0.000000 -1.000000 -0.000000
vn 0.000000 -1.000000 -0.000000
vn 0.000000 -1.000000 -0.000000
vn 0.000000 -1.000000 -0.000000
vn 0.000000 -1.000000 -0.000000
vn 0.000000 -1.000000 -0.000000
vn 0.000000 -1.000000 -0.000000
vn 0.000000 -1.000000 -0.000000
vn 0.000000 -1.000000 -0.000000
vn 0.000000 -1.000000 -0.000000
vn 0.000000 -1.000000 -0.000000
vn 0.000000 -1.000000 -0.000000
vn 0.000000 -1.000000 -0.000000
vn 0.000000 -1.000000 -0.000000
vn 0.000000 -1.000000 -0.000000
vn 0.000000 -1.000000 -0.000000
vn 0.000000 -1.000000 -0.000000
vn 0.000000 -1.000000 -0.000000
vn 0.000000 -1.000000 -0.000000
vn 0.000000 -1.000000 -0.000000
vn 0.000000 1.000000 -0.000000
vn 0.000000 1.000000 -0.000000
vn 0.000000 1.000000 -0.000000
vn 0.000000 1.000000 -0.000000
vn 0.000000 1.000000 -0.000000
vn 0.000000 1.000000 -0.000000
vn 0.000000 1.000000 -0.000000
vn 0.000000 1.000000 -0.000000
vn 0.000000 1.000000 -0.000000
vn 0.000000 1.000000 -0.000000
vn 0.000000 1.000000 -0.000000
vn 0.000000 1.000000 -0.000000
vn 0.000000 1.000000 -0.000000
vn 0.000000 1.000000 -0.000000
vn 0.000000 1.000000 -0.000000
vn 0.000000 1.000000 -0.000000
vn 0.000000 1.000000 -0.000000
vn 0.000000 1.000000 -0.000000
vn 0.000000 1.000000 -0.000000
vn 0.000000 1.000000 -0.000000
vn 0.000000 1.000000 -0.000000
vn 0.000000 1.000000 -0.000000
vn 0.000000 1.000000 -0.000000
vn 0.000000 1.000000 -0.000000
# 144 vertex normals

g Multiball
usemtl wire_008110135
f 6//1 5//2 1//3 2//4 
f 7//5 6//6 2//7 3//8 
f 8//9 7//10 3//11 4//12 
f 5//13 8//14 4//15 1//16 
f 14//17 13//18 9//19 10//20 
f 15//21 14//22 10//23 11//24 
f 16//25 15//26 11//27 12//28 
f 13//29 16//30 12//31 9//32 
f 22//33 21//34 17//35 18//36 
f 23//37 22//38 18//39 19//40 
f 24//41 23//42 19//43 20//44 
f 21//45 24//46 20//47 17//48 
f 30//49 29//50 25//51 26//52 
f 31//53 30//54 26//55 27//56 
f 32//57 31//58 27//59 28//60 
f 29//61 32//62 28//63 25//64 
f 38//65 37//66 33//67 34//68 
f 39//69 38//70 34//71 35//72 
f 40//73 39//74 35//75 36//76 
f 37//77 40//78 36//79 33//80 
f 46//81 45//82 41//83 42//84 
f 47//85 46//86 42//87 43//88 
f 48//89 47//90 43//91 44//92 
f 45//93 48//94 44//95 41//96 
f 3//97 2//98 1//99 4//100 
f 11//101 10//102 9//103 12//104 
f 19//105 18//106 17//107 20//108 
f 27//109 26//110 25//111 28//112 
f 35//113 34//114 33//115 36//116 
f 43//117 42//118 41//119 44//120 
f 5//121 6//122 7//123 8//124 
f 13//125 14//126 15//127 16//128 
f 21//129 22//130 23//131 24//132 
f 29//133 30//134 31//135 32//136 
f 37//137 38//138 39//139 40//140 
f 45//141 46//142 47//143 48//144 
# 36 polygons

