# 3ds Max Wavefront OBJ Exporter v0.97b - (c)2007 guruware
# File Created: 10.12.2012 16:24:07

mtllib FastBall.mtl

#
# object FastBall
#

v  -2.250045 0.000000 -1.250001
v  -1.250001 0.000000 -0.249992
v  -1.250001 0.000000 -1.250019
v  -0.249991 0.000000 -1.250001
v  -1.250001 0.000000 -2.250010
v  -2.249991 0.000000 -2.250010
v  -2.250045 1.000000 -1.250001
v  -1.250001 1.000000 -0.249992
v  -1.250001 1.000000 -1.250019
v  -0.249991 1.000000 -1.250001
v  -1.250001 1.000000 -2.250010
v  -2.249991 1.000000 -2.250010
v  1.250036 0.000000 0.249992
v  0.250020 0.000000 -0.750004
v  -0.749981 0.000000 -0.750012
v  -0.749981 0.000000 0.249992
v  0.250063 0.000000 1.250002
v  0.250046 0.000000 0.249985
v  1.250036 1.000000 0.249992
v  0.250020 1.000000 -0.750004
v  -0.749981 1.000000 -0.750012
v  -0.749981 1.000000 0.249992
v  0.250063 1.000000 1.250002
v  0.250046 1.000000 0.249985
v  1.750039 0.000000 0.749998
v  0.750016 0.000000 0.749981
v  0.750016 0.000000 1.750021
v  1.250036 0.000000 2.249992
v  1.750039 0.000000 2.249985
v  1.750039 0.000000 1.750011
v  2.250009 0.000000 1.749989
v  2.250009 0.000000 1.250002
v  1.750039 1.000000 0.749998
v  0.750016 1.000000 0.749981
v  0.750016 1.000000 1.750021
v  1.250036 1.000000 2.249992
v  1.750039 1.000000 2.249985
v  1.750039 1.000000 1.750011
v  2.250009 1.000000 1.749989
v  2.250009 1.000000 1.250002
v  1.750056 0.000000 -1.749990
v  1.250036 0.000000 -2.250010
v  -0.249991 0.000000 -2.250010
v  -0.249991 0.000000 -1.749990
v  0.750049 0.000000 -0.750012
v  0.750032 0.000000 -1.749998
v  1.750056 1.000000 -1.749990
v  1.250036 1.000000 -2.250010
v  -0.249991 1.000000 -2.250010
v  -0.249991 1.000000 -1.749990
v  0.750049 1.000000 -0.750012
v  0.750032 1.000000 -1.749998
v  2.250009 0.000000 -1.250001
v  1.250036 0.000000 -1.250001
v  1.250002 0.000000 -0.249992
v  2.250045 0.000000 0.750015
v  2.250009 1.000000 -1.250001
v  1.250036 1.000000 -1.250001
v  1.250002 1.000000 -0.249992
v  2.250045 1.000000 0.750015
v  -0.749981 0.000000 0.750015
v  -1.749954 0.000000 -0.249992
v  -2.250045 0.000000 -0.249992
v  -2.249974 0.000000 1.250002
v  -1.749954 0.000000 1.750021
v  -1.749954 0.000000 0.749998
v  -0.749981 1.000000 0.750015
v  -1.749954 1.000000 -0.249992
v  -2.250045 1.000000 -0.249992
v  -2.249974 1.000000 1.250002
v  -1.749954 1.000000 1.750021
v  -1.749954 1.000000 0.749998
v  -1.250001 0.000000 1.250002
v  -1.250036 0.000000 2.250010
v  0.750016 0.000000 2.250010
v  -0.250010 0.000000 1.250002
v  -1.250001 1.000000 1.250002
v  -1.250036 1.000000 2.250010
v  0.750016 1.000000 2.250010
v  -0.250010 1.000000 1.250002
# 80 vertices

vn -0.707094 0.000000 0.707119
vn -0.707094 0.000000 0.707119
vn -0.707094 0.000000 0.707119
vn -0.707094 0.000000 0.707119
vn 1.000000 0.000000 -0.000000
vn 1.000000 0.000000 -0.000000
vn 1.000000 0.000000 -0.000000
vn 1.000000 0.000000 -0.000000
vn -0.000018 0.000000 1.000000
vn -0.000018 0.000000 1.000000
vn -0.000018 0.000000 1.000000
vn -0.000018 0.000000 1.000000
vn 0.707106 0.000000 -0.707107
vn 0.707106 0.000000 -0.707107
vn 0.707106 0.000000 -0.707107
vn 0.707106 0.000000 -0.707107
vn 0.000000 0.000000 -1.000000
vn 0.000000 0.000000 -1.000000
vn 0.000000 0.000000 -1.000000
vn 0.000000 0.000000 -1.000000
vn -1.000000 0.000000 -0.000053
vn -1.000000 0.000000 -0.000053
vn -1.000000 0.000000 -0.000053
vn -1.000000 0.000000 -0.000053
vn 0.707100 0.000000 -0.707114
vn 0.707100 0.000000 -0.707114
vn 0.707100 0.000000 -0.707114
vn 0.707100 0.000000 -0.707114
vn 0.000009 0.000000 -1.000000
vn 0.000009 0.000000 -1.000000
vn 0.000009 0.000000 -1.000000
vn 0.000009 0.000000 -1.000000
vn -1.000000 0.000000 -0.000000
vn -1.000000 0.000000 -0.000000
vn -1.000000 0.000000 -0.000000
vn -1.000000 0.000000 -0.000000
vn -0.707095 0.000000 0.707119
vn -0.707095 0.000000 0.707119
vn -0.707095 0.000000 0.707119
vn -0.707095 0.000000 0.707119
vn 1.000000 0.000000 -0.000017
vn 1.000000 0.000000 -0.000017
vn 1.000000 0.000000 -0.000017
vn 1.000000 0.000000 -0.000017
vn -0.000008 0.000000 1.000000
vn -0.000008 0.000000 1.000000
vn -0.000008 0.000000 1.000000
vn -0.000008 0.000000 1.000000
vn 0.000017 0.000000 -1.000000
vn 0.000017 0.000000 -1.000000
vn 0.000017 0.000000 -1.000000
vn 0.000017 0.000000 -1.000000
vn -1.000000 0.000000 -0.000000
vn -1.000000 0.000000 -0.000000
vn -1.000000 0.000000 -0.000000
vn -1.000000 0.000000 -0.000000
vn -0.707072 0.000000 0.707141
vn -0.707072 0.000000 0.707141
vn -0.707072 0.000000 0.707141
vn -0.707072 0.000000 0.707141
vn 0.000015 0.000000 1.000000
vn 0.000015 0.000000 1.000000
vn 0.000015 0.000000 1.000000
vn 0.000015 0.000000 1.000000
vn 1.000000 0.000000 -0.000000
vn 1.000000 0.000000 -0.000000
vn 1.000000 0.000000 -0.000000
vn 1.000000 0.000000 -0.000000
vn 0.000046 0.000000 1.000000
vn 0.000046 0.000000 1.000000
vn 0.000046 0.000000 1.000000
vn 0.000046 0.000000 1.000000
vn 1.000000 0.000000 -0.000000
vn 1.000000 0.000000 -0.000000
vn 1.000000 0.000000 -0.000000
vn 1.000000 0.000000 -0.000000
vn 0.707131 0.000000 -0.707083
vn 0.707131 0.000000 -0.707083
vn 0.707131 0.000000 -0.707083
vn 0.707131 0.000000 -0.707083
vn 0.707107 0.000000 -0.707107
vn 0.707107 0.000000 -0.707107
vn 0.707107 0.000000 -0.707107
vn 0.707107 0.000000 -0.707107
vn 0.000000 0.000000 -1.000000
vn 0.000000 0.000000 -1.000000
vn 0.000000 0.000000 -1.000000
vn 0.000000 0.000000 -1.000000
vn -1.000000 0.000000 -0.000000
vn -1.000000 0.000000 -0.000000
vn -1.000000 0.000000 -0.000000
vn -1.000000 0.000000 -0.000000
vn -0.707085 0.000000 0.707129
vn -0.707085 0.000000 0.707129
vn -0.707085 0.000000 0.707129
vn -0.707085 0.000000 0.707129
vn 1.000000 0.000000 -0.000016
vn 1.000000 0.000000 -0.000016
vn 1.000000 0.000000 -0.000016
vn 1.000000 0.000000 -0.000016
vn -0.000009 0.000000 1.000000
vn -0.000009 0.000000 1.000000
vn -0.000009 0.000000 1.000000
vn -0.000009 0.000000 1.000000
vn 0.000000 0.000000 -1.000000
vn 0.000000 0.000000 -1.000000
vn 0.000000 0.000000 -1.000000
vn 0.000000 0.000000 -1.000000
vn -1.000000 0.000000 -0.000034
vn -1.000000 0.000000 -0.000034
vn -1.000000 0.000000 -0.000034
vn -1.000000 0.000000 -0.000034
vn -0.707094 0.000000 0.707119
vn -0.707094 0.000000 0.707119
vn -0.707094 0.000000 0.707119
vn -0.707094 0.000000 0.707119
vn 1.000000 0.000000 -0.000018
vn 1.000000 0.000000 -0.000018
vn 1.000000 0.000000 -0.000018
vn 1.000000 0.000000 -0.000018
vn 0.707119 0.000000 -0.707095
vn 0.707119 0.000000 -0.707095
vn 0.707119 0.000000 -0.707095
vn 0.707119 0.000000 -0.707095
vn 0.000000 0.000000 -1.000000
vn 0.000000 0.000000 -1.000000
vn 0.000000 0.000000 -1.000000
vn 0.000000 0.000000 -1.000000
vn -1.000000 0.000000 0.000047
vn -1.000000 0.000000 0.000047
vn -1.000000 0.000000 0.000047
vn -1.000000 0.000000 0.000047
vn -0.707106 0.000000 0.707107
vn -0.707106 0.000000 0.707107
vn -0.707106 0.000000 0.707107
vn -0.707106 0.000000 0.707107
vn 1.000000 0.000000 -0.000000
vn 1.000000 0.000000 -0.000000
vn 1.000000 0.000000 -0.000000
vn 1.000000 0.000000 -0.000000
vn -0.000017 0.000000 1.000000
vn -0.000017 0.000000 1.000000
vn -0.000017 0.000000 1.000000
vn -0.000017 0.000000 1.000000
vn -1.000000 0.000000 -0.000035
vn -1.000000 0.000000 -0.000035
vn -1.000000 0.000000 -0.000035
vn -1.000000 0.000000 -0.000035
vn 0.000000 0.000000 1.000000
vn 0.000000 0.000000 1.000000
vn 0.000000 0.000000 1.000000
vn 0.000000 0.000000 1.000000
vn 0.707100 0.000000 -0.707113
vn 0.707100 0.000000 -0.707113
vn 0.707100 0.000000 -0.707113
vn 0.707100 0.000000 -0.707113
vn 0.000000 0.000000 -1.000000
vn 0.000000 0.000000 -1.000000
vn 0.000000 0.000000 -1.000000
vn 0.000000 0.000000 -1.000000
vn 0.000000 -1.000000 -0.000000
vn 0.000000 -1.000000 -0.000000
vn 0.000000 -1.000000 -0.000000
vn 0.000000 -1.000000 -0.000000
vn 0.000000 -1.000000 -0.000000
vn 0.000000 -1.000000 -0.000000
vn 0.000000 -1.000000 -0.000000
vn 0.000000 -1.000000 -0.000000
vn 0.000000 -1.000000 -0.000000
vn 0.000000 -1.000000 -0.000000
vn 0.000000 -1.000000 -0.000000
vn 0.000000 -1.000000 -0.000000
vn 0.000000 -1.000000 -0.000000
vn 0.000000 -1.000000 -0.000000
vn 0.000000 -1.000000 -0.000000
vn 0.000000 -1.000000 -0.000000
vn 0.000000 -1.000000 -0.000000
vn 0.000000 -1.000000 -0.000000
vn 0.000000 -1.000000 -0.000000
vn 0.000000 -1.000000 -0.000000
vn 0.000000 -1.000000 -0.000000
vn 0.000000 -1.000000 -0.000000
vn 0.000000 -1.000000 -0.000000
vn 0.000000 -1.000000 -0.000000
vn 0.000000 -1.000000 -0.000000
vn 0.000000 -1.000000 -0.000000
vn 0.000000 -1.000000 -0.000000
vn 0.000000 -1.000000 -0.000000
vn 0.000000 -1.000000 -0.000000
vn 0.000000 -1.000000 -0.000000
vn 0.000000 -1.000000 -0.000000
vn 0.000000 -1.000000 -0.000000
vn 0.000000 -1.000000 -0.000000
vn 0.000000 -1.000000 -0.000000
vn 0.000000 -1.000000 -0.000000
vn 0.000000 -1.000000 -0.000000
vn 0.000000 -1.000000 -0.000000
vn 0.000000 -1.000000 -0.000000
vn 0.000000 -1.000000 -0.000000
vn 0.000000 -1.000000 -0.000000
vn 0.000000 -1.000000 -0.000000
vn 0.000000 -1.000000 -0.000000
vn 0.000000 -1.000000 -0.000000
vn 0.000000 -1.000000 -0.000000
vn 0.000000 -1.000000 -0.000000
vn 0.000000 -1.000000 -0.000000
vn 0.000000 -1.000000 -0.000000
vn 0.000000 -1.000000 -0.000000
vn 0.000000 -1.000000 -0.000000
vn 0.000000 -1.000000 -0.000000
vn 0.000000 -1.000000 -0.000000
vn 0.000000 -1.000000 -0.000000
vn 0.000000 -1.000000 -0.000000
vn 0.000000 -1.000000 -0.000000
vn 0.000000 -1.000000 -0.000000
vn 0.000000 -1.000000 -0.000000
vn 0.000000 1.000000 -0.000000
vn 0.000000 1.000000 -0.000000
vn 0.000000 1.000000 -0.000000
vn 0.000000 1.000000 -0.000000
vn 0.000000 1.000000 -0.000000
vn 0.000000 1.000000 -0.000000
vn 0.000000 1.000000 -0.000000
vn 0.000000 1.000000 -0.000000
vn 0.000000 1.000000 -0.000000
vn 0.000000 1.000000 -0.000000
vn 0.000000 1.000000 -0.000000
vn 0.000000 1.000000 -0.000000
vn 0.000000 1.000000 -0.000000
vn 0.000000 1.000000 -0.000000
vn 0.000000 1.000000 -0.000000
vn 0.000000 1.000000 -0.000000
vn 0.000000 1.000000 -0.000000
vn 0.000000 1.000000 -0.000000
vn 0.000000 1.000000 -0.000000
vn 0.000000 1.000000 -0.000000
vn 0.000000 1.000000 -0.000000
vn 0.000000 1.000000 -0.000000
vn 0.000000 1.000000 -0.000000
vn 0.000000 1.000000 -0.000000
vn 0.000000 1.000000 -0.000000
vn 0.000000 1.000000 -0.000000
vn 0.000000 1.000000 -0.000000
vn 0.000000 1.000000 -0.000000
vn 0.000000 1.000000 -0.000000
vn 0.000000 1.000000 -0.000000
vn 0.000000 1.000000 -0.000000
vn 0.000000 1.000000 -0.000000
vn 0.000000 1.000000 -0.000000
vn 0.000000 1.000000 -0.000000
vn 0.000000 1.000000 -0.000000
vn 0.000000 1.000000 -0.000000
vn 0.000000 1.000000 -0.000000
vn 0.000000 1.000000 -0.000000
vn 0.000000 1.000000 -0.000000
vn 0.000000 1.000000 -0.000000
vn 0.000000 1.000000 -0.000000
vn 0.000000 1.000000 -0.000000
vn 0.000000 1.000000 -0.000000
vn 0.000000 1.000000 -0.000000
vn 0.000000 1.000000 -0.000000
vn 0.000000 1.000000 -0.000000
vn 0.000000 1.000000 -0.000000
vn 0.000000 1.000000 -0.000000
vn 0.000000 1.000000 -0.000000
vn 0.000000 1.000000 -0.000000
vn 0.000000 1.000000 -0.000000
vn 0.000000 1.000000 -0.000000
vn 0.000000 1.000000 -0.000000
vn 0.000000 1.000000 -0.000000
vn 0.000000 1.000000 -0.000000
vn 0.000000 1.000000 -0.000000
# 272 vertex normals

g FastBall
usemtl wire_008110135
f 8//1 7//2 1//3 2//4 
f 9//5 8//6 2//7 3//8 
f 10//9 9//10 3//11 4//12 
f 11//13 10//14 4//15 5//16 
f 12//17 11//18 5//19 6//20 
f 7//21 12//22 6//23 1//24 
f 20//25 19//26 13//27 14//28 
f 21//29 20//30 14//31 15//32 
f 22//33 21//34 15//35 16//36 
f 23//37 22//38 16//39 17//40 
f 24//41 23//42 17//43 18//44 
f 19//45 24//46 18//47 13//48 
f 34//49 33//50 25//51 26//52 
f 35//53 34//54 26//55 27//56 
f 36//57 35//58 27//59 28//60 
f 37//61 36//62 28//63 29//64 
f 38//65 37//66 29//67 30//68 
f 39//69 38//70 30//71 31//72 
f 40//73 39//74 31//75 32//76 
f 33//77 40//78 32//79 25//80 
f 48//81 47//82 41//83 42//84 
f 49//85 48//86 42//87 43//88 
f 50//89 49//90 43//91 44//92 
f 51//93 50//94 44//95 45//96 
f 52//97 51//98 45//99 46//100 
f 47//101 52//102 46//103 41//104 
f 58//105 57//106 53//107 54//108 
f 59//109 58//110 54//111 55//112 
f 60//113 59//114 55//115 56//116 
f 57//117 60//118 56//119 53//120 
f 68//121 67//122 61//123 62//124 
f 69//125 68//126 62//127 63//128 
f 70//129 69//130 63//131 64//132 
f 71//133 70//134 64//135 65//136 
f 72//137 71//138 65//139 66//140 
f 67//141 72//142 66//143 61//144 
f 78//145 77//146 73//147 74//148 
f 79//149 78//150 74//151 75//152 
f 80//153 79//154 75//155 76//156 
f 77//157 80//158 76//159 73//160 
f 5//161 4//162 3//163 6//164 
f 1//165 6//166 3//167 2//168 
f 16//169 15//170 14//171 18//172 
f 14//173 13//174 18//175 
f 16//176 18//177 17//178 
f 27//179 26//180 25//181 28//182 
f 28//183 25//184 32//185 30//186 
f 32//187 31//188 30//189 
f 28//190 30//191 29//192 
f 42//193 41//194 46//195 43//196 
f 44//197 43//198 46//199 45//200 
f 55//201 54//202 53//203 56//204 
f 62//205 61//206 66//207 63//208 
f 64//209 63//210 66//211 65//212 
f 74//213 73//214 76//215 75//216 
f 7//217 8//218 9//219 12//220 
f 9//221 10//222 11//223 12//224 
f 22//225 23//226 24//227 20//228 
f 24//229 19//230 20//231 
f 22//232 20//233 21//234 
f 36//235 37//236 38//237 40//238 
f 38//239 39//240 40//241 
f 36//242 40//243 33//244 35//245 
f 33//246 34//247 35//248 
f 50//249 51//250 52//251 49//252 
f 52//253 47//254 48//255 49//256 
f 57//257 58//258 59//259 60//260 
f 70//261 71//262 72//263 69//264 
f 72//265 67//266 68//267 69//268 
f 80//269 77//270 78//271 79//272 
# 62 polygons - 8 triangles

